<svg xmlns="http://www.w3.org/2000/svg" xmlns:xlink="http://www.w3.org/1999/xlink" width="500" zoomAndPan="magnify" viewBox="0 0 375 374.999991" height="500" preserveAspectRatio="xMidYMid meet" version="1.0"><defs><g/></defs><g fill="#ffffff" fill-opacity="1"><g transform="translate(53.011169, 220.388235)"><g><path d="M 135.203125 -124.09375 L 135.203125 -86.046875 L 93.765625 -86.046875 C 86.484375 -86.046875 79.671875 -87.300781 73.328125 -89.8125 C 66.992188 -92.320312 61.597656 -95.929688 57.140625 -100.640625 C 52.691406 -105.347656 49.648438 -110.96875 48.015625 -117.5 L 48.015625 -45.75 C 48.015625 -43.113281 47.765625 -40.539062 47.265625 -38.03125 C 46.128906 -31 43.519531 -24.691406 39.4375 -19.109375 C 35.363281 -13.523438 30.3125 -9.035156 24.28125 -5.640625 C 18.257812 -2.253906 11.609375 -0.375 4.328125 0 C 3.828125 0 3.140625 0 2.265625 0 L 0 0 L 0 -163.625 C 0 -172.039062 2.066406 -179.726562 6.203125 -186.6875 C 10.347656 -193.65625 15.875 -199.179688 22.78125 -203.265625 C 29.6875 -207.347656 37.34375 -209.390625 45.75 -209.390625 L 139.71875 -209.390625 L 139.71875 -168.71875 L 93.765625 -168.71875 C 85.359375 -168.71875 77.703125 -170.160156 70.796875 -173.046875 C 63.890625 -175.929688 58.363281 -180.226562 54.21875 -185.9375 C 50.082031 -191.65625 48.015625 -198.78125 48.015625 -207.3125 L 48.015625 -124.09375 Z M 135.203125 -124.09375 "/></g></g></g><g fill="#ffffff" fill-opacity="1"><g transform="translate(188.954406, 318.264407)"><g><path d="M 135.203125 -124.09375 L 135.203125 -86.046875 L 93.765625 -86.046875 C 86.484375 -86.046875 79.671875 -87.300781 73.328125 -89.8125 C 66.992188 -92.320312 61.597656 -95.929688 57.140625 -100.640625 C 52.691406 -105.347656 49.648438 -110.96875 48.015625 -117.5 L 48.015625 -45.75 C 48.015625 -43.113281 47.765625 -40.539062 47.265625 -38.03125 C 46.128906 -31 43.519531 -24.691406 39.4375 -19.109375 C 35.363281 -13.523438 30.3125 -9.035156 24.28125 -5.640625 C 18.257812 -2.253906 11.609375 -0.375 4.328125 0 C 3.828125 0 3.140625 0 2.265625 0 L 0 0 L 0 -163.625 C 0 -172.039062 2.066406 -179.726562 6.203125 -186.6875 C 10.347656 -193.65625 15.875 -199.179688 22.78125 -203.265625 C 29.6875 -207.347656 37.34375 -209.390625 45.75 -209.390625 L 139.71875 -209.390625 L 139.71875 -168.71875 L 93.765625 -168.71875 C 85.359375 -168.71875 77.703125 -170.160156 70.796875 -173.046875 C 63.890625 -175.929688 58.363281 -180.226562 54.21875 -185.9375 C 50.082031 -191.65625 48.015625 -198.78125 48.015625 -207.3125 L 48.015625 -124.09375 Z M 135.203125 -124.09375 "/></g></g></g><g fill="#ffffff" fill-opacity="1"><g transform="translate(94.235188, 368.172485)"><g><path d="M 3.90625 0 L 2.078125 0 L 2.078125 -14.84375 L 18.953125 -14.84375 L 18.953125 -13 L 3.90625 -13 L 3.90625 -8.34375 L 17.21875 -8.34375 L 17.21875 -6.5 L 3.90625 -6.5 Z M 3.90625 0 "/></g></g></g><g fill="#ffffff" fill-opacity="1"><g transform="translate(126.30814, 368.172485)"><g><path d="M 3.90625 0 L 3.90625 -14.84375 L 2.078125 -14.84375 L 2.078125 0 Z M 3.90625 0 "/></g></g></g><g fill="#ffffff" fill-opacity="1"><g transform="translate(143.853451, 368.172485)"><g><path d="M 9.46875 0 L 7.625 0 L 7.625 -13 L 0.3125 -13 L 0.3125 -14.84375 L 16.765625 -14.84375 L 16.765625 -13 L 9.46875 -13 Z M 9.46875 0 "/></g></g></g><g fill="#ffffff" fill-opacity="1"><g transform="translate(189.423793, 368.172485)"><g><path d="M 4.4375 0 L 2.078125 0 L 2.078125 -14.84375 L 18.578125 -14.84375 L 18.578125 -12.5 L 4.4375 -12.5 L 4.4375 -8.609375 L 16.90625 -8.609375 L 16.90625 -6.25 L 4.4375 -6.25 Z M 4.4375 0 "/></g></g></g><g fill="#ffffff" fill-opacity="1"><g transform="translate(210.645467, 368.172485)"><g/></g></g><g fill="#ffffff" fill-opacity="1"><g transform="translate(216.987439, 368.172485)"><g><path d="M 15.671875 0 L 15.671875 -2.359375 L 4.4375 -2.359375 L 4.4375 -14.84375 L 2.078125 -14.84375 L 2.078125 0 Z M 15.671875 0 "/></g></g></g><g fill="#ffffff" fill-opacity="1"><g transform="translate(234.460715, 368.172485)"><g/></g></g><g fill="#ffffff" fill-opacity="1"><g transform="translate(240.802688, 368.172485)"><g><path d="M 18.578125 0 L 2.078125 0 L 2.078125 -14.84375 L 18.578125 -14.84375 L 18.578125 -12.5 L 4.4375 -12.5 L 4.4375 -8.609375 L 16.90625 -8.609375 L 16.90625 -6.25 L 4.4375 -6.25 L 4.4375 -2.359375 L 18.578125 -2.359375 Z M 18.578125 0 "/></g></g></g><g fill="#ffffff" fill-opacity="1"><g transform="translate(262.024362, 368.172485)"><g/></g></g><g fill="#ffffff" fill-opacity="1"><g transform="translate(268.366335, 368.172485)"><g><path d="M 20.765625 0 L 17.171875 0 L 10.515625 -5.84375 L 3.875 0 L 0.3125 0 L 8.734375 -7.421875 L 0.3125 -14.84375 L 3.875 -14.84375 L 10.515625 -9 L 17.171875 -14.84375 L 20.765625 -14.84375 L 12.296875 -7.421875 Z M 20.765625 0 "/></g></g></g></svg>