<svg xmlns="http://www.w3.org/2000/svg" xmlns:xlink="http://www.w3.org/1999/xlink" width="500" zoomAndPan="magnify" viewBox="0 0 375 374.999991" height="500" preserveAspectRatio="xMidYMid meet" version="1.0"><defs><g/><clipPath id="53e5692754"><path d="M 37 37.5 L 338 37.5 L 338 337.5 L 37 337.5 Z M 37 37.5 " clip-rule="nonzero"/></clipPath><clipPath id="ecd6b0b5ee"><path d="M 17.746094 159 L 357.496094 159 L 357.496094 216 L 17.746094 216 Z M 17.746094 159 " clip-rule="nonzero"/></clipPath><clipPath id="c49526db07"><path d="M 79.933594 122.109375 L 295.183594 122.109375 L 295.183594 274.359375 L 79.933594 274.359375 Z M 79.933594 122.109375 " clip-rule="nonzero"/></clipPath><clipPath id="27c7d25933"><path d="M 69.886719 122.078125 L 89.980469 122.078125 L 89.980469 142.175781 L 69.886719 142.175781 Z M 69.886719 122.078125 " clip-rule="nonzero"/></clipPath><clipPath id="b285c82584"><path d="M 79.933594 122.078125 C 74.386719 122.078125 69.886719 126.578125 69.886719 132.128906 C 69.886719 137.675781 74.386719 142.175781 79.933594 142.175781 C 85.484375 142.175781 89.980469 137.675781 89.980469 132.128906 C 89.980469 126.578125 85.484375 122.078125 79.933594 122.078125 Z M 79.933594 122.078125 " clip-rule="nonzero"/></clipPath><clipPath id="e3b791b4d3"><path d="M 285.019531 122.109375 L 305.113281 122.109375 L 305.113281 142.207031 L 285.019531 142.207031 Z M 285.019531 122.109375 " clip-rule="nonzero"/></clipPath><clipPath id="f23550ee07"><path d="M 295.066406 122.109375 C 289.515625 122.109375 285.019531 126.609375 285.019531 132.160156 C 285.019531 137.707031 289.515625 142.207031 295.066406 142.207031 C 300.613281 142.207031 305.113281 137.707031 305.113281 132.160156 C 305.113281 126.609375 300.613281 122.109375 295.066406 122.109375 Z M 295.066406 122.109375 " clip-rule="nonzero"/></clipPath></defs><path fill="#000000" d="M 333.972656 187.488281 C 333.972656 189.882812 333.914062 192.277344 333.792969 194.671875 C 333.675781 197.066406 333.5 199.457031 333.265625 201.84375 C 333.03125 204.230469 332.738281 206.605469 332.386719 208.976562 C 332.035156 211.347656 331.625 213.710938 331.15625 216.0625 C 330.6875 218.414062 330.164062 220.75 329.582031 223.078125 C 329 225.402344 328.359375 227.710938 327.664062 230.003906 C 326.96875 232.300781 326.214844 234.574219 325.410156 236.832031 C 324.601562 239.089844 323.738281 241.324219 322.820312 243.539062 C 321.902344 245.753906 320.933594 247.945312 319.90625 250.109375 C 318.882812 252.277344 317.804688 254.417969 316.675781 256.53125 C 315.546875 258.648438 314.363281 260.730469 313.132812 262.789062 C 311.898438 264.84375 310.617188 266.867188 309.285156 268.863281 C 307.953125 270.855469 306.574219 272.8125 305.144531 274.738281 C 303.71875 276.664062 302.242188 278.554688 300.722656 280.40625 C 299.203125 282.261719 297.636719 284.074219 296.027344 285.851562 C 294.417969 287.628906 292.765625 289.363281 291.070312 291.058594 C 289.375 292.753906 287.640625 294.40625 285.863281 296.015625 C 284.085938 297.625 282.273438 299.191406 280.417969 300.710938 C 278.566406 302.230469 276.675781 303.707031 274.753906 305.132812 C 272.828125 306.5625 270.867188 307.941406 268.875 309.273438 C 266.882812 310.605469 264.855469 311.886719 262.800781 313.121094 C 260.746094 314.351562 258.660156 315.535156 256.546875 316.664062 C 254.429688 317.792969 252.289062 318.871094 250.125 319.894531 C 247.957031 320.921875 245.765625 321.890625 243.550781 322.808594 C 241.335938 323.726562 239.101562 324.589844 236.84375 325.394531 C 234.585938 326.203125 232.3125 326.957031 230.015625 327.652344 C 227.722656 328.347656 225.414062 328.988281 223.089844 329.570312 C 220.761719 330.152344 218.425781 330.675781 216.074219 331.144531 C 213.722656 331.613281 211.363281 332.019531 208.992188 332.375 C 206.621094 332.726562 204.242188 333.019531 201.855469 333.253906 C 199.46875 333.488281 197.082031 333.664062 194.6875 333.78125 C 192.292969 333.898438 189.894531 333.957031 187.5 333.957031 C 185.101562 333.957031 182.707031 333.898438 180.3125 333.78125 C 177.917969 333.664062 175.527344 333.488281 173.140625 333.253906 C 170.757812 333.019531 168.378906 332.726562 166.007812 332.375 C 163.636719 332.019531 161.273438 331.613281 158.921875 331.144531 C 156.574219 330.675781 154.234375 330.152344 151.910156 329.570312 C 149.582031 328.988281 147.273438 328.347656 144.980469 327.652344 C 142.6875 326.957031 140.410156 326.203125 138.152344 325.394531 C 135.898438 324.589844 133.660156 323.726562 131.445312 322.808594 C 129.230469 321.890625 127.039062 320.921875 124.875 319.894531 C 122.707031 318.871094 120.566406 317.792969 118.453125 316.664062 C 116.339844 315.535156 114.253906 314.351562 112.195312 313.121094 C 110.140625 311.886719 108.117188 310.605469 106.125 309.273438 C 104.128906 307.941406 102.171875 306.5625 100.246094 305.132812 C 98.320312 303.707031 96.429688 302.230469 94.578125 300.710938 C 92.726562 299.191406 90.910156 297.625 89.132812 296.015625 C 87.359375 294.40625 85.621094 292.753906 83.925781 291.058594 C 82.230469 289.363281 80.578125 287.628906 78.96875 285.851562 C 77.359375 284.074219 75.796875 282.261719 74.273438 280.40625 C 72.753906 278.554688 71.277344 276.664062 69.851562 274.738281 C 68.421875 272.8125 67.042969 270.855469 65.710938 268.863281 C 64.378906 266.867188 63.097656 264.84375 61.867188 262.789062 C 60.632812 260.730469 59.453125 258.648438 58.320312 256.53125 C 57.191406 254.417969 56.113281 252.277344 55.089844 250.109375 C 54.066406 247.945312 53.09375 245.753906 52.175781 243.539062 C 51.257812 241.324219 50.394531 239.089844 49.589844 236.832031 C 48.78125 234.574219 48.03125 232.300781 47.332031 230.003906 C 46.636719 227.710938 46 225.402344 45.417969 223.078125 C 44.832031 220.75 44.308594 218.414062 43.839844 216.0625 C 43.375 213.710938 42.964844 211.347656 42.613281 208.976562 C 42.261719 206.605469 41.96875 204.230469 41.730469 201.84375 C 41.496094 199.457031 41.320312 197.066406 41.203125 194.671875 C 41.085938 192.277344 41.027344 189.882812 41.027344 187.488281 C 41.027344 185.089844 41.085938 182.695312 41.203125 180.300781 C 41.320312 177.90625 41.496094 175.515625 41.730469 173.128906 C 41.96875 170.742188 42.261719 168.367188 42.613281 165.996094 C 42.964844 163.625 43.375 161.261719 43.839844 158.910156 C 44.308594 156.558594 44.832031 154.222656 45.417969 151.898438 C 46 149.570312 46.636719 147.261719 47.332031 144.96875 C 48.03125 142.675781 48.78125 140.398438 49.589844 138.140625 C 50.394531 135.882812 51.257812 133.648438 52.175781 131.433594 C 53.09375 129.21875 54.066406 127.027344 55.089844 124.863281 C 56.113281 122.695312 57.191406 120.554688 58.320312 118.441406 C 59.453125 116.324219 60.632812 114.242188 61.867188 112.183594 C 63.097656 110.128906 64.378906 108.105469 65.710938 106.109375 C 67.042969 104.117188 68.421875 102.160156 69.851562 100.234375 C 71.277344 98.308594 72.753906 96.417969 74.273438 94.566406 C 75.796875 92.710938 77.359375 90.898438 78.96875 89.121094 C 80.578125 87.34375 82.230469 85.609375 83.925781 83.914062 C 85.621094 82.21875 87.359375 80.566406 89.132812 78.957031 C 90.910156 77.347656 92.726562 75.78125 94.578125 74.261719 C 96.429688 72.742188 98.320312 71.265625 100.246094 69.839844 C 102.171875 68.410156 104.128906 67.03125 106.125 65.699219 C 108.117188 64.367188 110.140625 63.085938 112.195312 61.851562 C 114.253906 60.621094 116.339844 59.441406 118.453125 58.308594 C 120.566406 57.179688 122.707031 56.101562 124.875 55.078125 C 127.039062 54.050781 129.230469 53.082031 131.445312 52.164062 C 133.660156 51.246094 135.898438 50.382812 138.152344 49.578125 C 140.410156 48.769531 142.6875 48.015625 144.980469 47.320312 C 147.273438 46.625 149.582031 45.984375 151.910156 45.402344 C 154.234375 44.820312 156.574219 44.296875 158.921875 43.828125 C 161.273438 43.359375 163.636719 42.953125 166.007812 42.597656 C 168.378906 42.246094 170.757812 41.953125 173.140625 41.71875 C 175.527344 41.484375 177.917969 41.308594 180.3125 41.191406 C 182.707031 41.074219 185.101562 41.015625 187.5 41.015625 C 189.894531 41.015625 192.292969 41.074219 194.6875 41.191406 C 197.082031 41.308594 199.46875 41.484375 201.855469 41.71875 C 204.242188 41.953125 206.621094 42.246094 208.992188 42.597656 C 211.363281 42.953125 213.722656 43.359375 216.074219 43.828125 C 218.425781 44.296875 220.761719 44.820312 223.089844 45.402344 C 225.414062 45.984375 227.722656 46.625 230.015625 47.320312 C 232.3125 48.015625 234.585938 48.769531 236.84375 49.578125 C 239.101562 50.382812 241.335938 51.246094 243.550781 52.164062 C 245.765625 53.082031 247.957031 54.050781 250.125 55.078125 C 252.289062 56.101562 254.429688 57.179688 256.546875 58.308594 C 258.660156 59.441406 260.746094 60.621094 262.800781 61.851562 C 264.855469 63.085938 266.882812 64.367188 268.875 65.699219 C 270.867188 67.03125 272.828125 68.410156 274.753906 69.839844 C 276.675781 71.265625 278.566406 72.742188 280.417969 74.261719 C 282.273438 75.78125 284.085938 77.347656 285.863281 78.957031 C 287.640625 80.566406 289.375 82.21875 291.070312 83.914062 C 292.765625 85.609375 294.417969 87.34375 296.027344 89.121094 C 297.636719 90.898438 299.203125 92.710938 300.722656 94.566406 C 302.242188 96.417969 303.71875 98.308594 305.144531 100.234375 C 306.574219 102.160156 307.953125 104.117188 309.285156 106.109375 C 310.617188 108.105469 311.898438 110.128906 313.132812 112.183594 C 314.363281 114.242188 315.546875 116.324219 316.675781 118.441406 C 317.804688 120.554688 318.882812 122.695312 319.90625 124.863281 C 320.933594 127.027344 321.902344 129.21875 322.820312 131.433594 C 323.738281 133.648438 324.601562 135.882812 325.410156 138.140625 C 326.214844 140.398438 326.96875 142.675781 327.664062 144.96875 C 328.359375 147.261719 329 149.570312 329.582031 151.898438 C 330.164062 154.222656 330.6875 156.558594 331.15625 158.910156 C 331.625 161.261719 332.035156 163.625 332.386719 165.996094 C 332.738281 168.367188 333.03125 170.742188 333.265625 173.128906 C 333.5 175.515625 333.675781 177.90625 333.792969 180.300781 C 333.914062 182.695312 333.972656 185.089844 333.972656 187.488281 Z M 333.972656 187.488281 " fill-opacity="1" fill-rule="nonzero"/><g clip-path="url(#53e5692754)"><path fill="#dd2c2c" d="M 187.5 337.472656 C 147.4375 337.472656 109.773438 321.867188 81.441406 293.542969 C 53.109375 265.214844 37.511719 227.554688 37.511719 187.488281 C 37.511719 147.425781 53.117188 109.757812 81.441406 81.429688 C 109.765625 53.097656 147.4375 37.5 187.5 37.5 C 227.558594 37.5 265.226562 53.105469 293.558594 81.429688 C 321.886719 109.757812 337.484375 147.417969 337.484375 187.488281 C 337.484375 227.554688 321.882812 265.214844 293.558594 293.542969 C 265.226562 321.867188 227.558594 337.472656 187.5 337.472656 Z M 187.5 44.527344 C 149.316406 44.527344 113.414062 59.398438 86.414062 86.402344 C 59.410156 113.402344 44.539062 149.296875 44.539062 187.488281 C 44.539062 225.667969 59.410156 261.570312 86.414062 288.570312 C 113.414062 315.574219 149.308594 330.445312 187.5 330.445312 C 225.679688 330.445312 261.582031 315.574219 288.585938 288.570312 C 315.585938 261.570312 330.457031 225.675781 330.457031 187.488281 C 330.457031 149.304688 315.585938 113.402344 288.585938 86.402344 C 261.582031 59.398438 225.679688 44.527344 187.5 44.527344 Z M 187.5 44.527344 " fill-opacity="1" fill-rule="nonzero"/></g><path fill="#dd2c2c" d="M 21.40625 163.300781 L 353.589844 163.300781 L 353.589844 211.664062 L 21.40625 211.664062 Z M 21.40625 163.300781 " fill-opacity="1" fill-rule="nonzero"/><g clip-path="url(#ecd6b0b5ee)"><path fill="#dd2c2c" d="M 357.105469 215.179688 L 17.890625 215.179688 L 17.890625 159.785156 L 357.105469 159.785156 Z M 24.921875 208.152344 L 350.070312 208.152344 L 350.070312 166.816406 L 24.921875 166.816406 Z M 24.921875 208.152344 " fill-opacity="1" fill-rule="nonzero"/></g><path fill="#dd2c2c" d="M 269.589844 187.488281 C 269.589844 188.828125 269.554688 190.171875 269.488281 191.515625 C 269.421875 192.855469 269.324219 194.195312 269.191406 195.53125 C 269.0625 196.871094 268.898438 198.203125 268.699219 199.53125 C 268.503906 200.859375 268.273438 202.183594 268.011719 203.5 C 267.75 204.820312 267.453125 206.128906 267.128906 207.433594 C 266.800781 208.734375 266.445312 210.03125 266.054688 211.316406 C 265.664062 212.601562 265.242188 213.875 264.789062 215.140625 C 264.335938 216.40625 263.855469 217.660156 263.339844 218.902344 C 262.824219 220.140625 262.28125 221.371094 261.707031 222.585938 C 261.132812 223.796875 260.527344 225 259.894531 226.183594 C 259.261719 227.367188 258.601562 228.535156 257.910156 229.6875 C 257.21875 230.839844 256.5 231.976562 255.753906 233.09375 C 255.007812 234.210938 254.234375 235.308594 253.433594 236.386719 C 252.632812 237.464844 251.808594 238.523438 250.953125 239.5625 C 250.101562 240.601562 249.226562 241.617188 248.324219 242.613281 C 247.421875 243.609375 246.496094 244.582031 245.542969 245.53125 C 244.59375 246.484375 243.621094 247.410156 242.625 248.3125 C 241.632812 249.214844 240.613281 250.089844 239.574219 250.941406 C 238.539062 251.792969 237.480469 252.621094 236.398438 253.421875 C 235.320312 254.222656 234.222656 254.996094 233.105469 255.742188 C 231.988281 256.488281 230.855469 257.207031 229.703125 257.898438 C 228.550781 258.585938 227.378906 259.25 226.195312 259.882812 C 225.011719 260.515625 223.8125 261.121094 222.597656 261.695312 C 221.382812 262.269531 220.15625 262.8125 218.914062 263.328125 C 217.671875 263.839844 216.417969 264.324219 215.152344 264.777344 C 213.890625 265.230469 212.613281 265.652344 211.328125 266.042969 C 210.042969 266.429688 208.75 266.789062 207.445312 267.117188 C 206.140625 267.441406 204.832031 267.738281 203.515625 268 C 202.195312 268.261719 200.871094 268.492188 199.542969 268.6875 C 198.214844 268.882812 196.882812 269.050781 195.546875 269.179688 C 194.207031 269.3125 192.867188 269.410156 191.527344 269.476562 C 190.183594 269.542969 188.84375 269.574219 187.5 269.574219 C 186.15625 269.574219 184.8125 269.542969 183.472656 269.476562 C 182.128906 269.410156 180.789062 269.3125 179.453125 269.179688 C 178.117188 269.050781 176.78125 268.882812 175.453125 268.6875 C 174.125 268.492188 172.800781 268.261719 171.484375 268 C 170.167969 267.738281 168.855469 267.441406 167.550781 267.117188 C 166.25 266.789062 164.957031 266.429688 163.667969 266.042969 C 162.382812 265.652344 161.109375 265.230469 159.84375 264.777344 C 158.578125 264.324219 157.324219 263.839844 156.085938 263.328125 C 154.84375 262.8125 153.617188 262.269531 152.402344 261.695312 C 151.1875 261.121094 149.988281 260.515625 148.800781 259.882812 C 147.617188 259.25 146.449219 258.585938 145.296875 257.898438 C 144.144531 257.207031 143.007812 256.488281 141.890625 255.742188 C 140.773438 254.996094 139.675781 254.222656 138.597656 253.421875 C 137.519531 252.621094 136.460938 251.792969 135.421875 250.941406 C 134.382812 250.089844 133.367188 249.214844 132.371094 248.3125 C 131.375 247.410156 130.402344 246.484375 129.453125 245.53125 C 128.503906 244.582031 127.578125 243.609375 126.675781 242.613281 C 125.773438 241.617188 124.894531 240.601562 124.042969 239.5625 C 123.191406 238.523438 122.363281 237.464844 121.5625 236.386719 C 120.761719 235.308594 119.992188 234.210938 119.242188 233.09375 C 118.496094 231.976562 117.777344 230.839844 117.089844 229.6875 C 116.398438 228.535156 115.734375 227.367188 115.101562 226.183594 C 114.46875 225 113.863281 223.796875 113.289062 222.585938 C 112.714844 221.371094 112.171875 220.140625 111.65625 218.902344 C 111.144531 217.660156 110.660156 216.40625 110.207031 215.140625 C 109.753906 213.875 109.335938 212.601562 108.945312 211.316406 C 108.554688 210.03125 108.195312 208.734375 107.871094 207.433594 C 107.542969 206.128906 107.25 204.820312 106.988281 203.5 C 106.722656 202.183594 106.496094 200.859375 106.296875 199.53125 C 106.101562 198.203125 105.9375 196.871094 105.804688 195.53125 C 105.671875 194.195312 105.574219 192.855469 105.507812 191.515625 C 105.441406 190.171875 105.410156 188.828125 105.410156 187.488281 C 105.410156 186.144531 105.441406 184.800781 105.507812 183.457031 C 105.574219 182.117188 105.671875 180.777344 105.804688 179.441406 C 105.9375 178.101562 106.101562 176.769531 106.296875 175.441406 C 106.496094 174.113281 106.722656 172.789062 106.988281 171.472656 C 107.25 170.152344 107.542969 168.84375 107.871094 167.539062 C 108.195312 166.238281 108.554688 164.941406 108.945312 163.65625 C 109.335938 162.371094 109.753906 161.097656 110.207031 159.832031 C 110.660156 158.566406 111.144531 157.3125 111.65625 156.070312 C 112.171875 154.832031 112.714844 153.601562 113.289062 152.386719 C 113.863281 151.175781 114.46875 149.972656 115.101562 148.789062 C 115.734375 147.605469 116.398438 146.4375 117.089844 145.285156 C 117.777344 144.132812 118.496094 142.996094 119.242188 141.878906 C 119.992188 140.761719 120.761719 139.664062 121.5625 138.585938 C 122.363281 137.507812 123.191406 136.449219 124.042969 135.410156 C 124.894531 134.371094 125.773438 133.355469 126.675781 132.359375 C 127.578125 131.363281 128.503906 130.390625 129.453125 129.441406 C 130.402344 128.492188 131.375 127.5625 132.371094 126.660156 C 133.367188 125.761719 134.382812 124.882812 135.421875 124.03125 C 136.460938 123.179688 137.519531 122.351562 138.597656 121.550781 C 139.675781 120.75 140.773438 119.976562 141.890625 119.230469 C 143.007812 118.484375 144.144531 117.765625 145.296875 117.074219 C 146.449219 116.386719 147.617188 115.722656 148.800781 115.089844 C 149.988281 114.457031 151.1875 113.851562 152.402344 113.277344 C 153.617188 112.703125 154.84375 112.160156 156.085938 111.644531 C 157.324219 111.132812 158.578125 110.648438 159.84375 110.195312 C 161.109375 109.742188 162.382812 109.320312 163.667969 108.929688 C 164.957031 108.542969 166.25 108.183594 167.550781 107.855469 C 168.855469 107.53125 170.167969 107.234375 171.484375 106.972656 C 172.800781 106.710938 174.125 106.484375 175.453125 106.285156 C 176.78125 106.089844 178.117188 105.925781 179.453125 105.792969 C 180.789062 105.660156 182.128906 105.5625 183.472656 105.496094 C 184.8125 105.429688 186.15625 105.398438 187.5 105.398438 C 188.84375 105.398438 190.183594 105.429688 191.527344 105.496094 C 192.867188 105.5625 194.207031 105.660156 195.546875 105.792969 C 196.882812 105.925781 198.214844 106.089844 199.542969 106.285156 C 200.871094 106.484375 202.195312 106.710938 203.515625 106.972656 C 204.832031 107.234375 206.140625 107.53125 207.445312 107.855469 C 208.75 108.183594 210.042969 108.542969 211.328125 108.929688 C 212.613281 109.320312 213.890625 109.742188 215.152344 110.195312 C 216.417969 110.648438 217.671875 111.132812 218.914062 111.644531 C 220.15625 112.160156 221.382812 112.703125 222.597656 113.277344 C 223.8125 113.851562 225.011719 114.457031 226.195312 115.089844 C 227.378906 115.722656 228.550781 116.386719 229.703125 117.074219 C 230.855469 117.765625 231.988281 118.484375 233.105469 119.230469 C 234.222656 119.976562 235.320312 120.75 236.398438 121.550781 C 237.480469 122.351562 238.539062 123.179688 239.574219 124.03125 C 240.613281 124.882812 241.632812 125.761719 242.625 126.660156 C 243.621094 127.5625 244.59375 128.492188 245.542969 129.441406 C 246.496094 130.390625 247.421875 131.363281 248.324219 132.359375 C 249.226562 133.355469 250.101562 134.371094 250.953125 135.410156 C 251.808594 136.449219 252.632812 137.507812 253.433594 138.585938 C 254.234375 139.664062 255.007812 140.761719 255.753906 141.878906 C 256.5 142.996094 257.21875 144.132812 257.910156 145.285156 C 258.601562 146.4375 259.261719 147.605469 259.894531 148.789062 C 260.527344 149.972656 261.132812 151.175781 261.707031 152.386719 C 262.28125 153.601562 262.824219 154.832031 263.339844 156.070312 C 263.855469 157.3125 264.335938 158.566406 264.789062 159.832031 C 265.242188 161.097656 265.664062 162.371094 266.054688 163.65625 C 266.445312 164.941406 266.800781 166.238281 267.128906 167.539062 C 267.453125 168.84375 267.75 170.152344 268.011719 171.472656 C 268.273438 172.789062 268.503906 174.113281 268.699219 175.441406 C 268.898438 176.769531 269.0625 178.101562 269.191406 179.441406 C 269.324219 180.777344 269.421875 182.117188 269.488281 183.457031 C 269.554688 184.800781 269.589844 186.144531 269.589844 187.488281 Z M 269.589844 187.488281 " fill-opacity="1" fill-rule="nonzero"/><path fill="#dd2c2c" d="M 187.5 273.089844 C 140.292969 273.089844 101.894531 234.683594 101.894531 187.488281 C 101.894531 140.28125 140.300781 101.882812 187.5 101.882812 C 234.703125 101.882812 273.101562 140.289062 273.101562 187.488281 C 273.101562 234.691406 234.703125 273.089844 187.5 273.089844 Z M 187.5 108.910156 C 144.175781 108.910156 108.921875 144.164062 108.921875 187.488281 C 108.921875 230.8125 144.175781 266.0625 187.5 266.0625 C 230.824219 266.0625 266.074219 230.8125 266.074219 187.488281 C 266.074219 144.164062 230.824219 108.910156 187.5 108.910156 Z M 187.5 108.910156 " fill-opacity="1" fill-rule="nonzero"/><g clip-path="url(#c49526db07)"><path fill="#000000" d="M 188.390625 274.183594 C 179.679688 274.183594 171.609375 272.894531 166.242188 270.648438 L 165.269531 270.246094 L 170.960938 224.570312 C 170.015625 221.75 169.871094 218.890625 169.875 216.640625 C 168.671875 214.859375 167.425781 213.058594 166.21875 211.316406 L 165.640625 210.476562 C 161.789062 204.921875 157.804688 199.179688 154.3125 193.128906 C 152.132812 189.34375 151.148438 184.300781 153.421875 180.882812 L 146.101562 180.882812 C 145.25 192.652344 142.410156 203.449219 138.078125 211.355469 C 133.527344 219.660156 127.632812 224.238281 121.480469 224.238281 C 117.460938 224.238281 113.480469 222.257812 109.953125 218.511719 C 104.34375 217.441406 99.207031 212.265625 95.464844 203.894531 C 92.84375 198.011719 91.027344 190.828125 90.199219 183.058594 L 84.6875 183.058594 C 81.179688 183.0625 79.933594 177.769531 79.933594 173.242188 C 79.933594 170.882812 80.261719 168.65625 80.855469 166.984375 C 81.898438 164.042969 83.515625 163.425781 84.6875 163.425781 L 90.191406 163.425781 C 91.023438 155.652344 92.839844 148.464844 95.460938 142.589844 C 99.203125 134.21875 104.339844 129.042969 109.949219 127.972656 C 113.476562 124.230469 117.453125 122.25 121.476562 122.25 C 127.632812 122.25 133.527344 126.824219 138.074219 135.132812 C 142.40625 143.042969 145.246094 153.835938 146.097656 165.605469 L 161.253906 165.605469 C 161.121094 162.445312 161.003906 158.863281 161.003906 155.238281 C 161.003906 154.90625 160.996094 154.570312 160.992188 154.234375 L 160.992188 154.183594 C 160.964844 152.324219 160.933594 150.21875 161.898438 148.328125 C 164.066406 144.054688 168.378906 141.082031 173.15625 140.5625 L 173.207031 140.554688 L 173.316406 140.554688 C 175.171875 140.585938 177.296875 140.695312 179.261719 141.617188 C 180.472656 142.195312 181.460938 142.929688 182.179688 143.765625 C 183.9375 142.9375 185.898438 142.507812 187.902344 142.507812 C 190.210938 142.507812 192.421875 143.082031 194.296875 144.171875 C 196.808594 145.628906 197.933594 148.402344 198.226562 150.820312 C 199.605469 150.101562 201.136719 149.699219 202.660156 149.660156 C 202.746094 149.65625 202.84375 149.65625 202.9375 149.65625 C 205.765625 149.65625 208.585938 150.921875 210.484375 153.042969 C 212.039062 154.777344 211.976562 157.171875 211.929688 159.097656 L 211.925781 159.25 C 211.917969 159.589844 211.894531 159.9375 211.863281 160.289062 C 212.460938 160.15625 213.066406 160.089844 213.675781 160.089844 C 213.871094 160.089844 214.066406 160.09375 214.257812 160.109375 C 216.847656 160.289062 219.351562 161.75 220.792969 163.921875 C 221.140625 164.445312 221.441406 164.996094 221.703125 165.609375 L 228.871094 165.609375 C 229.722656 153.839844 232.5625 143.042969 236.894531 135.136719 C 241.445312 126.824219 247.339844 122.25 253.496094 122.25 C 257.515625 122.25 261.496094 124.230469 265.023438 127.976562 C 270.632812 129.046875 275.769531 134.222656 279.511719 142.59375 C 282.132812 148.464844 283.949219 155.65625 284.777344 163.429688 L 290.285156 163.429688 C 293.789062 163.429688 295.039062 168.722656 295.039062 173.25 C 295.039062 177.777344 293.789062 183.066406 290.285156 183.066406 L 284.777344 183.066406 C 283.949219 190.835938 282.132812 198.023438 279.511719 203.898438 C 275.769531 212.269531 270.632812 217.445312 265.023438 218.515625 C 261.496094 222.265625 257.515625 224.242188 253.496094 224.242188 C 247.339844 224.242188 241.445312 219.667969 236.898438 211.363281 C 232.566406 203.449219 229.726562 192.65625 228.875 180.890625 L 221.910156 180.890625 C 221.886719 181.066406 221.863281 181.242188 221.839844 181.414062 C 221.691406 182.644531 221.285156 183.886719 220.589844 185.203125 C 221.074219 194.128906 219.238281 203.410156 215.277344 212.050781 C 214.496094 213.757812 213.945312 215.433594 213.363281 217.214844 L 213.3125 217.363281 C 212.96875 218.398438 212.988281 219.609375 213.011719 220.886719 L 213.011719 220.941406 C 213.039062 222.527344 213.070312 224.140625 212.472656 225.710938 L 213.507812 269.132812 L 212.789062 269.546875 C 207.761719 272.410156 198.414062 274.183594 188.390625 274.183594 Z M 188.390625 274.183594 " fill-opacity="1" fill-rule="nonzero"/></g><path fill="#ffebd4" d="M 188.390625 272.792969 C 179.859375 272.792969 171.984375 271.542969 166.78125 269.363281 L 172.382812 224.421875 L 172.34375 224.320312 C 171.363281 221.511719 171.253906 218.589844 171.269531 216.359375 L 171.269531 216.21875 L 171.191406 216.097656 C 169.929688 214.234375 168.628906 212.347656 167.367188 210.523438 L 166.789062 209.683594 C 162.953125 204.152344 158.988281 198.429688 155.519531 192.433594 C 153.378906 188.714844 152.464844 183.683594 155.242188 180.84375 L 155.417969 180.652344 C 155.535156 180.527344 155.65625 180.402344 155.777344 180.28125 L 156.539062 179.496094 L 144.800781 179.496094 L 144.773438 179.929688 C 143.207031 204.398438 133.1875 222.847656 121.476562 222.847656 C 117.71875 222.847656 114.113281 220.996094 110.757812 217.339844 L 110.652344 217.21875 L 110.496094 217.191406 C 105.238281 216.335938 100.347656 211.414062 96.734375 203.324219 C 94.078125 197.371094 92.269531 190.027344 91.496094 182.085938 L 91.453125 181.667969 L 84.6875 181.667969 C 82.375 181.667969 81.324219 177.296875 81.324219 173.238281 C 81.324219 171.03125 81.621094 168.972656 82.164062 167.441406 C 82.773438 165.71875 83.644531 164.8125 84.6875 164.8125 L 91.453125 164.8125 L 91.496094 164.394531 C 92.269531 156.449219 94.078125 149.101562 96.734375 143.15625 C 100.347656 135.066406 105.238281 130.140625 110.496094 129.289062 L 110.652344 129.261719 L 110.757812 129.140625 C 114.113281 125.492188 117.71875 123.640625 121.476562 123.640625 C 133.1875 123.640625 143.207031 142.089844 144.773438 166.558594 L 144.800781 166.992188 L 162.703125 166.992188 L 162.683594 166.511719 C 162.546875 163.140625 162.390625 159.210938 162.398438 155.238281 C 162.398438 154.894531 162.390625 154.558594 162.386719 154.214844 L 162.386719 154.164062 C 162.359375 152.378906 162.332031 150.542969 163.136719 148.957031 C 165.09375 145.105469 168.980469 142.421875 173.28125 141.945312 L 173.316406 141.945312 C 175.003906 141.972656 176.953125 142.070312 178.671875 142.878906 C 179.957031 143.488281 180.9375 144.296875 181.519531 145.199219 L 181.753906 145.566406 L 182.132812 145.355469 C 183.863281 144.402344 185.855469 143.898438 187.90625 143.898438 C 189.96875 143.898438 191.9375 144.40625 193.605469 145.375 C 196.144531 146.851562 196.980469 150.046875 196.914062 152.335938 L 196.914062 153.367188 L 197.65625 152.816406 C 199.125 151.722656 200.917969 151.097656 202.703125 151.054688 C 202.785156 151.054688 202.863281 151.050781 202.945312 151.050781 C 205.382812 151.050781 207.816406 152.144531 209.457031 153.980469 C 210.644531 155.304688 210.59375 157.304688 210.550781 159.070312 L 210.546875 159.199219 C 210.523438 159.945312 210.445312 160.710938 210.304688 161.539062 L 210.164062 162.367188 L 210.9375 162.046875 C 211.832031 161.675781 212.753906 161.488281 213.6875 161.488281 C 213.847656 161.488281 214.007812 161.496094 214.167969 161.507812 C 216.339844 161.660156 218.441406 162.882812 219.648438 164.703125 C 220.046875 165.300781 220.378906 165.960938 220.652344 166.707031 L 220.761719 167.007812 L 230.179688 167.007812 L 230.210938 166.570312 C 231.765625 142.089844 241.78125 123.640625 253.496094 123.640625 C 257.253906 123.640625 260.859375 125.492188 264.210938 129.148438 L 264.320312 129.269531 L 264.476562 129.296875 C 269.734375 130.148438 274.625 135.074219 278.238281 143.164062 C 280.890625 149.109375 282.703125 156.453125 283.476562 164.402344 L 283.519531 164.820312 L 290.285156 164.820312 C 292.59375 164.820312 293.648438 169.191406 293.648438 173.25 C 293.648438 177.308594 292.59375 181.675781 290.285156 181.675781 L 283.519531 181.675781 L 283.476562 182.09375 C 282.703125 190.035156 280.890625 197.378906 278.238281 203.332031 C 274.625 211.421875 269.734375 216.347656 264.476562 217.199219 L 264.320312 217.226562 L 264.210938 217.347656 C 260.859375 221.003906 257.253906 222.855469 253.496094 222.855469 C 241.78125 222.855469 231.765625 204.40625 230.199219 179.9375 L 230.171875 179.503906 L 220.703125 179.503906 L 220.644531 179.902344 C 220.582031 180.355469 220.519531 180.804688 220.464844 181.246094 C 220.332031 182.378906 219.933594 183.535156 219.25 184.78125 L 219.1875 184.898438 L 219.195312 185.03125 C 219.714844 193.816406 217.925781 202.960938 214.019531 211.480469 C 213.210938 213.261719 212.644531 214.976562 212.046875 216.789062 L 212 216.929688 C 211.582031 218.199219 211.605469 219.519531 211.628906 220.921875 L 211.628906 220.976562 C 211.65625 222.480469 211.683594 224.015625 211.125 225.378906 L 211.085938 225.46875 L 212.105469 268.355469 L 212.101562 268.355469 C 207.269531 271.089844 198.1875 272.792969 188.390625 272.792969 Z M 188.390625 272.792969 " fill-opacity="1" fill-rule="nonzero"/><path fill="#000000" d="M 290.285156 164.351562 L 283.941406 164.351562 C 283.167969 156.402344 281.359375 149.011719 278.664062 142.96875 C 274.984375 134.722656 269.976562 129.714844 264.554688 128.835938 C 261.242188 125.226562 257.480469 123.175781 253.496094 123.175781 C 241.496094 123.175781 231.320312 141.785156 229.738281 166.53125 L 221.078125 166.53125 C 220.789062 165.761719 220.445312 165.070312 220.023438 164.4375 C 218.738281 162.5 216.5 161.199219 214.191406 161.035156 C 213.019531 160.953125 211.851562 161.15625 210.753906 161.609375 C 210.898438 160.75 210.976562 159.960938 211 159.21875 L 211.003906 159.113281 C 211.054688 157.25 211.109375 155.136719 209.796875 153.667969 C 208.011719 151.675781 205.367188 150.519531 202.683594 150.59375 C 200.789062 150.636719 198.90625 151.308594 197.375 152.449219 L 197.375 152.351562 C 197.433594 149.933594 196.542969 146.558594 193.832031 144.980469 C 190.289062 142.929688 185.5625 142.9375 181.90625 144.953125 C 181.285156 143.980469 180.226562 143.109375 178.867188 142.460938 C 177.0625 141.613281 175.054688 141.511719 173.316406 141.488281 L 173.289062 141.488281 L 173.261719 141.492188 C 168.796875 141.980469 164.761719 144.757812 162.730469 148.753906 C 161.878906 150.4375 161.90625 152.339844 161.929688 154.179688 C 161.933594 154.535156 161.9375 154.890625 161.9375 155.25 C 161.933594 159.191406 162.082031 163.117188 162.226562 166.539062 L 145.238281 166.539062 C 143.652344 141.785156 133.476562 123.175781 121.476562 123.175781 C 117.488281 123.175781 113.726562 125.226562 110.417969 128.835938 C 104.996094 129.714844 99.992188 134.726562 96.308594 142.96875 C 93.613281 149.011719 91.804688 156.402344 91.03125 164.351562 L 84.6875 164.351562 C 83.8125 164.351562 82.589844 164.863281 81.726562 167.296875 C 81.167969 168.871094 80.859375 170.984375 80.859375 173.242188 C 80.859375 177.667969 82.042969 182.136719 84.6875 182.136719 L 91.03125 182.136719 C 91.804688 190.085938 93.613281 197.476562 96.308594 203.519531 C 99.988281 211.765625 104.996094 216.773438 110.417969 217.652344 C 113.730469 221.261719 117.492188 223.3125 121.476562 223.3125 C 133.476562 223.3125 143.652344 204.703125 145.234375 179.957031 L 155.4375 179.957031 C 155.261719 180.144531 155.085938 180.332031 154.90625 180.519531 C 151.953125 183.535156 152.886719 188.792969 155.117188 192.667969 C 158.5625 198.632812 162.550781 204.390625 166.398438 209.953125 C 167.851562 212.046875 169.351562 214.210938 170.800781 216.359375 C 170.789062 218.667969 170.914062 221.636719 171.90625 224.476562 L 166.28125 269.660156 L 166.605469 269.796875 C 171.851562 271.996094 179.792969 273.261719 188.394531 273.261719 C 198.265625 273.261719 207.4375 271.535156 212.328125 268.75 L 212.570312 268.609375 L 211.542969 225.546875 C 212.144531 224.089844 212.117188 222.5 212.089844 220.960938 C 212.0625 219.582031 212.039062 218.277344 212.4375 217.070312 L 212.480469 216.929688 C 213.074219 215.128906 213.636719 213.421875 214.4375 211.664062 C 218.375 203.074219 220.179688 193.851562 219.65625 184.988281 C 220.363281 183.695312 220.78125 182.488281 220.929688 181.292969 C 220.984375 180.855469 221.042969 180.40625 221.105469 179.957031 L 229.742188 179.957031 C 231.324219 204.703125 241.5 223.3125 253.5 223.3125 C 257.488281 223.3125 261.25 221.261719 264.558594 217.652344 C 269.980469 216.773438 274.984375 211.761719 278.667969 203.519531 C 281.363281 197.476562 283.171875 190.085938 283.945312 182.136719 L 290.285156 182.136719 C 292.929688 182.136719 294.109375 177.667969 294.109375 173.242188 C 294.109375 168.820312 292.929688 164.351562 290.285156 164.351562 Z M 290.421875 179.023438 C 288.445312 179.023438 286.46875 179.023438 286.46875 179.023438 C 287.171875 175.203125 287.171875 171.289062 286.46875 167.472656 C 286.46875 167.472656 288.449219 167.472656 290.421875 167.472656 C 291.78125 167.472656 292.351562 167.953125 292.574219 168.253906 C 292.957031 169.601562 293.183594 171.320312 293.183594 173.25 C 293.183594 175.105469 292.964844 176.847656 292.574219 178.242188 C 292.351562 178.539062 291.78125 179.023438 290.421875 179.023438 Z M 273.414062 135.859375 C 271.019531 133.429688 267.832031 132.792969 267.566406 132.742188 C 266.925781 131.765625 266.261719 130.855469 265.574219 130.015625 C 268.414062 130.828125 271.066406 132.859375 273.414062 135.859375 Z M 261.125 126.875 C 258.347656 125.429688 253.792969 124.539062 246.546875 126.398438 C 248.746094 124.90625 251.082031 124.105469 253.496094 124.105469 C 256.167969 124.105469 258.734375 125.082031 261.125 126.875 Z M 250.992188 173.242188 C 250.992188 175.117188 250.855469 176.777344 250.632812 178.210938 C 249.945312 181.003906 248.5 182.210938 248.5 182.210938 C 249.125 179.535156 248.671875 176.550781 248.671875 176.550781 C 248.121094 180.894531 245.660156 183.316406 244.964844 183.921875 C 246.421875 181.972656 247.195312 177.511719 247.195312 173.242188 C 247.195312 170.292969 246.824219 167.25 246.121094 165.007812 L 247.152344 165.007812 C 247.152344 165.007812 248.195312 166.210938 249.132812 170.449219 C 249.132812 170.449219 249.269531 166.738281 248.683594 165.007812 C 248.683594 165.007812 250.550781 167.886719 250.984375 172.195312 C 250.984375 172.539062 250.992188 172.886719 250.992188 173.242188 Z M 246.269531 173.242188 C 246.269531 179.921875 244.550781 184.015625 243.3125 184.015625 C 242.636719 184.015625 241.695312 182.757812 241.046875 179.957031 L 242.082031 179.957031 C 243.640625 179.957031 244.453125 176.578125 244.453125 173.242188 C 244.453125 169.90625 243.640625 166.53125 242.082031 166.53125 L 241.046875 166.53125 C 241.695312 163.730469 242.636719 162.472656 243.3125 162.472656 C 244.550781 162.472656 246.269531 166.566406 246.269531 173.242188 Z M 243.3125 184.941406 L 248.039062 184.941406 C 250.558594 184.941406 251.921875 178.914062 251.921875 173.242188 C 251.921875 167.574219 250.558594 161.546875 248.039062 161.546875 L 243.3125 161.546875 C 241.507812 161.546875 240.542969 164.515625 240.097656 166.53125 L 239.03125 166.53125 C 239.984375 149.492188 244.515625 136.707031 249.625 136.707031 C 252.109375 136.707031 254.566406 139.789062 256.550781 145.417969 C 258.550781 151.394531 259.832031 158.9375 260.261719 167.234375 C 260.277344 167.558594 260.292969 167.886719 260.300781 168.222656 C 260.316406 168.457031 260.320312 168.683594 260.328125 168.921875 L 260.328125 168.96875 L 260.335938 169 C 260.347656 169.398438 260.363281 169.800781 260.371094 170.210938 C 260.378906 170.433594 260.386719 170.648438 260.386719 170.875 C 260.390625 171.03125 260.394531 171.183594 260.394531 171.347656 C 260.410156 171.972656 260.410156 172.605469 260.410156 173.242188 C 260.410156 173.882812 260.402344 174.507812 260.394531 175.148438 C 260.394531 175.304688 260.390625 175.457031 260.386719 175.621094 C 260.378906 175.84375 260.375 176.0625 260.371094 176.289062 C 260.363281 176.6875 260.351562 177.089844 260.339844 177.507812 L 260.335938 177.570312 C 260.324219 177.808594 260.320312 178.035156 260.304688 178.28125 C 260.292969 178.605469 260.277344 178.933594 260.265625 179.257812 C 259.839844 187.554688 258.554688 195.105469 256.539062 201.113281 C 254.566406 206.707031 252.113281 209.785156 249.625 209.785156 C 244.511719 209.785156 239.984375 197 239.03125 179.960938 L 240.097656 179.960938 C 240.546875 181.972656 241.507812 184.941406 243.3125 184.941406 Z M 257.429688 201.367188 C 257.429688 201.363281 257.429688 201.363281 257.433594 201.359375 C 259.433594 195.644531 260.769531 187.8125 261.191406 179.300781 C 261.210938 178.972656 261.222656 178.636719 261.234375 178.316406 C 261.246094 178.082031 261.25 177.855469 261.261719 177.617188 C 261.265625 177.582031 261.265625 177.546875 261.265625 177.523438 C 261.28125 177.117188 261.292969 176.710938 261.300781 176.3125 C 261.3125 176.085938 261.316406 175.855469 261.320312 175.636719 C 261.324219 175.476562 261.332031 175.308594 261.332031 175.15625 C 261.34375 174.523438 261.34375 173.886719 261.34375 173.25 C 261.34375 172.609375 261.339844 171.96875 261.332031 171.347656 C 261.332031 171.1875 261.324219 171.019531 261.320312 170.863281 C 261.316406 170.636719 261.3125 170.410156 261.308594 170.191406 C 261.296875 169.78125 261.289062 169.375 261.269531 168.984375 C 261.269531 168.949219 261.269531 168.910156 261.265625 168.875 C 261.257812 168.636719 261.25 168.410156 261.238281 168.183594 C 261.222656 167.855469 261.210938 167.523438 261.195312 167.191406 C 261.195312 167.183594 261.195312 167.175781 261.195312 167.164062 C 260.773438 158.660156 259.441406 150.835938 257.429688 145.09375 C 257.429688 145.09375 257.429688 145.089844 257.429688 145.089844 C 257.429688 145.089844 257.429688 145.089844 257.429688 145.082031 C 257.429688 145.082031 257.429688 145.082031 257.429688 145.078125 C 257.429688 145.078125 257.429688 145.078125 257.429688 145.074219 C 254.847656 137.390625 251.351562 133.160156 247.578125 133.160156 C 241.359375 133.160156 236.074219 144.898438 234.375 161.726562 C 234.050781 163.066406 233.164062 165.117188 230.773438 165.210938 C 231.695312 153.3125 234.605469 142.949219 238.71875 135.597656 C 239.964844 133.707031 242.96875 129.914062 246.957031 129.914062 C 252.261719 129.914062 258.820312 134.769531 261.9375 149.128906 C 265.007812 163.257812 268.433594 205.746094 250.011719 212.714844 C 252.824219 211.292969 255.40625 207.398438 257.429688 201.367188 Z M 218.25 172.492188 L 218.175781 172.578125 L 218.042969 173.136719 C 217.726562 174.460938 217.378906 175.863281 216.921875 177.1875 C 216.738281 177.714844 216.554688 178.1875 216.359375 178.625 C 216.261719 178.851562 216.15625 179.074219 216.050781 179.289062 C 215.164062 181.070312 214.054688 182.441406 212.742188 183.371094 C 211.554688 184.21875 209.882812 184.503906 208.378906 184.109375 C 206.988281 183.742188 205.734375 182.800781 204.984375 181.570312 C 205.011719 181.523438 205.042969 181.480469 205.0625 181.4375 C 205.101562 181.363281 205.136719 181.289062 205.179688 181.214844 C 205.988281 180.144531 208.421875 176.671875 209.75 172.386719 C 211.347656 167.207031 213.324219 164.117188 216.652344 164.292969 C 218.050781 164.367188 218.945312 164.925781 219.515625 165.542969 C 219.632812 166.054688 219.710938 166.554688 219.746094 167.027344 C 219.796875 167.746094 219.769531 168.433594 219.667969 169.082031 C 219.535156 169.960938 219.265625 170.789062 218.871094 171.539062 C 218.542969 172.15625 218.253906 172.488281 218.25 172.492188 Z M 193.058594 177.015625 C 192.820312 177.457031 192.550781 177.863281 192.246094 178.226562 C 191.714844 178.863281 191.105469 179.355469 190.429688 179.683594 C 189.238281 180.261719 187.75 180.371094 186.234375 179.984375 C 184.984375 179.664062 183.726562 179.039062 182.289062 178.007812 C 181.582031 177.503906 181.132812 176.726562 180.894531 175.605469 C 181.105469 175.351562 181.964844 174.503906 183.832031 174.949219 C 185.785156 175.417969 192.378906 175.746094 193.058594 177.015625 Z M 210.078125 159.082031 L 210.074219 159.1875 C 210.046875 160.128906 209.914062 161.15625 209.679688 162.324219 L 209.667969 162.375 C 209.554688 162.980469 209.410156 163.597656 209.269531 164.191406 L 209.203125 164.488281 C 208.96875 165.480469 208.753906 166.480469 208.53125 167.484375 C 207.519531 172.09375 206.476562 176.859375 204.25 180.996094 C 203.117188 183.085938 200.304688 183.25 199.15625 183.222656 C 197.164062 183.183594 195.191406 182.152344 194.015625 180.542969 C 193.609375 179.988281 193.308594 179.339844 193.109375 178.617188 C 193.648438 177.933594 194.101562 177.125 194.425781 176.265625 C 194.902344 175.003906 195.136719 173.722656 195.289062 172.605469 C 195.425781 172.539062 195.5625 172.476562 195.699219 172.40625 C 197.210938 171.886719 201.910156 170.003906 202.867188 166.480469 C 203.890625 162.703125 201.960938 161.125 201.546875 160.832031 C 201.375 160.488281 201.160156 160.191406 200.890625 159.945312 C 200.921875 158.789062 201.21875 156.054688 203.164062 154.566406 C 204.917969 153.226562 206.800781 153.070312 207.792969 153.101562 C 208.269531 153.445312 208.710938 153.839844 209.105469 154.28125 C 210.171875 155.472656 210.125 157.304688 210.078125 159.082031 Z M 198.164062 161.214844 C 197.355469 162.054688 194.753906 162.628906 191.53125 161.484375 C 188.554688 160.429688 187.558594 159.8125 187.941406 158.136719 C 191.375 158.644531 194.851562 159.207031 198.28125 159.964844 C 198.472656 160.144531 198.769531 160.585938 198.164062 161.214844 Z M 196.445312 152.320312 L 196.410156 154.113281 C 196.382812 155.652344 196.355469 157.109375 196.242188 158.589844 C 192.71875 157.890625 189.167969 157.371094 185.699219 156.871094 L 185.699219 149.625 C 185.699219 149.625 185.386719 144.210938 193.023438 145.589844 C 193.136719 145.648438 193.253906 145.703125 193.367188 145.769531 C 195.726562 147.140625 196.503906 150.152344 196.445312 152.320312 Z M 163.550781 149.160156 C 165.4375 145.449219 169.179688 142.863281 173.328125 142.40625 C 174.960938 142.433594 176.839844 142.527344 178.464844 143.289062 C 179.832031 143.9375 180.84375 144.820312 181.308594 145.777344 C 181.484375 146.128906 181.582031 146.484375 181.617188 146.859375 C 181.902344 149.984375 182.007812 153.164062 181.941406 156.320312 C 180.101562 156.046875 178.246094 155.753906 176.414062 155.425781 C 173.488281 154.90625 169.625 156.207031 168.480469 159.222656 C 168.28125 159.753906 168.074219 160.28125 167.855469 160.804688 L 167.179688 153.523438 L 167.113281 153.53125 L 167.113281 153.523438 C 167.113281 153.523438 166.621094 151.648438 164.34375 151.46875 C 164.34375 151.46875 165.667969 153.746094 165.277344 156.164062 C 164.949219 158.210938 163.496094 160.085938 162.957031 161.746094 C 162.894531 159.632812 162.847656 157.433594 162.851562 155.230469 C 162.851562 154.867188 162.847656 154.507812 162.839844 154.144531 C 162.828125 152.425781 162.800781 150.644531 163.550781 149.160156 Z M 123.996094 172.203125 C 124.425781 167.894531 126.300781 165.011719 126.300781 165.011719 C 125.710938 166.742188 125.851562 170.453125 125.851562 170.453125 C 126.785156 166.214844 127.828125 165.011719 127.828125 165.011719 L 128.863281 165.011719 C 128.152344 167.253906 127.785156 170.296875 127.785156 173.25 C 127.785156 177.515625 128.558594 181.976562 130.015625 183.929688 C 129.316406 183.320312 126.859375 180.898438 126.308594 176.558594 C 126.308594 176.558594 125.859375 179.539062 126.480469 182.214844 C 126.480469 182.214844 125.035156 181.007812 124.347656 178.214844 C 124.125 176.785156 123.988281 175.121094 123.988281 173.25 C 123.976562 172.886719 123.988281 172.539062 123.996094 172.203125 Z M 128.703125 173.242188 C 128.703125 166.566406 130.421875 162.472656 131.660156 162.472656 C 132.335938 162.472656 133.277344 163.730469 133.925781 166.53125 L 132.886719 166.53125 C 131.335938 166.53125 130.519531 169.90625 130.519531 173.242188 C 130.519531 176.578125 131.335938 179.957031 132.886719 179.957031 L 133.925781 179.957031 C 133.277344 182.757812 132.335938 184.015625 131.660156 184.015625 C 130.421875 184.015625 128.703125 179.921875 128.703125 173.242188 Z M 131.660156 161.546875 L 126.933594 161.546875 C 124.414062 161.546875 123.050781 167.574219 123.050781 173.242188 C 123.050781 178.914062 124.414062 184.941406 126.933594 184.941406 L 131.660156 184.941406 C 133.460938 184.941406 134.429688 181.972656 134.878906 179.957031 L 135.945312 179.957031 C 134.992188 196.992188 130.460938 209.78125 125.351562 209.78125 C 122.867188 209.78125 120.410156 206.699219 118.425781 201.066406 C 116.425781 195.089844 115.144531 187.550781 114.714844 179.25 C 114.703125 178.925781 114.683594 178.601562 114.675781 178.269531 C 114.660156 178.035156 114.65625 177.808594 114.648438 177.570312 L 114.648438 177.523438 L 114.640625 177.492188 C 114.628906 177.09375 114.613281 176.691406 114.605469 176.285156 C 114.597656 176.074219 114.597656 175.867188 114.589844 175.617188 C 114.585938 175.464844 114.582031 175.308594 114.582031 175.144531 C 114.566406 174.519531 114.566406 173.882812 114.566406 173.25 C 114.566406 172.613281 114.574219 171.984375 114.582031 171.347656 C 114.582031 171.191406 114.585938 171.039062 114.589844 170.84375 C 114.597656 170.636719 114.601562 170.425781 114.605469 170.210938 C 114.613281 169.8125 114.625 169.40625 114.636719 168.992188 L 114.640625 168.929688 C 114.652344 168.695312 114.65625 168.46875 114.671875 168.222656 C 114.683594 167.898438 114.699219 167.574219 114.710938 167.242188 C 114.710938 167.214844 114.714844 167.1875 114.714844 167.15625 C 115.148438 158.890625 116.429688 151.378906 118.4375 145.390625 C 120.402344 139.789062 122.855469 136.707031 125.339844 136.707031 C 130.457031 136.707031 134.980469 149.492188 135.9375 166.53125 L 134.871094 166.53125 C 134.425781 164.511719 133.460938 161.546875 131.660156 161.546875 Z M 136.269531 135.605469 C 140.378906 142.949219 143.289062 153.3125 144.210938 165.210938 C 141.820312 165.117188 140.9375 163.066406 140.613281 161.726562 C 138.910156 144.898438 133.621094 133.160156 127.40625 133.160156 C 123.636719 133.160156 120.132812 137.398438 117.542969 145.121094 C 117.542969 145.125 117.542969 145.125 117.539062 145.128906 C 115.535156 150.84375 114.203125 158.675781 113.78125 167.199219 C 113.765625 167.523438 113.746094 167.855469 113.738281 168.175781 C 113.726562 168.410156 113.71875 168.636719 113.710938 168.871094 C 113.707031 168.90625 113.707031 168.941406 113.707031 168.964844 C 113.691406 169.371094 113.679688 169.777344 113.667969 170.175781 C 113.660156 170.390625 113.660156 170.601562 113.65625 170.851562 C 113.652344 171.011719 113.644531 171.175781 113.644531 171.332031 C 113.632812 171.964844 113.632812 172.601562 113.632812 173.238281 C 113.632812 173.878906 113.636719 174.519531 113.644531 175.144531 C 113.644531 175.304688 113.652344 175.472656 113.65625 175.617188 L 113.65625 175.664062 C 113.660156 175.875 113.664062 176.089844 113.667969 176.296875 C 113.679688 176.707031 113.6875 177.113281 113.707031 177.503906 C 113.707031 177.539062 113.707031 177.574219 113.710938 177.613281 C 113.71875 177.847656 113.726562 178.078125 113.738281 178.304688 C 113.753906 178.628906 113.765625 178.960938 113.785156 179.296875 C 114.207031 187.804688 115.542969 195.640625 117.550781 201.390625 C 117.550781 201.394531 117.550781 201.394531 117.554688 201.398438 C 119.570312 207.398438 122.148438 211.289062 124.972656 212.707031 C 106.558594 205.738281 109.980469 163.253906 113.054688 149.128906 C 116.175781 134.773438 122.726562 129.914062 128.03125 129.914062 C 132.015625 129.914062 135.023438 133.714844 136.269531 135.605469 Z M 128.425781 126.402344 C 121.179688 124.539062 116.628906 125.433594 113.84375 126.875 C 116.234375 125.082031 118.804688 124.105469 121.476562 124.105469 C 123.890625 124.105469 126.226562 124.910156 128.425781 126.402344 Z M 109.398438 130.015625 C 108.710938 130.855469 108.050781 131.765625 107.40625 132.742188 C 107.140625 132.792969 103.953125 133.429688 101.558594 135.859375 C 103.902344 132.859375 106.558594 130.828125 109.398438 130.015625 Z M 82.394531 168.25 C 82.621094 167.949219 83.191406 167.464844 84.542969 167.464844 C 86.523438 167.464844 88.496094 167.464844 88.496094 167.464844 C 87.796875 171.285156 87.796875 175.199219 88.496094 179.015625 C 88.496094 179.015625 86.519531 179.015625 84.542969 179.015625 C 83.1875 179.015625 82.617188 178.535156 82.394531 178.234375 C 82.011719 176.890625 81.789062 175.167969 81.789062 173.242188 C 81.789062 171.316406 82.011719 169.597656 82.394531 168.25 Z M 91.527344 173.242188 C 91.527344 162.648438 93.351562 152.847656 96.382812 145.230469 C 96.253906 145.890625 96.035156 147.265625 96.144531 148.761719 C 96.144531 148.761719 97.03125 145.378906 99.679688 143.089844 C 99.679688 143.089844 99.164062 145.273438 99.316406 147.511719 C 99.316406 147.511719 100.589844 144.273438 102.765625 141.96875 C 99.472656 150.546875 97.5 161.421875 97.5 173.238281 C 97.5 177.664062 97.777344 181.949219 98.296875 186.042969 C 97.140625 184.226562 96.039062 181.269531 96.039062 181.269531 C 95.730469 183.996094 96.199219 186.730469 96.199219 186.730469 C 95.105469 185.953125 93.3125 182.210938 93.3125 182.210938 C 95.820312 207.164062 107.28125 214.082031 107.851562 214.410156 C 108.351562 215.136719 108.863281 215.828125 109.394531 216.472656 C 99.277344 213.589844 91.527344 195.105469 91.527344 173.242188 Z M 121.476562 222.382812 C 108.765625 222.382812 98.429688 200.339844 98.429688 173.242188 C 98.429688 154.367188 103.449219 137.949219 110.789062 129.71875 C 113.632812 127.320312 119.097656 127.277344 120.066406 128.527344 C 121.15625 129.933594 119.683594 131.257812 119.683594 131.257812 C 112.582031 139.21875 109.929688 148.113281 109.929688 148.113281 C 105.171875 162.859375 107.539062 185.746094 107.539062 185.746094 C 106.707031 184.550781 105.355469 180.492188 105.355469 180.492188 C 105.199219 182.261719 105.289062 185.828125 105.289062 185.828125 C 104.042969 183.488281 102.960938 180.699219 102.960938 180.699219 C 102.703125 183.457031 102.753906 185.953125 102.753906 185.953125 C 101.816406 184.601562 100.484375 181.273438 100.484375 181.273438 C 101.800781 202.140625 109.257812 211.804688 109.257812 211.804688 C 108.53125 209.882812 108.375 207.4375 108.375 207.4375 C 117.738281 227.253906 129.363281 216.578125 129.363281 216.578125 C 125.421875 217.648438 122.792969 215.683594 122.792969 215.683594 C 138.261719 216.734375 139.660156 196.453125 139.660156 196.453125 C 138.707031 199.710938 136.644531 203.621094 135.8125 205.128906 C 138.152344 199.9375 139.898438 192.566406 140.703125 183.90625 C 141 182.84375 141.84375 181.355469 144.222656 181.289062 C 142.386719 204.839844 132.761719 222.382812 121.476562 222.382812 Z M 132.886719 179.03125 C 132.398438 179.03125 131.445312 176.988281 131.445312 173.242188 C 131.445312 169.5 132.398438 167.457031 132.886719 167.457031 L 164.644531 167.457031 C 164.324219 168.027344 163.996094 168.59375 163.65625 169.152344 L 136.234375 169.152344 C 135.703125 169.152344 135.25 170.226562 135.070312 171.753906 L 162.003906 171.753906 C 161.664062 172.253906 161.320312 172.753906 160.96875 173.242188 L 134.980469 173.242188 C 134.980469 175.503906 135.546875 177.335938 136.234375 177.335938 L 157.78125 177.335938 C 157.296875 177.910156 156.804688 178.476562 156.296875 179.03125 Z M 220.003906 181.179688 C 219.867188 182.292969 219.464844 183.429688 218.773438 184.65625 L 218.703125 184.777344 L 218.710938 184.839844 C 218.324219 185.175781 216.078125 187.148438 215.558594 188.476562 C 215.058594 189.753906 218.34375 190.734375 218.386719 194.613281 C 217.796875 199.277344 216.582031 203.9375 214.785156 208.464844 C 213.84375 209.828125 209.164062 215.835938 198.128906 218.597656 C 198.128906 218.597656 203.042969 220.160156 207.335938 219.457031 C 207.335938 219.457031 208.257812 222.421875 206.546875 224.214844 C 204.835938 226.007812 194.851562 232.175781 194.851562 232.175781 L 194.226562 251.210938 L 200.777344 237.246094 C 200.777344 237.246094 201.414062 252.054688 201.167969 262.136719 C 201.167969 262.136719 195.519531 271.871094 184.792969 272.261719 C 177.898438 271.96875 171.667969 270.851562 167.277344 269.078125 L 170.828125 240.558594 L 174.957031 224.21875 C 179.636719 224.765625 182.679688 223.125 182.679688 223.125 C 176.195312 221.660156 172.445312 217.125 171.722656 216.179688 L 171.722656 216.082031 L 171.644531 215.960938 C 170.167969 213.769531 168.636719 211.566406 167.15625 209.429688 C 163.308594 203.878906 159.335938 198.144531 155.910156 192.207031 C 153.917969 188.757812 152.960938 183.828125 155.558594 181.171875 C 161.550781 175.042969 166.320312 167.570312 169.347656 159.5625 C 169.777344 158.421875 170.722656 157.566406 171.863281 157.003906 L 171.941406 157.203125 C 172.023438 157.398438 172.109375 157.589844 172.195312 157.777344 C 172.371094 158.152344 172.558594 158.519531 172.742188 158.882812 C 173.117188 159.609375 173.503906 160.316406 173.898438 161.027344 C 173.71875 160.234375 173.550781 159.445312 173.402344 158.652344 C 173.328125 158.261719 173.257812 157.863281 173.195312 157.472656 C 173.167969 157.277344 173.140625 157.082031 173.117188 156.890625 L 173.089844 156.605469 L 173.085938 156.542969 C 173.449219 156.4375 173.8125 156.363281 174.183594 156.320312 C 174.175781 156.671875 174.183594 157.007812 174.199219 157.363281 C 174.222656 157.902344 174.273438 158.441406 174.332031 158.972656 C 174.460938 160.039062 174.652344 161.089844 174.898438 162.121094 C 174.882812 161.058594 174.925781 160.007812 175.027344 158.964844 C 175.082031 158.445312 175.148438 157.929688 175.242188 157.421875 C 175.308594 157.035156 175.394531 156.628906 175.492188 156.269531 C 175.75 156.28125 176.003906 156.304688 176.253906 156.351562 C 179.21875 156.878906 182.222656 157.316406 185.128906 157.738281 C 185.488281 157.789062 185.851562 157.84375 186.210938 157.894531 C 185.859375 158.84375 185.785156 160.675781 189.707031 161.757812 C 194.839844 163.175781 199.628906 162.757812 200.070312 160.503906 C 201.539062 161.464844 201.09375 164.550781 200.972656 165.222656 C 200.660156 167.058594 199.480469 168.847656 197.742188 170.128906 C 193.144531 173.53125 186.234375 174.328125 180.558594 172.117188 L 180.003906 171.902344 L 180 171.9375 C 179.636719 171.59375 177.425781 169.394531 175.429688 165.324219 C 175.429688 165.324219 174.789062 172.929688 178.828125 176.339844 C 178.765625 176.46875 178.703125 176.59375 178.636719 176.71875 C 177.652344 177.96875 173.433594 182.277344 161.703125 182.414062 C 161.703125 182.414062 165.683594 183.894531 169.425781 182.960938 C 169.425781 182.960938 167.863281 184.910156 164.351562 185.847656 C 164.351562 185.847656 168.957031 186.15625 171.375 184.132812 C 171.375 184.132812 170.128906 187.488281 165.914062 190.453125 C 165.914062 190.453125 172.664062 189.015625 177.695312 180.53125 C 180.304688 181.816406 193.175781 188.542969 196.515625 197.785156 C 196.515625 197.785156 196.925781 193.179688 194.371094 187.019531 C 194.371094 187.019531 201.214844 185.058594 208.710938 185.140625 C 209.054688 185.199219 209.40625 185.230469 209.753906 185.230469 C 211.027344 185.230469 212.292969 184.855469 213.277344 184.144531 C 214.644531 183.171875 215.808594 181.769531 216.738281 179.976562 L 220.164062 179.976562 C 220.109375 180.367188 220.046875 180.777344 220.003906 181.179688 Z M 217.191406 179.03125 C 217.195312 179.015625 217.199219 179.007812 217.207031 178.992188 C 217.410156 178.53125 217.605469 178.039062 217.796875 177.484375 C 217.816406 177.433594 217.828125 177.382812 217.847656 177.332031 L 238.738281 177.332031 C 239.425781 177.332031 239.988281 175.5 239.988281 173.238281 L 218.972656 173.238281 L 219.027344 173.007812 C 219.152344 172.851562 219.414062 172.492188 219.695312 171.964844 C 219.734375 171.894531 219.761719 171.820312 219.796875 171.753906 L 239.90625 171.753906 C 239.726562 170.226562 239.273438 169.152344 238.742188 169.152344 L 220.59375 169.152344 C 220.679688 168.609375 220.710938 168.046875 220.695312 167.457031 L 242.09375 167.457031 C 242.585938 167.457031 243.535156 169.5 243.535156 173.242188 C 243.535156 176.988281 242.585938 179.03125 242.09375 179.03125 Z M 253.496094 222.382812 C 242.214844 222.382812 232.589844 204.839844 230.761719 181.28125 C 233.136719 181.351562 233.980469 182.839844 234.277344 183.902344 C 235.082031 192.566406 236.828125 199.929688 239.167969 205.128906 C 238.335938 203.613281 236.273438 199.703125 235.320312 196.453125 C 235.320312 196.453125 236.71875 216.734375 252.1875 215.683594 C 252.1875 215.683594 249.558594 217.648438 245.621094 216.578125 C 245.621094 216.578125 257.242188 227.253906 266.609375 207.4375 C 266.609375 207.4375 266.449219 209.882812 265.722656 211.804688 C 265.722656 211.804688 273.183594 202.140625 274.5 181.273438 C 274.5 181.273438 273.164062 184.605469 272.226562 185.953125 C 272.226562 185.953125 272.277344 183.457031 272.019531 180.699219 C 272.019531 180.699219 270.945312 183.488281 269.695312 185.828125 C 269.695312 185.828125 269.78125 182.253906 269.625 180.492188 C 269.625 180.492188 268.269531 184.550781 267.441406 185.746094 C 267.441406 185.746094 269.808594 162.859375 265.050781 148.113281 C 265.050781 148.113281 262.394531 139.21875 255.296875 131.261719 C 255.296875 131.261719 253.824219 129.9375 254.914062 128.535156 C 255.882812 127.28125 261.34375 127.324219 264.195312 129.722656 C 271.53125 137.953125 276.550781 154.371094 276.550781 173.25 C 276.542969 200.339844 266.203125 222.382812 253.496094 222.382812 Z M 265.574219 216.472656 C 266.101562 215.828125 266.617188 215.132812 267.117188 214.410156 C 267.6875 214.082031 279.148438 207.167969 281.65625 182.210938 C 281.65625 182.210938 279.863281 185.953125 278.769531 186.730469 C 278.769531 186.730469 279.238281 184.003906 278.925781 181.269531 C 278.925781 181.269531 277.824219 184.226562 276.671875 186.042969 C 277.191406 181.953125 277.46875 177.664062 277.46875 173.238281 C 277.46875 161.414062 275.496094 150.542969 272.199219 141.96875 C 274.378906 144.273438 275.652344 147.511719 275.652344 147.511719 C 275.808594 145.273438 275.285156 143.089844 275.285156 143.089844 C 277.941406 145.378906 278.820312 148.761719 278.820312 148.761719 C 278.933594 147.265625 278.714844 145.890625 278.585938 145.230469 C 281.613281 152.847656 283.441406 162.648438 283.441406 173.242188 C 283.445312 195.105469 275.695312 213.589844 265.574219 216.472656 Z M 191.007812 235.863281 C 191.007812 235.863281 189.445312 238.203125 188.824219 241.070312 C 188.203125 243.9375 190.695312 248.035156 190.695312 248.035156 Z M 179.253906 217.34375 C 179.253906 217.34375 188.199219 218.226562 192.726562 218.019531 C 197.253906 217.8125 202.660156 212.507812 202.660156 212.507812 C 195.117188 215.523438 179.253906 217.34375 179.253906 217.34375 Z M 174.871094 144.621094 C 175.632812 144.554688 176.402344 144.519531 177.175781 144.523438 C 177.957031 144.527344 178.734375 144.570312 179.550781 144.605469 C 178.835938 144.203125 178.046875 143.953125 177.242188 143.808594 C 176.4375 143.664062 175.605469 143.628906 174.785156 143.699219 C 173.964844 143.765625 173.15625 143.949219 172.386719 144.230469 C 171.617188 144.507812 170.886719 144.894531 170.253906 145.417969 C 171.050781 145.242188 171.816406 145.070312 172.582031 144.929688 C 173.34375 144.785156 174.105469 144.691406 174.871094 144.621094 Z M 174.148438 145.597656 C 173.585938 145.714844 173.039062 145.890625 172.523438 146.128906 C 172.011719 146.375 171.515625 146.675781 171.097656 147.085938 C 171.683594 147.027344 172.21875 146.921875 172.757812 146.820312 L 174.335938 146.5 L 175.917969 146.167969 C 176.449219 146.046875 176.988281 145.929688 177.542969 145.753906 C 176.996094 145.546875 176.421875 145.46875 175.851562 145.445312 C 175.277344 145.429688 174.703125 145.480469 174.148438 145.597656 Z M 199.21875 180.695312 C 198.597656 180.640625 197.976562 180.542969 197.359375 180.378906 C 196.742188 180.21875 196.136719 180 195.492188 179.738281 C 195.898438 180.304688 196.46875 180.746094 197.101562 181.054688 C 197.730469 181.367188 198.429688 181.5625 199.136719 181.621094 C 199.847656 181.679688 200.566406 181.605469 201.242188 181.402344 C 201.914062 181.199219 202.554688 180.867188 203.050781 180.375 C 202.371094 180.523438 201.738281 180.640625 201.101562 180.695312 C 200.46875 180.746094 199.84375 180.746094 199.21875 180.695312 Z M 198.277344 179.265625 C 198.734375 179.503906 199.234375 179.660156 199.75 179.734375 C 200.265625 179.808594 200.789062 179.800781 201.292969 179.703125 C 201.796875 179.601562 202.289062 179.421875 202.710938 179.105469 C 202.191406 179.050781 201.71875 179.027344 201.25 178.976562 C 200.789062 178.933594 200.332031 178.882812 199.882812 178.816406 C 199.433594 178.753906 198.984375 178.675781 198.527344 178.582031 C 198.066406 178.492188 197.605469 178.382812 197.089844 178.292969 C 197.402344 178.714844 197.824219 179.027344 198.277344 179.265625 Z M 210.707031 181.875 C 210.183594 181.914062 209.65625 181.921875 209.117188 181.894531 C 208.582031 181.875 208.039062 181.8125 207.445312 181.75 C 207.875 182.164062 208.417969 182.4375 208.992188 182.609375 C 209.566406 182.777344 210.175781 182.839844 210.773438 182.792969 C 211.371094 182.75 211.964844 182.597656 212.503906 182.347656 C 213.042969 182.09375 213.542969 181.746094 213.914062 181.277344 C 213.339844 181.421875 212.8125 181.566406 212.28125 181.664062 C 211.753906 181.769531 211.234375 181.835938 210.707031 181.875 Z M 194.691406 201.578125 C 195.203125 203.035156 195.59375 204.542969 195.886719 206.070312 C 196.171875 207.597656 196.347656 209.15625 196.453125 210.742188 C 196.734375 209.175781 196.761719 207.5625 196.597656 205.96875 C 196.445312 204.371094 196.082031 202.792969 195.5625 201.273438 C 195.027344 199.761719 194.339844 198.296875 193.472656 196.949219 C 192.609375 195.59375 191.589844 194.34375 190.40625 193.289062 C 191.304688 194.597656 192.128906 195.929688 192.847656 197.308594 C 193.570312 198.691406 194.195312 200.109375 194.691406 201.578125 Z M 192.363281 212.042969 C 192.851562 211.300781 193.191406 210.472656 193.417969 209.613281 C 193.644531 208.757812 193.765625 207.867188 193.773438 206.972656 C 193.78125 206.085938 193.675781 205.191406 193.46875 204.328125 C 193.253906 203.464844 192.933594 202.628906 192.464844 201.878906 C 192.578125 202.753906 192.6875 203.601562 192.757812 204.445312 C 192.828125 205.289062 192.855469 206.125 192.851562 206.964844 C 192.84375 207.804688 192.796875 208.640625 192.710938 209.480469 C 192.613281 210.324219 192.488281 211.167969 192.363281 212.042969 Z M 190.054688 267.167969 C 188.828125 267.683594 187.570312 268.109375 186.289062 268.492188 C 185.011719 268.871094 183.707031 269.183594 182.375 269.480469 C 183.738281 269.570312 185.113281 269.453125 186.457031 269.199219 C 187.804688 268.949219 189.125 268.546875 190.398438 268.027344 C 191.667969 267.492188 192.894531 266.859375 194.027344 266.085938 C 195.164062 265.320312 196.222656 264.433594 197.132812 263.417969 C 195.980469 264.144531 194.828125 264.839844 193.65625 265.46875 C 192.480469 266.09375 191.285156 266.671875 190.054688 267.167969 Z M 204.90625 213.03125 C 204.160156 213.640625 203.394531 214.226562 202.636719 214.828125 C 201.871094 215.421875 201.097656 216.007812 200.332031 216.648438 C 201.285156 216.347656 202.183594 215.921875 203.039062 215.425781 C 203.902344 214.9375 204.710938 214.363281 205.492188 213.753906 C 206.253906 213.121094 206.988281 212.457031 207.648438 211.71875 C 208.316406 210.988281 208.925781 210.203125 209.425781 209.335938 C 208.636719 209.949219 207.894531 210.574219 207.152344 211.195312 C 206.398438 211.8125 205.664062 212.433594 204.90625 213.03125 Z M 108.683594 145.457031 C 108.683594 145.457031 111.960938 138.125 115.3125 134.378906 C 118.667969 130.636719 116.25 128.917969 112.738281 131.335938 C 109.226562 133.753906 105.402344 139.296875 103.140625 149.28125 C 103.140625 149.28125 105.402344 144.523438 108.914062 140.621094 C 108.914062 140.621094 108.367188 142.492188 108.683594 145.457031 Z M 262.234375 131.335938 C 258.722656 128.917969 256.304688 130.632812 259.65625 134.378906 C 263.011719 138.125 266.289062 145.457031 266.289062 145.457031 C 266.597656 142.492188 266.050781 140.621094 266.050781 140.621094 C 269.5625 144.523438 271.824219 149.28125 271.824219 149.28125 C 269.566406 139.296875 265.746094 133.753906 262.234375 131.335938 Z M 262.234375 131.335938 " fill-opacity="1" fill-rule="nonzero"/><g clip-path="url(#27c7d25933)"><g clip-path="url(#b285c82584)"><path fill="#f5f0e9" d="M 69.886719 122.078125 L 89.980469 122.078125 L 89.980469 142.175781 L 69.886719 142.175781 Z M 69.886719 122.078125 " fill-opacity="1" fill-rule="nonzero"/></g></g><g fill="#f5f0e9" fill-opacity="1"><g transform="translate(104.667868, 118.384885)"><g><path d="M 4 2.96875 L 11.390625 -3.453125 L 8.046875 -7.3125 L 6.28125 -5.765625 L 0.078125 -12.90625 L 4.90625 -17.109375 L 1.609375 -20.90625 L -3.21875 -16.703125 L -7.515625 -21.65625 L -2.6875 -25.859375 L 0.171875 -22.5625 L 4.015625 -25.90625 L -2.171875 -33.046875 L -16.46875 -20.625 L -13.140625 -16.78125 L -11.375 -18.328125 L 2.421875 -2.4375 L 0.65625 -0.890625 Z M 4 2.96875 "/></g></g></g><g fill="#f5f0e9" fill-opacity="1"><g transform="translate(126.524989, 100.971075)"><g><path d="M 3.3125 3.71875 L 11.859375 -1.046875 L 9.359375 -5.515625 L 7.3125 -4.375 L -2.9375 -22.734375 L -0.890625 -23.875 L -3.375 -28.328125 L -11.921875 -23.5625 L -9.4375 -19.109375 L -7.390625 -20.25 L 2.859375 -1.890625 L 0.8125 -0.75 Z M 3.3125 3.71875 "/></g></g></g><g fill="#f5f0e9" fill-opacity="1"><g transform="translate(142.981511, 91.91998)"><g><path d="M -3.390625 -14.890625 L 1.328125 -16.3125 L -0.421875 -22.109375 L 2.609375 -23.03125 L 8.703125 -2.890625 L 6.453125 -2.21875 L 7.9375 2.671875 L 17.296875 -0.15625 L 15.8125 -5.046875 L 13.578125 -4.375 L 7.484375 -24.515625 L 10.515625 -25.421875 L 12.265625 -19.625 L 16.984375 -21.0625 L 13.765625 -31.734375 L -6.609375 -25.5625 Z M -3.390625 -14.890625 "/></g></g></g><g fill="#f5f0e9" fill-opacity="1"><g transform="translate(171.827282, 84.189838)"><g><path d="M 1.28125 4.8125 L 11.046875 4.40625 L 10.828125 -0.703125 L 8.5 -0.609375 L 8.109375 -10.046875 L 14.5 -10.3125 L 14.296875 -15.34375 L 7.90625 -15.078125 L 7.625 -21.625 L 14.015625 -21.890625 L 14.203125 -17.53125 L 19.296875 -17.75 L 18.890625 -27.203125 L -0.03125 -26.40625 L 0.1875 -21.3125 L 2.53125 -21.40625 L 3.40625 -0.390625 L 1.0625 -0.296875 Z M 1.28125 4.8125 "/></g></g></g><g fill="#f5f0e9" fill-opacity="1"><g transform="translate(199.454105, 83.826592)"><g><path d="M 6.328125 -25.625 L 5.3125 -20.640625 L 7.609375 -20.171875 L 3.40625 0.4375 L 1.109375 -0.03125 L 0.09375 4.984375 L 18.640625 8.75 L 21.109375 -3.40625 L 16.125 -4.421875 L 14.671875 2.71875 L 8.390625 1.453125 L 12.59375 -19.15625 L 14.890625 -18.6875 L 15.90625 -23.671875 Z M 6.328125 -25.625 "/></g></g></g><g fill="#f5f0e9" fill-opacity="1"><g transform="translate(226.358757, 90.112632)"><g><path d="M 1.078125 0.25 L -1.109375 4.859375 L 16 12.984375 L 20.953125 2.53125 L 16.359375 0.34375 L 13.59375 6.1875 L 7.796875 3.4375 L 11.859375 -5.140625 L 17.65625 -2.390625 L 19.859375 -7.03125 L 14.0625 -9.78125 L 16.8125 -15.5625 L 22.609375 -12.8125 L 20.78125 -8.953125 L 25.375 -6.765625 L 29.390625 -15.234375 L 12.28125 -23.359375 L 10.09375 -18.75 L 12.21875 -17.75 L 3.203125 1.25 Z M 1.078125 0.25 "/></g></g></g><g fill="#f5f0e9" fill-opacity="1"><g transform="translate(250.955756, 102.45864)"><g><path d="M -2.296875 4.40625 L 5.671875 11.125 L 8.953125 7.21875 L 7 5.578125 L 13.171875 3.328125 L 12 9.796875 L 10.1875 8.265625 L 6.90625 12.171875 L 14.90625 18.921875 L 18.1875 15.015625 L 16.265625 13.390625 L 18.375 1.4375 L 29.796875 -2.703125 L 31.75 -1.0625 L 35.03125 -4.96875 L 27.03125 -11.71875 L 23.75 -7.8125 L 25.5625 -6.28125 L 19.328125 -3.96875 L 20.390625 -10.640625 L 22.515625 -8.859375 L 25.796875 -12.765625 L 17.828125 -19.484375 L 14.546875 -15.578125 L 16.296875 -14.09375 L 14.15625 -2.125 L 2.796875 2.03125 L 0.984375 0.5 Z M -2.296875 4.40625 "/></g></g></g><g clip-path="url(#e3b791b4d3)"><g clip-path="url(#f23550ee07)"><path fill="#f5f0e9" d="M 285.019531 122.109375 L 305.113281 122.109375 L 305.113281 142.207031 L 285.019531 142.207031 Z M 285.019531 122.109375 " fill-opacity="1" fill-rule="nonzero"/></g></g><g fill="#ffffff" fill-opacity="1"><g transform="translate(87.959201, 264.039341)"><g><path d="M 25.671875 -7.171875 L 27.703125 -4.71875 C 27.898438 -4.46875 27.867188 -4.234375 27.609375 -4.015625 L 9.625 10.875 C 9.375 11.082031 9.148438 11.0625 8.953125 10.8125 L 7.03125 8.484375 C 6.84375 8.265625 6.820312 8.039062 6.96875 7.8125 L 14.015625 -4.0625 L 13.921875 -4.1875 L 3.984375 4.046875 C 3.734375 4.253906 3.503906 4.234375 3.296875 3.984375 L 1.28125 1.546875 C 1.070312 1.296875 1.09375 1.066406 1.34375 0.859375 L 19.328125 -14.03125 C 19.585938 -14.25 19.820312 -14.234375 20.03125 -13.984375 L 21.953125 -11.671875 C 22.140625 -11.441406 22.148438 -11.210938 21.984375 -10.984375 L 14.984375 0.8125 L 15.09375 0.953125 L 24.96875 -7.21875 C 25.226562 -7.4375 25.460938 -7.421875 25.671875 -7.171875 Z M 25.671875 -7.171875 "/></g></g></g><g fill="#ffffff" fill-opacity="1"><g transform="translate(104.010713, 282.130667)"><g><path d="M 23.75 -7.4375 L 21.8125 -5.09375 C 21.601562 -4.820312 21.375 -4.789062 21.125 -5 L 15.3125 -9.765625 L 12.328125 -6.140625 L 16.75 -2.515625 C 17 -2.304688 17.019531 -2.066406 16.8125 -1.796875 L 14.890625 0.53125 C 14.671875 0.789062 14.4375 0.816406 14.1875 0.609375 L 9.765625 -3.015625 L 6.921875 0.46875 L 12.734375 5.234375 C 12.984375 5.441406 13.003906 5.671875 12.796875 5.921875 L 10.875 8.28125 C 10.664062 8.53125 10.4375 8.550781 10.1875 8.34375 L 1.53125 1.25 C 1.289062 1.050781 1.273438 0.828125 1.484375 0.578125 L 14.359375 -15.140625 C 14.566406 -15.390625 14.789062 -15.414062 15.03125 -15.21875 L 23.6875 -8.125 C 23.9375 -7.914062 23.957031 -7.6875 23.75 -7.4375 Z M 23.75 -7.4375 "/></g></g></g><g fill="#ffffff" fill-opacity="1"><g transform="translate(122.526952, 296.325889)"><g><path d="M 20.359375 -13.21875 L 22.796875 -11.90625 C 23.203125 -11.6875 23.257812 -11.40625 22.96875 -11.0625 L 9.1875 4.3125 C 8.9375 4.601562 8.65625 4.660156 8.34375 4.484375 L 5.65625 3.046875 C 5.351562 2.878906 5.242188 2.609375 5.328125 2.234375 L 10.609375 -17.71875 C 10.734375 -18.15625 11 -18.265625 11.40625 -18.046875 L 13.84375 -16.734375 C 14.164062 -16.554688 14.269531 -16.289062 14.15625 -15.9375 L 10.296875 -2.390625 L 19.5 -13.0625 C 19.769531 -13.332031 20.054688 -13.382812 20.359375 -13.21875 Z M 20.359375 -13.21875 "/></g></g></g><g fill="#ffffff" fill-opacity="1"><g transform="translate(144.085524, 307.000949)"><g><path d="M 19.21875 -15.828125 L 18.328125 -12.921875 C 18.222656 -12.585938 18.015625 -12.46875 17.703125 -12.5625 L 10.53125 -14.796875 L 9.140625 -10.328125 L 14.59375 -8.625 C 14.90625 -8.53125 15.007812 -8.316406 14.90625 -7.984375 L 14.015625 -5.109375 C 13.910156 -4.773438 13.703125 -4.65625 13.390625 -4.75 L 7.9375 -6.453125 L 6.59375 -2.15625 L 13.765625 0.078125 C 14.078125 0.171875 14.1875 0.367188 14.09375 0.671875 L 13.1875 3.578125 C 13.09375 3.890625 12.890625 4 12.578125 3.90625 L 1.890625 0.59375 C 1.597656 0.5 1.5 0.296875 1.59375 -0.015625 L 7.625 -19.421875 C 7.726562 -19.734375 7.925781 -19.84375 8.21875 -19.75 L 18.90625 -16.4375 C 19.21875 -16.34375 19.320312 -16.140625 19.21875 -15.828125 Z M 19.21875 -15.828125 "/></g></g></g><g fill="#ffffff" fill-opacity="1"><g transform="translate(166.543439, 313.178665)"><g><path d="M 15.484375 -15.28125 L 14.796875 -9.203125 C 14.597656 -7.453125 13.898438 -6.285156 12.703125 -5.703125 L 13.546875 0.96875 C 13.597656 1.34375 13.4375 1.507812 13.0625 1.46875 L 10.09375 1.140625 C 9.8125 1.109375 9.65625 0.945312 9.625 0.65625 L 8.859375 -5.453125 L 6.15625 -5.765625 L 5.484375 0.125 C 5.453125 0.445312 5.273438 0.59375 4.953125 0.5625 L 2 0.21875 C 1.664062 0.1875 1.515625 0.0078125 1.546875 -0.3125 L 3.828125 -20.515625 C 3.867188 -20.828125 4.054688 -20.96875 4.390625 -20.9375 L 11.640625 -20.109375 C 13.066406 -19.953125 14.101562 -19.460938 14.75 -18.640625 C 15.40625 -17.828125 15.648438 -16.707031 15.484375 -15.28125 Z M 6.59375 -9.671875 L 9.625 -9.328125 C 10.425781 -9.234375 10.875 -9.585938 10.96875 -10.390625 L 11.484375 -14.953125 C 11.566406 -15.765625 11.207031 -16.21875 10.40625 -16.3125 L 7.375 -16.65625 Z M 6.59375 -9.671875 "/></g></g></g><g fill="#ffffff" fill-opacity="1"><g transform="translate(189.391093, 314.853123)"><g/></g></g><g fill="#ffffff" fill-opacity="1"><g transform="translate(204.780158, 313.920281)"><g><path d="M 7.1875 -26.34375 L 10.171875 -26.96875 C 10.390625 -27.007812 10.5625 -26.976562 10.6875 -26.875 C 10.8125 -26.78125 10.847656 -26.613281 10.796875 -26.375 L 8.109375 -11.984375 L 10.03125 -2.703125 C 10.113281 -2.304688 9.957031 -2.066406 9.5625 -1.984375 L 6.703125 -1.390625 C 6.304688 -1.304688 6.066406 -1.460938 5.984375 -1.859375 L 4.0625 -11.140625 L -4.15625 -23.28125 C -4.28125 -23.476562 -4.304688 -23.644531 -4.234375 -23.78125 C -4.171875 -23.925781 -4.035156 -24.019531 -3.828125 -24.0625 L -0.84375 -24.6875 C -0.5 -24.75 -0.238281 -24.632812 -0.0625 -24.34375 L 5.0625 -16.5 L 6.625 -25.734375 C 6.664062 -26.078125 6.851562 -26.28125 7.1875 -26.34375 Z M 7.1875 -26.34375 "/></g></g></g><g fill="#ffffff" fill-opacity="1"><g transform="translate(228.402765, 307.996746)"><g><path d="M 1.890625 -0.71875 L 4.828125 -1.84375 C 5.128906 -1.957031 5.222656 -2.164062 5.109375 -2.46875 L -2.140625 -21.453125 C -2.253906 -21.753906 -2.460938 -21.847656 -2.765625 -21.734375 L -5.703125 -20.609375 C -6.015625 -20.492188 -6.113281 -20.285156 -6 -19.984375 L 1.25 -1 C 1.363281 -0.695312 1.578125 -0.601562 1.890625 -0.71875 Z M 1.890625 -0.71875 "/></g></g></g><g fill="#ffffff" fill-opacity="1"><g transform="translate(242.209694, 302.421668)"><g><path d="M 1.5625 -24.84375 L 3.0625 -22.203125 C 3.238281 -21.898438 3.1875 -21.664062 2.90625 -21.5 L -3.609375 -17.78125 L -1.296875 -13.71875 L 3.671875 -16.546875 C 3.941406 -16.710938 4.160156 -16.644531 4.328125 -16.34375 L 5.828125 -13.71875 C 5.992188 -13.425781 5.941406 -13.195312 5.671875 -13.03125 L 0.703125 -10.203125 L 2.9375 -6.28125 L 9.453125 -10 C 9.734375 -10.164062 9.953125 -10.109375 10.109375 -9.828125 L 11.625 -7.1875 C 11.78125 -6.90625 11.71875 -6.679688 11.4375 -6.515625 L 1.71875 -0.984375 C 1.445312 -0.828125 1.234375 -0.890625 1.078125 -1.171875 L -8.984375 -18.828125 C -9.148438 -19.109375 -9.097656 -19.328125 -8.828125 -19.484375 L 0.890625 -25.015625 C 1.171875 -25.179688 1.394531 -25.125 1.5625 -24.84375 Z M 1.5625 -24.84375 "/></g></g></g><g fill="#ffffff" fill-opacity="1"><g transform="translate(261.966544, 290.247506)"><g><path d="M 1.734375 -6.71875 L -9.078125 -19.546875 C -9.285156 -19.796875 -9.515625 -19.816406 -9.765625 -19.609375 L -12.171875 -17.578125 C -12.429688 -17.367188 -12.457031 -17.140625 -12.25 -16.890625 L 0.84375 -1.359375 C 1.050781 -1.109375 1.285156 -1.085938 1.546875 -1.296875 L 8.9375 -7.53125 C 9.1875 -7.738281 9.207031 -7.96875 9 -8.21875 L 7.03125 -10.546875 C 6.820312 -10.796875 6.59375 -10.816406 6.34375 -10.609375 Z M 1.734375 -6.71875 "/></g></g></g><g fill="#ffffff" fill-opacity="1"><g transform="translate(278.14454, 275.743464)"><g><path d="M 0.59375 -1.484375 L -15.109375 -14.390625 C -15.359375 -14.585938 -15.378906 -14.816406 -15.171875 -15.078125 L -10.546875 -20.703125 C -9.628906 -21.816406 -8.644531 -22.421875 -7.59375 -22.515625 C -6.550781 -22.617188 -5.472656 -22.210938 -4.359375 -21.296875 L 5.3125 -13.359375 C 6.40625 -12.453125 7.003906 -11.472656 7.109375 -10.421875 C 7.222656 -9.378906 6.820312 -8.300781 5.90625 -7.1875 L 1.28125 -1.5625 C 1.070312 -1.300781 0.84375 -1.273438 0.59375 -1.484375 Z M 0.484375 -6.921875 L 2.25 -9.078125 C 2.769531 -9.703125 2.71875 -10.273438 2.09375 -10.796875 L -6.25 -17.640625 C -6.882812 -18.171875 -7.460938 -18.125 -7.984375 -17.5 L -9.75 -15.34375 Z M 0.484375 -6.921875 "/></g></g></g><g fill="#f5f0e9" fill-opacity="1"><g transform="translate(28.270348, 194.696604)"><g><path d="M 13.546875 -12.28125 L 5.4375 -12.28125 L 5.4375 -9.234375 L 12.765625 -9.234375 L 12.765625 -6.15625 L 5.4375 -6.15625 L 5.4375 -3.0625 L 13.78125 -3.0625 L 13.78125 0 L 1.53125 0 L 1.53125 -15.34375 L 13.546875 -15.34375 Z M 13.546875 -12.28125 "/></g></g></g><g fill="#f5f0e9" fill-opacity="1"><g transform="translate(44.883942, 194.696604)"><g><path d="M 7.4375 -15.515625 C 9.726562 -15.515625 11.742188 -14.945312 13.484375 -13.8125 L 12.015625 -10.765625 C 11.210938 -11.234375 10.347656 -11.613281 9.421875 -11.90625 C 8.503906 -12.207031 7.734375 -12.359375 7.109375 -12.359375 C 5.984375 -12.359375 5.421875 -11.988281 5.421875 -11.25 C 5.421875 -10.757812 5.695312 -10.367188 6.25 -10.078125 C 6.800781 -9.785156 7.472656 -9.535156 8.265625 -9.328125 C 9.066406 -9.117188 9.863281 -8.863281 10.65625 -8.5625 C 11.457031 -8.257812 12.132812 -7.769531 12.6875 -7.09375 C 13.25 -6.425781 13.53125 -5.582031 13.53125 -4.5625 C 13.53125 -3.082031 12.953125 -1.929688 11.796875 -1.109375 C 10.640625 -0.285156 9.171875 0.125 7.390625 0.125 C 6.117188 0.125 4.859375 -0.09375 3.609375 -0.53125 C 2.367188 -0.96875 1.289062 -1.566406 0.375 -2.328125 L 1.890625 -5.328125 C 2.660156 -4.648438 3.570312 -4.097656 4.625 -3.671875 C 5.675781 -3.242188 6.613281 -3.03125 7.4375 -3.03125 C 8.0625 -3.03125 8.546875 -3.140625 8.890625 -3.359375 C 9.242188 -3.585938 9.421875 -3.921875 9.421875 -4.359375 C 9.421875 -4.785156 9.21875 -5.140625 8.8125 -5.421875 C 8.414062 -5.710938 7.914062 -5.925781 7.3125 -6.0625 C 6.71875 -6.195312 6.066406 -6.378906 5.359375 -6.609375 C 4.660156 -6.847656 4.007812 -7.101562 3.40625 -7.375 C 2.8125 -7.65625 2.3125 -8.097656 1.90625 -8.703125 C 1.507812 -9.316406 1.3125 -10.046875 1.3125 -10.890625 C 1.3125 -12.296875 1.867188 -13.414062 2.984375 -14.25 C 4.109375 -15.09375 5.59375 -15.515625 7.4375 -15.515625 Z M 7.4375 -15.515625 "/></g></g></g><g fill="#f5f0e9" fill-opacity="1"><g transform="translate(60.840038, 194.696604)"><g><path d="M 13.265625 -12.203125 L 8.640625 -12.203125 L 8.640625 0 L 4.734375 0 L 4.734375 -12.203125 L 0.15625 -12.203125 L 0.15625 -15.375 L 13.265625 -15.375 Z M 13.265625 -12.203125 "/></g></g></g><g fill="#f5f0e9" fill-opacity="1"><g transform="translate(76.072871, 194.696604)"><g><path d="M 1.328125 -2.984375 C 1.671875 -3.316406 2.113281 -3.484375 2.65625 -3.484375 C 3.195312 -3.484375 3.640625 -3.316406 3.984375 -2.984375 C 4.328125 -2.648438 4.5 -2.210938 4.5 -1.671875 C 4.5 -1.128906 4.328125 -0.6875 3.984375 -0.34375 C 3.640625 0 3.195312 0.171875 2.65625 0.171875 C 2.113281 0.171875 1.671875 0 1.328125 -0.34375 C 0.992188 -0.6875 0.828125 -1.128906 0.828125 -1.671875 C 0.828125 -2.210938 0.992188 -2.648438 1.328125 -2.984375 Z M 1.328125 -2.984375 "/></g></g></g><g fill="#f5f0e9" fill-opacity="1"><g transform="translate(288.834999, 194.696604)"><g><path d="M 6.703125 -15.515625 C 8.242188 -15.515625 9.503906 -15.144531 10.484375 -14.40625 C 11.460938 -13.675781 11.953125 -12.710938 11.953125 -11.515625 C 11.953125 -10.078125 10.984375 -8.375 9.046875 -6.40625 L 5.9375 -3.09375 L 12.40625 -3.09375 L 12.40625 0 L 0.921875 0 L 0.921875 -2.515625 L 6.40625 -8.328125 C 7.382812 -9.347656 7.875 -10.222656 7.875 -10.953125 C 7.875 -11.398438 7.71875 -11.742188 7.40625 -11.984375 C 7.101562 -12.234375 6.679688 -12.359375 6.140625 -12.359375 C 4.867188 -12.359375 3.472656 -11.707031 1.953125 -10.40625 L 0.484375 -13.21875 C 2.523438 -14.75 4.597656 -15.515625 6.703125 -15.515625 Z M 6.703125 -15.515625 "/></g></g></g><g fill="#f5f0e9" fill-opacity="1"><g transform="translate(303.826752, 194.696604)"><g><path d="M 7.71875 -15.484375 C 9.894531 -15.484375 11.566406 -14.804688 12.734375 -13.453125 C 13.898438 -12.109375 14.484375 -10.1875 14.484375 -7.6875 C 14.484375 -5.175781 13.898438 -3.25 12.734375 -1.90625 C 11.566406 -0.5625 9.894531 0.109375 7.71875 0.109375 C 5.519531 0.109375 3.832031 -0.5625 2.65625 -1.90625 C 1.488281 -3.25 0.90625 -5.175781 0.90625 -7.6875 C 0.90625 -10.1875 1.488281 -12.109375 2.65625 -13.453125 C 3.832031 -14.804688 5.519531 -15.484375 7.71875 -15.484375 Z M 7.71875 -12.625 C 6.71875 -12.625 6 -12.238281 5.5625 -11.46875 C 5.125 -10.707031 4.90625 -9.445312 4.90625 -7.6875 C 4.90625 -5.9375 5.125 -4.671875 5.5625 -3.890625 C 6 -3.117188 6.71875 -2.734375 7.71875 -2.734375 C 8.675781 -2.734375 9.378906 -3.125 9.828125 -3.90625 C 10.273438 -4.6875 10.5 -5.945312 10.5 -7.6875 C 10.5 -9.425781 10.273438 -10.679688 9.828125 -11.453125 C 9.378906 -12.234375 8.675781 -12.625 7.71875 -12.625 Z M 7.71875 -12.625 "/></g></g></g><g fill="#f5f0e9" fill-opacity="1"><g transform="translate(321.075941, 194.696604)"><g><path d="M 6.703125 -15.515625 C 8.242188 -15.515625 9.503906 -15.144531 10.484375 -14.40625 C 11.460938 -13.675781 11.953125 -12.710938 11.953125 -11.515625 C 11.953125 -10.078125 10.984375 -8.375 9.046875 -6.40625 L 5.9375 -3.09375 L 12.40625 -3.09375 L 12.40625 0 L 0.921875 0 L 0.921875 -2.515625 L 6.40625 -8.328125 C 7.382812 -9.347656 7.875 -10.222656 7.875 -10.953125 C 7.875 -11.398438 7.71875 -11.742188 7.40625 -11.984375 C 7.101562 -12.234375 6.679688 -12.359375 6.140625 -12.359375 C 4.867188 -12.359375 3.472656 -11.707031 1.953125 -10.40625 L 0.484375 -13.21875 C 2.523438 -14.75 4.597656 -15.515625 6.703125 -15.515625 Z M 6.703125 -15.515625 "/></g></g></g><g fill="#f5f0e9" fill-opacity="1"><g transform="translate(336.067695, 194.696604)"><g><path d="M 7.71875 -15.484375 C 9.894531 -15.484375 11.566406 -14.804688 12.734375 -13.453125 C 13.898438 -12.109375 14.484375 -10.1875 14.484375 -7.6875 C 14.484375 -5.175781 13.898438 -3.25 12.734375 -1.90625 C 11.566406 -0.5625 9.894531 0.109375 7.71875 0.109375 C 5.519531 0.109375 3.832031 -0.5625 2.65625 -1.90625 C 1.488281 -3.25 0.90625 -5.175781 0.90625 -7.6875 C 0.90625 -10.1875 1.488281 -12.109375 2.65625 -13.453125 C 3.832031 -14.804688 5.519531 -15.484375 7.71875 -15.484375 Z M 7.71875 -12.625 C 6.71875 -12.625 6 -12.238281 5.5625 -11.46875 C 5.125 -10.707031 4.90625 -9.445312 4.90625 -7.6875 C 4.90625 -5.9375 5.125 -4.671875 5.5625 -3.890625 C 6 -3.117188 6.71875 -2.734375 7.71875 -2.734375 C 8.675781 -2.734375 9.378906 -3.125 9.828125 -3.90625 C 10.273438 -4.6875 10.5 -5.945312 10.5 -7.6875 C 10.5 -9.425781 10.273438 -10.679688 9.828125 -11.453125 C 9.378906 -12.234375 8.675781 -12.625 7.71875 -12.625 Z M 7.71875 -12.625 "/></g></g></g></svg>