<svg xmlns="http://www.w3.org/2000/svg" xmlns:xlink="http://www.w3.org/1999/xlink" width="500" zoomAndPan="magnify" viewBox="0 0 375 374.999991" height="500" preserveAspectRatio="xMidYMid meet" version="1.0"><defs><g/><clipPath id="82148e74be"><path d="M 186 60 L 271 60 L 271 234.449219 L 186 234.449219 Z M 186 60 " clip-rule="nonzero"/></clipPath><clipPath id="dcb4102561"><path d="M 91 73 L 205 73 L 205 234.449219 L 91 234.449219 Z M 91 73 " clip-rule="nonzero"/></clipPath><clipPath id="5739cf87b3"><path d="M 267 136 L 305.164062 136 L 305.164062 175 L 267 175 Z M 267 136 " clip-rule="nonzero"/></clipPath><clipPath id="ada2e79074"><path d="M 69.664062 140 L 99 140 L 99 170 L 69.664062 170 Z M 69.664062 140 " clip-rule="nonzero"/></clipPath></defs><g clip-path="url(#82148e74be)"><path fill="#5b5b5b" d="M 206.945312 80.125 C 206.664062 79.042969 206.019531 78.582031 205.019531 78.738281 C 204.488281 78.820312 204.457031 78.730469 204.933594 78.476562 C 205.355469 78.25 205.769531 78.050781 206.179688 77.875 C 206.34375 77.804688 206.425781 77.679688 206.425781 77.5 C 206.433594 72.09375 209 66.753906 212.75 63.578125 C 217.144531 59.859375 223.402344 59.742188 228.972656 60.75 C 235.292969 61.890625 240.6875 66.296875 241.65625 72.953125 C 242.128906 76.21875 242.121094 79.460938 241.457031 82.742188 C 241.140625 84.335938 240.910156 85.886719 240.769531 87.398438 C 240.75 87.585938 240.683594 87.753906 240.574219 87.902344 C 239.882812 88.8125 239.355469 89.796875 238.996094 90.851562 C 238.292969 92.886719 237.636719 94.929688 237.03125 96.980469 C 236.007812 100.472656 233.007812 102.796875 231.578125 106.019531 C 230.277344 108.960938 227.386719 109.460938 224.667969 108.472656 C 224.589844 108.445312 224.515625 108.453125 224.445312 108.496094 C 224.375 108.539062 224.332031 108.601562 224.324219 108.683594 C 224.050781 110.679688 224.933594 111.714844 226.558594 112.914062 C 229.144531 114.820312 231.753906 116.839844 234.386719 118.972656 C 235.019531 119.488281 235.589844 120.074219 236.097656 120.738281 C 236.195312 120.859375 236.320312 120.941406 236.472656 120.972656 C 239.847656 121.753906 242.425781 122.636719 244.40625 125.574219 C 247.375 129.988281 247.964844 135.105469 246.710938 140.246094 C 246.613281 140.644531 246.601562 141.042969 246.683594 141.433594 C 247.355469 144.722656 247.609375 147.464844 247.449219 149.65625 C 247.238281 152.5 245.863281 154.570312 243.320312 155.867188 C 243.195312 155.929688 243.105469 156.023438 243.042969 156.144531 C 242.980469 156.269531 242.960938 156.398438 242.988281 156.535156 L 244.039062 162.324219 C 244.050781 162.390625 244.078125 162.453125 244.121094 162.507812 C 244.160156 162.5625 244.214844 162.601562 244.273438 162.632812 C 244.335938 162.660156 244.402344 162.675781 244.46875 162.671875 C 244.535156 162.671875 244.601562 162.65625 244.660156 162.621094 C 248.214844 160.648438 252.59375 159.789062 256.5625 159.414062 C 260.097656 159.082031 263.394531 158.730469 266.457031 158.359375 C 266.625 158.34375 266.730469 158.414062 266.773438 158.570312 C 267.269531 160.355469 267.523438 162.171875 268.269531 163.855469 C 268.71875 164.855469 269.308594 165.808594 270.042969 166.71875 C 270.355469 167.101562 270.320312 167.453125 269.945312 167.773438 C 269.035156 168.542969 268.132812 169.203125 267.238281 169.765625 C 262.671875 172.609375 257.886719 175.46875 252.878906 178.347656 C 251.542969 179.113281 249.855469 180.203125 247.824219 181.609375 C 246.742188 182.355469 245.550781 182.703125 244.253906 182.808594 C 244.101562 182.820312 243.972656 182.878906 243.859375 182.984375 C 243.75 183.085938 243.679688 183.214844 243.65625 183.367188 C 243.207031 186.1875 242.722656 189.207031 241.800781 192.03125 C 241.066406 194.277344 240.554688 196.453125 240.609375 198.828125 C 240.628906 199.808594 240.886719 200.835938 241.378906 201.910156 C 242.015625 203.300781 242.6875 204.707031 243.390625 206.132812 C 247.988281 215.445312 252.144531 224.519531 257.132812 233.738281 C 257.390625 234.214844 257.25 234.441406 256.710938 234.417969 L 255.460938 234.359375 C 254.910156 234.332031 254.5 234.074219 254.238281 233.59375 C 251.464844 228.496094 248.566406 223.335938 245.546875 218.113281 C 241.089844 210.410156 236.191406 203.023438 230.847656 195.953125 C 230.78125 195.863281 230.699219 195.847656 230.601562 195.914062 L 230.503906 195.984375 C 230.480469 196 230.476562 196.019531 230.492188 196.039062 C 231.3125 197.378906 232.152344 198.664062 233.011719 199.894531 C 233.816406 201.039062 234.558594 202.230469 235.238281 203.464844 C 240.769531 213.484375 246.269531 223.664062 251.738281 234.007812 C 251.863281 234.242188 251.792969 234.359375 251.527344 234.359375 L 249.09375 234.351562 C 248.796875 234.351562 248.554688 234.234375 248.367188 234 C 244.128906 228.746094 240.015625 223.628906 236.027344 218.644531 C 235.945312 218.535156 235.84375 218.515625 235.726562 218.585938 L 235.617188 218.644531 C 235.554688 218.679688 235.542969 218.730469 235.582031 218.789062 C 238.914062 223.941406 242.832031 228.984375 245.796875 233.296875 C 245.964844 233.535156 246.113281 233.824219 246.25 234.160156 C 246.269531 234.214844 246.265625 234.269531 246.230469 234.320312 C 246.195312 234.371094 246.148438 234.394531 246.089844 234.394531 L 208.351562 234.449219 C 208.101562 234.449219 207.9375 234.332031 207.863281 234.097656 C 206.285156 229.226562 203.652344 225.308594 201.222656 220.988281 C 199.839844 218.515625 198.792969 215.511719 198.085938 211.972656 C 197.320312 208.128906 198.175781 205.878906 199.636719 201.609375 C 200.265625 199.757812 200.871094 198.046875 201.457031 196.484375 C 201.496094 196.378906 201.574219 196.316406 201.683594 196.300781 C 201.796875 196.285156 201.886719 196.320312 201.953125 196.410156 C 204.121094 199.273438 206.203125 201.921875 208.191406 204.355469 C 208.773438 205.066406 209.402344 205.796875 210.140625 206.539062 C 210.257812 206.660156 210.347656 206.597656 210.414062 206.359375 C 210.441406 206.25 210.425781 206.144531 210.375 206.046875 C 208.117188 201.773438 205.640625 197.4375 202.953125 193.03125 C 202.359375 192.058594 201.785156 191.0625 201.222656 190.042969 C 200.523438 188.761719 200.582031 187.617188 201.398438 186.613281 C 201.820312 186.089844 202.582031 186.0625 203.179688 186.179688 C 204.808594 186.492188 206.410156 186.664062 207.984375 186.6875 C 208.214844 186.691406 208.414062 186.617188 208.585938 186.46875 C 208.636719 186.425781 208.660156 186.371094 208.652344 186.304688 C 208.648438 186.238281 208.617188 186.191406 208.558594 186.15625 L 203.34375 183.054688 C 203.253906 183 203.1875 182.921875 203.152344 182.820312 C 203.117188 182.714844 203.117188 182.613281 203.152344 182.511719 C 204.644531 178.507812 206.277344 175.191406 205.824219 171.296875 C 205.628906 169.632812 204.996094 167.222656 203.925781 164.0625 C 202.914062 161.066406 201.890625 158.144531 200.863281 155.296875 C 199.035156 150.230469 197.945312 145.007812 196.710938 139.6875 C 196.332031 138.039062 195.839844 136.550781 195.238281 135.226562 C 193.871094 132.210938 190.992188 129.566406 188.410156 127.382812 C 188.027344 127.058594 187.683594 126.6875 187.382812 126.273438 C 187.339844 126.214844 187.332031 126.148438 187.355469 126.082031 C 187.375 126.011719 187.421875 125.96875 187.492188 125.949219 C 188.191406 125.726562 188.777344 125.394531 189.242188 124.960938 C 189.449219 124.769531 189.578125 124.535156 189.621094 124.253906 C 189.667969 123.976562 189.625 123.710938 189.492188 123.464844 C 189.082031 122.703125 188.570312 122.011719 187.957031 121.394531 C 187.785156 121.21875 187.683594 121.011719 187.652344 120.765625 L 186.914062 114.789062 C 186.890625 114.621094 186.964844 114.542969 187.136719 114.558594 L 190.078125 114.8125 C 190.128906 114.816406 190.171875 114.800781 190.207031 114.761719 C 190.242188 114.722656 190.253906 114.675781 190.242188 114.625 L 189.65625 111.816406 C 189.625 111.660156 189.664062 111.527344 189.777344 111.410156 C 189.914062 111.277344 190.09375 111.222656 190.316406 111.253906 C 190.480469 111.277344 190.539062 111.207031 190.488281 111.050781 C 190.460938 110.957031 190.402344 110.890625 190.316406 110.851562 C 188.492188 110.058594 188.691406 108.742188 188.636719 107.070312 C 188.632812 106.824219 188.738281 106.652344 188.960938 106.554688 C 193.765625 104.429688 198.273438 104.441406 203.316406 105.128906 C 203.375 105.136719 203.417969 105.117188 203.449219 105.070312 C 203.480469 105.019531 203.476562 104.972656 203.445312 104.925781 C 202.273438 103.257812 198.273438 102.738281 196.238281 102.855469 C 194.058594 102.976562 191.835938 103.359375 189.5625 103.996094 C 189.484375 104.019531 189.417969 104 189.363281 103.941406 C 189.308594 103.882812 189.296875 103.8125 189.324219 103.738281 C 190.117188 101.648438 192.277344 101.226562 194.253906 101.289062 C 195.75 101.339844 197.222656 101.425781 198.675781 101.550781 C 200.140625 101.675781 201.351562 101.191406 202.308594 100.097656 C 203.367188 98.890625 204.113281 97.835938 204.554688 96.933594 C 205.195312 95.609375 205.734375 93.621094 206.175781 90.96875 C 206.207031 90.761719 206.160156 90.582031 206.027344 90.417969 C 205.148438 89.367188 204.632812 88.507812 204.476562 87.835938 C 203.878906 85.238281 203.753906 82.472656 204.109375 79.527344 C 204.121094 79.429688 204.152344 79.332031 204.203125 79.230469 C 204.269531 79.105469 204.335938 79.101562 204.402344 79.226562 C 204.492188 79.382812 204.628906 79.484375 204.808594 79.527344 C 205.507812 79.691406 206.136719 79.949219 206.695312 80.304688 C 206.929688 80.457031 207.015625 80.394531 206.945312 80.125 Z M 219.652344 61.695312 C 217.773438 62.125 215.820312 63.007812 213.785156 64.339844 C 209.257812 67.300781 207.878906 71.652344 207.554688 76.746094 C 207.550781 76.828125 207.589844 76.875 207.671875 76.890625 C 207.761719 76.90625 207.816406 76.871094 207.835938 76.78125 C 208.621094 72.9375 209.640625 68.394531 213.117188 66.019531 C 216.191406 63.921875 219.605469 62.8125 223.359375 62.683594 C 228.128906 62.523438 232.648438 63.375 235.738281 66.824219 C 240.714844 72.378906 240.636719 79.1875 238.953125 86.21875 C 238.566406 87.820312 237.628906 88.835938 236.132812 89.253906 C 236.03125 89.285156 235.953125 89.347656 235.902344 89.445312 C 235.855469 89.539062 235.847656 89.636719 235.886719 89.738281 C 236.132812 90.378906 236.308594 91.027344 236.425781 91.6875 C 236.8125 93.886719 235.371094 96.757812 233.953125 98.355469 C 232.191406 100.339844 230.773438 102.351562 229.703125 104.394531 C 229.160156 105.4375 228.257812 106.210938 227.164062 106.65625 C 226.261719 107.019531 226.296875 107.214844 227.269531 107.246094 C 228.382812 107.277344 229.460938 106.460938 229.949219 105.480469 C 230.871094 103.621094 232.164062 101.84375 233.835938 100.144531 C 235.523438 98.425781 236.53125 96.320312 236.882812 93.941406 C 237.078125 92.613281 237.335938 91.574219 237.648438 90.824219 C 238.617188 88.53125 240.089844 86.421875 240.449219 83.914062 C 241.074219 79.585938 241.722656 74.539062 239.667969 70.492188 C 237.707031 66.625 235.429688 63.34375 231.027344 62.160156 C 226.898438 61.054688 223.105469 60.898438 219.652344 61.695312 Z M 244.378906 139.429688 C 244.328125 139.480469 244.269531 139.5 244.203125 139.492188 C 244.132812 139.480469 244.085938 139.441406 244.058594 139.378906 C 242.503906 135.828125 241.089844 132.132812 238.929688 128.949219 C 238.308594 128.027344 238.144531 128.101562 238.441406 129.171875 C 238.566406 129.621094 238.722656 130.035156 238.902344 130.421875 C 241.128906 135.125 243.132812 140.328125 243.671875 145.5 C 244.070312 149.414062 242.71875 153.070312 237.835938 152.214844 C 237.574219 152.167969 237.347656 152.238281 237.160156 152.421875 L 237.058594 152.519531 C 237.027344 152.550781 237.015625 152.589844 237.027344 152.636719 C 237.039062 152.683594 237.066406 152.710938 237.109375 152.726562 C 238.476562 153.167969 239.765625 153.511719 240.980469 153.757812 C 246.257812 154.832031 245.996094 147.003906 245.28125 143.757812 C 245.113281 142.996094 244.894531 142.3125 245.292969 141.5625 C 246.023438 140.195312 246.429688 138.691406 246.519531 137.054688 C 246.792969 131.921875 245.304688 127.089844 241.28125 123.890625 C 240.03125 122.902344 238.273438 122.53125 236.761719 122.109375 C 236.382812 122.003906 236.082031 121.832031 235.863281 121.589844 C 233.4375 118.921875 230.640625 116.570312 227.46875 114.539062 C 226.292969 113.785156 225.109375 113.214844 223.917969 112.835938 C 222.363281 112.339844 222.273438 112.527344 223.652344 113.402344 C 224.980469 114.246094 226.257812 115.078125 227.480469 115.902344 C 230.621094 118.027344 233.332031 120.503906 235.613281 123.335938 C 235.847656 123.621094 236.527344 124.070312 236.882812 124.152344 C 238.804688 124.621094 240.328125 125.617188 241.453125 127.140625 C 243.574219 130.003906 245.394531 134.074219 245.113281 137.679688 C 245.058594 138.359375 244.8125 138.941406 244.378906 139.429688 Z M 228.464844 137.886719 C 228.78125 140.324219 229.117188 145.234375 226.667969 146.632812 C 224.964844 147.605469 223.058594 148.261719 220.949219 148.609375 C 217.839844 149.121094 214.125 149.605469 209.808594 150.0625 C 209.167969 150.128906 208.570312 150.242188 208.011719 150.40625 C 207.378906 150.585938 207.390625 150.710938 208.050781 150.769531 C 211.09375 151.046875 214.371094 151.167969 217.886719 151.125 C 221.335938 151.085938 225.738281 150.652344 228.652344 148.609375 C 232.699219 145.777344 230.929688 138.566406 229.355469 134.652344 C 228.207031 131.792969 226.535156 128.730469 224.339844 125.464844 C 224.273438 125.367188 224.21875 125.375 224.179688 125.484375 L 224.144531 125.601562 C 224.066406 125.832031 224.082031 126.054688 224.195312 126.265625 C 226.199219 130.054688 227.921875 133.675781 228.464844 137.886719 Z M 240.191406 175.75 C 240.019531 177.476562 239.757812 179.128906 239.402344 180.699219 C 238.894531 182.933594 237.3125 184.324219 236.589844 186.386719 C 236.550781 186.5 236.570312 186.597656 236.652344 186.6875 C 236.730469 186.777344 236.832031 186.804688 236.945312 186.773438 L 238.535156 186.367188 C 238.660156 186.332031 238.777344 186.355469 238.886719 186.4375 C 238.992188 186.515625 239.046875 186.621094 239.054688 186.753906 C 239.089844 187.730469 238.949219 188.707031 238.625 189.6875 C 238.222656 190.917969 237.855469 192.214844 237.519531 193.582031 C 237.417969 194.011719 237.15625 194.28125 236.730469 194.394531 L 235.335938 194.78125 C 235.195312 194.816406 235.109375 194.910156 235.085938 195.050781 C 235.058594 195.195312 235.101562 195.3125 235.222656 195.394531 C 236.929688 196.621094 238.261719 198.667969 239.5 200.382812 C 239.714844 200.675781 239.808594 200.644531 239.785156 200.285156 C 239.582031 197.214844 239.886719 194.101562 240.695312 190.945312 C 241.191406 189.007812 241.644531 187.082031 242.050781 185.171875 C 242.164062 184.648438 242.21875 184.117188 242.214844 183.570312 C 242.214844 183.398438 242.136719 183.277344 241.972656 183.210938 L 241.195312 182.882812 C 241.015625 182.804688 240.957031 182.675781 241.023438 182.492188 C 242.28125 178.964844 243.769531 175.09375 243.546875 171.488281 C 243.488281 170.542969 243.226562 170.480469 242.757812 171.300781 C 242.644531 171.5 242.519531 171.683594 242.375 171.851562 C 241.957031 172.34375 241.789062 172.269531 241.878906 171.628906 C 241.980469 170.890625 242.085938 170.144531 242.195312 169.390625 C 242.761719 165.464844 242.835938 161.757812 242.410156 158.261719 C 242.296875 157.308594 241.855469 156.523438 241.066406 155.992188 C 239.847656 155.164062 238.558594 154.363281 237.207031 153.589844 C 237.140625 153.550781 237.09375 153.5 237.066406 153.429688 C 237.023438 153.335938 236.960938 153.269531 236.878906 153.226562 C 236.808594 153.191406 236.742188 153.191406 236.671875 153.226562 C 236.605469 153.257812 236.5625 153.3125 236.550781 153.386719 C 236.503906 153.601562 236.558594 153.792969 236.707031 153.953125 C 239.152344 156.523438 240.488281 159.671875 240.722656 163.394531 C 241 167.808594 239.636719 171.492188 238.058594 175.359375 C 238.003906 175.492188 238.023438 175.609375 238.117188 175.714844 C 238.210938 175.820312 238.324219 175.855469 238.460938 175.816406 L 239.839844 175.445312 C 240.101562 175.375 240.21875 175.476562 240.191406 175.75 Z M 261.230469 160.136719 C 256.933594 160.425781 252.734375 161.027344 248.632812 161.941406 C 247.214844 162.253906 245.855469 162.820312 244.554688 163.640625 C 244.371094 163.757812 244.332031 163.910156 244.445312 164.101562 L 244.515625 164.21875 C 244.585938 164.339844 244.6875 164.371094 244.8125 164.3125 C 245.914062 163.769531 247.070312 163.378906 248.277344 163.132812 C 252.523438 162.273438 256.925781 161.414062 261.484375 160.554688 C 261.511719 160.546875 261.527344 160.527344 261.523438 160.5 L 261.507812 160.371094 C 261.492188 160.203125 261.398438 160.125 261.230469 160.136719 Z M 233.960938 186.296875 C 235.09375 182.273438 233.691406 177.835938 232.054688 174.0625 C 231.960938 173.847656 231.988281 173.648438 232.132812 173.460938 C 234.902344 169.898438 235.917969 165.398438 234.429688 161.058594 C 234.375 160.914062 234.273438 160.859375 234.121094 160.890625 C 233.972656 160.921875 233.894531 161.015625 233.886719 161.175781 C 233.765625 162.933594 234.0625 164.828125 233.703125 166.539062 C 233.203125 168.949219 231.824219 170.882812 229.570312 172.347656 C 229.496094 172.394531 229.4375 172.453125 229.394531 172.527344 C 229.351562 172.605469 229.324219 172.683594 229.320312 172.773438 C 229.3125 172.859375 229.328125 172.941406 229.359375 173.023438 C 229.394531 173.101562 229.445312 173.171875 229.507812 173.226562 C 230.523438 174.105469 231.261719 175.058594 231.722656 176.085938 C 232.773438 178.421875 233.433594 181.066406 233.480469 183.664062 C 233.492188 184.496094 233.523438 185.359375 233.574219 186.253906 C 233.617188 187.050781 233.746094 187.066406 233.960938 186.296875 Z M 247.015625 167.382812 C 248.269531 166.640625 250.859375 165.605469 254.792969 164.277344 C 254.929688 164.230469 254.988281 164.136719 254.972656 163.992188 L 254.949219 163.832031 C 254.9375 163.738281 254.886719 163.699219 254.792969 163.714844 C 251.515625 164.199219 248.222656 164.894531 244.917969 165.800781 C 244.515625 165.910156 244.28125 166.171875 244.214844 166.582031 L 243.890625 168.652344 C 243.8125 169.152344 243.984375 169.265625 244.40625 168.988281 C 245.273438 168.429688 246.144531 167.894531 247.015625 167.382812 Z M 247.015625 167.382812 " fill-opacity="1" fill-rule="nonzero"/></g><g clip-path="url(#dcb4102561)"><path fill="#5b5b5b" d="M 140.480469 133.867188 C 140.042969 133.957031 139.65625 134.179688 139.316406 134.53125 C 138.441406 135.421875 137.558594 136.304688 136.660156 137.179688 C 136.117188 137.703125 135.929688 137.597656 136.097656 136.859375 C 137.011719 132.863281 138.992188 127.902344 143.421875 127.210938 C 143.519531 127.195312 143.59375 127.230469 143.652344 127.308594 C 143.707031 127.390625 143.714844 127.476562 143.667969 127.5625 C 143.480469 127.914062 143.4375 128.292969 143.542969 128.695312 C 143.667969 129.15625 143.808594 129.164062 143.972656 128.714844 L 144.410156 127.507812 C 144.546875 127.148438 144.789062 126.898438 145.140625 126.75 L 145.621094 126.554688 C 146.015625 126.390625 146.164062 126.515625 146.066406 126.933594 L 145.644531 128.742188 C 145.628906 128.828125 145.660156 128.890625 145.742188 128.925781 C 145.824219 128.957031 145.890625 128.9375 145.941406 128.867188 C 146.929688 127.265625 147.035156 125.394531 149.664062 125.992188 C 149.742188 126.011719 149.792969 126.058594 149.824219 126.136719 C 149.851562 126.210938 149.84375 126.28125 149.800781 126.347656 L 148.480469 128.230469 C 147.730469 129.304688 147.925781 129.519531 149.066406 128.878906 C 152.117188 127.167969 154.160156 124.5 155.195312 120.878906 C 155.59375 119.488281 155.570312 117.917969 155.128906 116.171875 C 155.113281 116.109375 155.074219 116.0625 155.015625 116.03125 C 154.957031 116 154.898438 115.992188 154.835938 116.015625 L 154.726562 116.050781 C 154.664062 116.070312 154.640625 116.113281 154.648438 116.179688 C 154.917969 118.34375 154.589844 120.613281 153.667969 122.988281 C 153.214844 124.152344 152.34375 124.730469 151.054688 124.714844 C 148.339844 124.679688 145.761719 124.898438 143.316406 125.375 C 139.914062 126.042969 137.1875 129.410156 135.976562 132.507812 C 135.3125 134.191406 135.359375 136.0625 135.050781 137.839844 C 134.933594 138.511719 134.632812 139.101562 134.140625 139.617188 C 132.332031 141.523438 130.433594 143.1875 128.449219 144.613281 C 124.726562 147.277344 122.5625 151.648438 123.421875 156.246094 C 124.117188 159.984375 126.4375 162.546875 130.386719 163.933594 C 130.847656 164.097656 131.15625 164.554688 131.261719 165.023438 C 131.5625 166.367188 131.9375 167.632812 132.386719 168.816406 C 133.523438 171.820312 134.75 174.761719 136.066406 177.644531 C 137.566406 180.941406 138.5 184.210938 139.78125 187.554688 C 140.757812 190.097656 140.328125 192.585938 140.953125 195.15625 C 142.023438 199.558594 142.867188 202.6875 143.480469 204.539062 C 144.707031 208.222656 146.0625 212.183594 147.550781 216.421875 C 148.265625 218.460938 148.507812 220.207031 147.347656 222.195312 C 145.199219 225.886719 143.917969 229.265625 142.902344 233.847656 C 142.816406 234.21875 142.582031 234.417969 142.203125 234.441406 C 142.128906 234.445312 142.050781 234.433594 141.980469 234.414062 C 141.867188 234.382812 141.78125 234.316406 141.722656 234.21875 C 141.664062 234.121094 141.644531 234.015625 141.664062 233.902344 C 142.335938 230.527344 143.332031 227.371094 144.652344 224.429688 C 145.320312 222.945312 146 221.472656 146.683594 220.019531 C 147.109375 219.113281 147.125 218.210938 146.796875 217.257812 C 144.203125 209.753906 141.898438 202.601562 139.882812 195.808594 C 139.414062 194.226562 139.195312 192.351562 139.230469 190.179688 C 139.238281 189.550781 139.113281 188.75 138.953125 188.160156 C 137.664062 183.273438 135.992188 178.773438 133.9375 174.660156 C 133.902344 174.589844 133.851562 174.53125 133.785156 174.484375 C 133.71875 174.4375 133.644531 174.40625 133.566406 174.394531 C 133.488281 174.382812 133.410156 174.394531 133.332031 174.421875 C 133.257812 174.449219 133.191406 174.492188 133.136719 174.550781 C 132.597656 175.140625 132.136719 175.777344 131.753906 176.453125 C 129.535156 180.421875 127.320312 183.886719 123.582031 186.464844 C 122.007812 187.546875 119.820312 187.15625 118.152344 186.449219 C 116.742188 185.847656 115.308594 185.367188 113.847656 185.007812 C 112.621094 184.703125 111.449219 184.109375 110.339844 183.226562 C 103.101562 177.453125 98.601562 173.691406 92.09375 169.921875 C 91.960938 169.84375 91.894531 169.730469 91.894531 169.578125 C 91.898438 169.425781 91.964844 169.3125 92.097656 169.238281 C 93.855469 168.273438 95.378906 166.898438 96.667969 165.117188 C 97.113281 164.5 97.597656 164.472656 98.117188 165.027344 C 98.550781 165.488281 99.15625 165.925781 99.933594 166.34375 C 105.609375 169.386719 111.722656 171.625 117.578125 173.957031 C 119.242188 174.621094 120.722656 175.546875 122.296875 176.398438 C 122.34375 176.421875 122.375 176.40625 122.394531 176.355469 C 122.40625 176.316406 122.410156 176.277344 122.40625 176.238281 C 122.40625 176.183594 122.390625 176.140625 122.351562 176.105469 C 120.183594 173.960938 117.613281 172.359375 114.636719 171.304688 C 110.050781 169.679688 105.765625 168.078125 101.78125 166.503906 C 100.414062 165.964844 99.132812 165.082031 97.914062 164.242188 C 97.890625 164.226562 97.882812 164.207031 97.894531 164.183594 L 97.960938 164.042969 C 98.019531 163.917969 98.117188 163.875 98.25 163.914062 C 99.492188 164.285156 100.742188 164.714844 102.003906 165.199219 C 106.414062 166.890625 110.910156 168.675781 115.488281 170.550781 C 116.390625 170.921875 117.304688 171.367188 118.222656 171.878906 C 118.328125 171.9375 118.433594 171.949219 118.546875 171.910156 C 118.65625 171.875 118.738281 171.804688 118.789062 171.695312 C 119.460938 170.285156 120.375 169.09375 120.976562 167.613281 C 121.800781 165.582031 122.484375 163.769531 123.023438 162.171875 C 123.324219 161.273438 123.277344 160.328125 122.921875 159.453125 C 122.082031 157.359375 121.835938 154.890625 122.195312 152.039062 C 122.652344 148.386719 125.160156 145.425781 128.046875 143.25 C 129.804688 141.921875 131.484375 140.644531 133.089844 139.417969 C 133.730469 138.917969 134.097656 138.078125 134.136719 137.277344 C 134.246094 135.105469 134.738281 133.046875 135.617188 131.097656 C 137.285156 127.382812 140.148438 125.214844 144.203125 124.601562 C 146.375 124.273438 148.671875 124.042969 151.09375 123.902344 C 153.371094 123.769531 153.917969 122.054688 154.132812 120.128906 C 154.324219 118.425781 153.96875 116.859375 153.878906 115.171875 C 153.777344 113.277344 152.761719 111.660156 152.0625 109.941406 C 151.25 107.953125 150.492188 105.789062 149.785156 103.445312 C 149.511719 102.53125 149.429688 101.644531 149.542969 100.785156 C 149.804688 98.773438 149.820312 97.070312 149.328125 95.027344 C 148.890625 93.191406 148.875 91.40625 148.226562 89.605469 C 147.355469 87.175781 147.441406 84.148438 147.929688 81.664062 C 148.433594 79.097656 150.613281 77.328125 152.882812 76.316406 C 155.109375 75.320312 157.445312 74.292969 159.867188 73.835938 C 163.558594 73.136719 167.089844 73.199219 170.453125 74.023438 C 180.96875 76.597656 181.484375 88.40625 181.453125 97.191406 C 181.445312 98.105469 181.605469 98.136719 181.925781 97.277344 C 182.125 96.742188 182.257812 96.160156 182.320312 95.542969 C 182.671875 91.921875 182.535156 88.351562 181.90625 84.832031 C 181.605469 83.125 180.953125 81.582031 180.410156 79.953125 C 180.378906 79.855469 180.390625 79.765625 180.4375 79.675781 C 180.484375 79.585938 180.554688 79.53125 180.652344 79.503906 C 182.722656 78.964844 184.070312 79.578125 185.746094 80.730469 C 187.3125 81.816406 188.351562 83.515625 189.398438 85.054688 C 189.5 85.203125 189.605469 85.207031 189.71875 85.070312 C 189.828125 84.941406 189.855469 84.800781 189.796875 84.640625 C 188.371094 80.9375 185.070312 76.1875 180.480469 77.394531 C 179.46875 77.664062 178.246094 77.464844 177.449219 76.855469 C 176.847656 76.390625 176.925781 76.136719 177.6875 76.097656 C 178.738281 76.046875 179.796875 75.933594 180.867188 75.753906 C 181.285156 75.6875 181.726562 75.746094 182.195312 75.9375 C 184.074219 76.703125 185.652344 77.480469 186.925781 78.261719 C 187.734375 78.757812 188.589844 79.738281 189.484375 81.203125 C 190.976562 83.632812 191.769531 86.089844 191.863281 88.570312 C 192.011719 92.507812 191.179688 95.683594 189.222656 98.941406 C 187.347656 102.054688 186.535156 105.605469 186.789062 109.582031 C 186.835938 110.324219 187.195312 111.011719 187.429688 111.707031 C 187.546875 112.058594 187.449219 112.136719 187.136719 111.941406 C 186.929688 111.808594 186.757812 111.609375 186.617188 111.335938 C 186.222656 110.574219 185.824219 109.867188 185.410156 109.21875 C 185.078125 108.695312 184.894531 108.746094 184.867188 109.363281 C 184.640625 114.402344 184.527344 119.515625 187.0625 123.972656 C 187.085938 124.007812 187.085938 124.042969 187.0625 124.078125 C 187.042969 124.113281 187.007812 124.132812 186.96875 124.128906 C 182.429688 124.015625 178.878906 124.210938 175.503906 120.59375 C 172.636719 117.535156 173.019531 113.863281 173.617188 110.007812 C 173.640625 109.863281 173.59375 109.75 173.476562 109.664062 C 173.359375 109.578125 173.238281 109.570312 173.109375 109.632812 C 170.203125 111.09375 170.078125 115.125 170.160156 118.015625 C 170.230469 120.523438 171.648438 123.089844 174.066406 123.773438 C 178.289062 124.96875 183.417969 125.734375 187.082031 128.539062 C 191.597656 131.984375 194.304688 136.460938 195.207031 141.96875 C 195.902344 146.226562 196.691406 149.609375 197.570312 152.121094 C 199.25 156.921875 200.902344 161.722656 202.523438 166.523438 C 203.015625 167.976562 203.488281 169.753906 203.941406 171.863281 C 204.117188 172.667969 204.113281 173.457031 203.9375 174.222656 C 203.140625 177.703125 202.09375 180.746094 200.804688 183.351562 C 197.023438 190.996094 192.660156 198.09375 187.710938 204.648438 C 186.949219 205.65625 186.136719 206.574219 185.273438 207.402344 C 185.113281 207.558594 185.003906 207.746094 184.945312 207.960938 C 184.890625 208.179688 184.894531 208.394531 184.960938 208.609375 C 185.816406 211.355469 186.527344 213.964844 187.101562 216.441406 C 188.234375 221.378906 186.535156 226.847656 184.363281 231.3125 C 183.820312 232.433594 182.625 234.335938 181.199219 234.335938 C 169.234375 234.34375 157.304688 234.359375 145.40625 234.382812 C 145.320312 234.382812 145.253906 234.347656 145.207031 234.277344 C 145.15625 234.207031 145.148438 234.132812 145.183594 234.054688 L 149.050781 224.34375 C 149.183594 224 149.4375 223.8125 149.804688 223.78125 C 151.015625 223.679688 152.265625 223.609375 153.5625 223.5625 C 154.910156 223.519531 156.203125 224.058594 157.433594 224.542969 C 158.273438 224.878906 158.351562 224.75 157.660156 224.160156 C 155.867188 222.617188 153.683594 221.464844 151.109375 220.707031 C 150.867188 220.636719 150.753906 220.476562 150.761719 220.226562 C 150.890625 216.066406 150.945312 212.128906 151.757812 208.066406 C 152.144531 206.109375 151.820312 205.980469 150.785156 207.6875 L 149.152344 210.359375 C 149.074219 210.484375 148.964844 210.539062 148.816406 210.515625 C 148.671875 210.492188 148.582031 210.40625 148.550781 210.261719 C 148.015625 208 147.746094 205.5 147.742188 202.757812 C 147.742188 201.859375 147.84375 201.007812 148.046875 200.207031 C 148.109375 199.953125 148.183594 199.949219 148.261719 200.195312 C 148.382812 200.582031 148.460938 200.980469 148.488281 201.394531 C 148.566406 202.484375 148.867188 203.613281 149.351562 204.570312 C 149.871094 205.609375 150.078125 205.550781 149.972656 204.394531 C 149.84375 202.980469 149.683594 201.546875 149.503906 200.089844 C 149.339844 198.773438 149.308594 197.644531 149.417969 196.703125 C 149.59375 195.171875 149.691406 193.675781 150.21875 192.195312 C 150.6875 190.882812 151.242188 189.503906 151.878906 188.058594 C 152.277344 187.164062 152.105469 187.035156 151.359375 187.667969 C 150.9375 188.027344 150.582031 188.46875 150.296875 188.992188 C 149.269531 190.867188 148.214844 192.808594 147.140625 194.816406 C 146.003906 196.921875 145.332031 199.117188 145.117188 201.398438 C 145.109375 201.460938 145.070312 201.5 145.007812 201.507812 C 144.941406 201.519531 144.894531 201.492188 144.867188 201.433594 C 143.0625 196.859375 141.917969 192.375 141.4375 187.980469 C 141.382812 187.472656 141.554688 187.375 141.957031 187.6875 C 142.332031 187.972656 142.679688 188.304688 143.007812 188.679688 C 143.445312 189.183594 143.679688 189.769531 143.703125 190.4375 C 143.730469 191.050781 143.878906 191.621094 144.152344 192.140625 C 144.273438 192.367188 144.382812 192.359375 144.476562 192.121094 C 144.839844 191.203125 145.121094 189.691406 144.292969 188.902344 C 142.929688 187.609375 141.53125 185.875 140.101562 183.707031 C 138.566406 181.394531 138.617188 177.273438 138.785156 174.4375 C 138.792969 174.292969 138.753906 174.160156 138.664062 174.042969 C 138.578125 173.929688 138.460938 173.855469 138.320312 173.824219 C 136.8125 173.511719 136.171875 172.125 135.539062 170.902344 C 134.484375 168.84375 133.601562 166.765625 132.902344 164.664062 C 132.648438 163.910156 132.175781 163.40625 131.480469 163.144531 C 127.285156 161.5625 124.382812 158.191406 125.332031 153.515625 C 126.210938 149.179688 128.59375 146.011719 131.914062 142.777344 C 134.707031 140.066406 137.613281 137.1875 140.628906 134.144531 C 140.882812 133.882812 140.835938 133.789062 140.480469 133.867188 Z M 161.625 76.105469 C 161.617188 76.023438 161.640625 75.953125 161.691406 75.890625 C 161.765625 75.804688 161.859375 75.757812 161.972656 75.75 C 164.554688 75.503906 166.804688 75.664062 168.722656 76.234375 C 171.234375 76.976562 173.710938 78.179688 176.152344 79.847656 C 176.175781 79.863281 176.195312 79.863281 176.214844 79.839844 L 176.300781 79.742188 C 176.34375 79.695312 176.34375 79.652344 176.296875 79.609375 C 173.769531 77.070312 170.722656 75.347656 167.164062 74.4375 C 165.1875 73.933594 163.105469 73.9375 160.925781 74.457031 C 159.265625 74.851562 158.023438 75.953125 156.3125 76.308594 C 151.636719 77.265625 148.59375 79.980469 148.667969 84.984375 C 148.679688 85.722656 148.832031 85.753906 149.128906 85.074219 C 149.378906 84.503906 149.609375 83.925781 149.820312 83.34375 C 151.375 79.097656 157.601562 76.644531 161.660156 77.367188 C 162.625 77.535156 163.585938 77.707031 164.542969 77.875 C 165.324219 78.011719 165.394531 77.847656 164.753906 77.378906 C 164.007812 76.839844 163.050781 76.507812 161.882812 76.378906 C 161.71875 76.363281 161.632812 76.269531 161.625 76.105469 Z M 153.957031 110.429688 C 152.652344 106.875 149.972656 102.96875 151.070312 99.015625 C 151.488281 97.519531 151.566406 96.230469 151.300781 95.140625 C 150.75 92.878906 150.398438 90.714844 150.25 88.644531 C 150.230469 88.347656 150.171875 88.339844 150.078125 88.621094 C 148.945312 91.941406 150.40625 94.945312 150.386719 98.234375 C 150.371094 100.980469 150.417969 103.335938 151.320312 105.992188 C 152.054688 108.171875 152.90625 110.253906 153.867188 112.230469 C 154.523438 113.574219 155.414062 114.449219 156.546875 114.859375 C 157.167969 115.082031 157.234375 114.96875 156.753906 114.519531 C 155.445312 113.308594 154.511719 111.945312 153.957031 110.429688 Z M 177.613281 127.792969 C 177.214844 128.714844 176.742188 129.757812 176.207031 130.925781 C 176.066406 131.226562 176.007812 131.4375 176.023438 131.5625 C 176.078125 131.988281 176.230469 132.027344 176.480469 131.671875 C 177.304688 130.484375 178.074219 129.265625 178.792969 128.011719 C 178.878906 127.863281 179.003906 127.78125 179.175781 127.765625 C 179.515625 127.734375 179.851562 127.753906 180.183594 127.820312 C 183.875 128.550781 186.964844 130.179688 189.449219 132.710938 C 189.664062 132.929688 189.78125 132.886719 189.800781 132.578125 C 189.808594 132.378906 189.753906 132.195312 189.636719 132.035156 C 187.765625 129.503906 184.535156 127.9375 181.527344 127.019531 C 179.148438 126.292969 176.835938 125.589844 174.597656 124.914062 C 173.578125 124.609375 172.636719 124.097656 171.78125 123.390625 C 171.195312 122.910156 171.0625 123.011719 171.382812 123.699219 C 171.929688 124.871094 173.800781 125.78125 174.972656 126.417969 C 175.425781 126.664062 174.945312 127.75 173.53125 129.667969 C 173.429688 129.808594 173.402344 129.960938 173.441406 130.125 L 173.476562 130.28125 C 173.480469 130.300781 173.496094 130.316406 173.515625 130.320312 C 173.535156 130.328125 173.554688 130.324219 173.566406 130.308594 C 174.539062 129.40625 175.320312 128.410156 175.917969 127.328125 C 176.003906 127.167969 176.128906 127.050781 176.296875 126.976562 C 176.460938 126.902344 176.628906 126.886719 176.808594 126.925781 L 177.222656 127.015625 C 177.667969 127.113281 177.800781 127.371094 177.613281 127.792969 Z M 154.109375 136.808594 C 154.691406 136.367188 155.25 135.894531 155.785156 135.386719 C 155.796875 135.371094 155.796875 135.359375 155.785156 135.34375 L 155.714844 135.246094 C 155.675781 135.191406 155.625 135.179688 155.566406 135.214844 C 153.339844 136.4375 150.664062 138.101562 147.535156 140.203125 C 142.410156 143.644531 136.261719 148.929688 139.222656 155.949219 C 139.476562 156.550781 139.640625 156.527344 139.710938 155.875 C 140.253906 151.0625 141.738281 147.113281 145.457031 143.796875 C 147.53125 141.949219 150.414062 139.617188 154.109375 136.808594 Z M 172.414062 192.992188 C 172.480469 193.050781 172.507812 193.125 172.492188 193.214844 C 172.476562 193.300781 172.429688 193.363281 172.34375 193.402344 C 170.722656 194.128906 169.210938 194.96875 167.816406 195.925781 C 166.871094 196.570312 166.953125 196.746094 168.058594 196.453125 L 173.007812 195.136719 C 173.355469 195.042969 173.703125 195.046875 174.050781 195.152344 C 174.398438 195.253906 174.691406 195.4375 174.9375 195.707031 L 177.898438 198.949219 C 177.996094 199.054688 178.019531 199.175781 177.964844 199.304688 L 175.507812 205.820312 C 175.484375 205.882812 175.488281 205.945312 175.527344 206.003906 C 175.5625 206.0625 175.617188 206.097656 175.683594 206.101562 L 175.820312 206.117188 C 175.875 206.117188 175.914062 206.097656 175.941406 206.050781 C 178.609375 201.078125 180.527344 195.777344 182.664062 190.414062 C 184.066406 186.894531 185.882812 183.457031 188.109375 180.105469 C 188.453125 179.585938 188.761719 178.992188 189.039062 178.324219 C 189.175781 177.988281 189.191406 177.648438 189.085938 177.304688 C 188.660156 175.9375 188.203125 174.652344 187.714844 173.445312 C 184.488281 165.425781 181.386719 158.105469 178.410156 151.484375 C 178.242188 151.109375 178.082031 151.113281 177.925781 151.492188 C 177.667969 152.105469 177.539062 152.714844 177.242188 153.324219 C 174.152344 159.652344 171.460938 166.125 169.171875 172.746094 C 168.261719 175.378906 167.546875 178.585938 167.464844 181.179688 C 167.3125 185.921875 168.960938 189.859375 172.414062 192.992188 Z M 146.640625 171.972656 C 146.667969 171.953125 146.671875 171.902344 146.648438 171.828125 C 146.628906 171.75 146.585938 171.644531 146.519531 171.515625 C 146.457031 171.386719 146.367188 171.234375 146.257812 171.058594 C 146.152344 170.878906 146.023438 170.683594 145.875 170.464844 C 145.726562 170.246094 145.5625 170.011719 145.382812 169.761719 C 145.203125 169.511719 145.007812 169.25 144.800781 168.976562 C 144.59375 168.703125 144.378906 168.425781 144.15625 168.140625 C 143.929688 167.855469 143.699219 167.566406 143.464844 167.28125 C 143.230469 166.996094 142.996094 166.710938 142.761719 166.433594 C 142.527344 166.15625 142.296875 165.890625 142.070312 165.632812 C 141.84375 165.378906 141.625 165.136719 141.414062 164.910156 C 141.207031 164.683594 141.007812 164.476562 140.824219 164.285156 C 140.640625 164.097656 140.472656 163.933594 140.320312 163.792969 C 140.167969 163.652344 140.035156 163.535156 139.921875 163.445312 C 139.808594 163.355469 139.714844 163.292969 139.644531 163.257812 C 139.574219 163.222656 139.523438 163.214844 139.5 163.238281 C 139.472656 163.257812 139.46875 163.308594 139.488281 163.382812 C 139.511719 163.460938 139.554688 163.5625 139.617188 163.691406 C 139.683594 163.824219 139.773438 163.976562 139.878906 164.152344 C 139.988281 164.328125 140.117188 164.527344 140.265625 164.746094 C 140.414062 164.964844 140.578125 165.195312 140.757812 165.449219 C 140.9375 165.699219 141.132812 165.960938 141.339844 166.234375 C 141.542969 166.503906 141.761719 166.785156 141.984375 167.070312 C 142.210938 167.355469 142.441406 167.640625 142.675781 167.929688 C 142.910156 168.214844 143.144531 168.496094 143.378906 168.773438 C 143.613281 169.050781 143.84375 169.320312 144.070312 169.574219 C 144.296875 169.832031 144.515625 170.074219 144.726562 170.300781 C 144.933594 170.527344 145.132812 170.734375 145.316406 170.921875 C 145.5 171.109375 145.667969 171.277344 145.820312 171.417969 C 145.972656 171.558594 146.105469 171.675781 146.21875 171.765625 C 146.332031 171.855469 146.425781 171.917969 146.496094 171.953125 C 146.566406 171.988281 146.617188 171.996094 146.640625 171.972656 Z M 146.640625 171.972656 " fill-opacity="1" fill-rule="nonzero"/></g><g clip-path="url(#5739cf87b3)"><path fill="#5b5b5b" d="M 286.222656 174.121094 C 285.609375 174.117188 285 174.082031 284.394531 174.015625 C 283.785156 173.949219 283.183594 173.851562 282.585938 173.726562 C 281.988281 173.597656 281.398438 173.441406 280.816406 173.257812 C 280.230469 173.070312 279.660156 172.859375 279.097656 172.613281 C 278.535156 172.371094 277.984375 172.101562 277.449219 171.804688 C 276.914062 171.507812 276.394531 171.183594 275.886719 170.832031 C 275.382812 170.484375 274.894531 170.109375 274.425781 169.710938 C 273.957031 169.3125 273.511719 168.894531 273.082031 168.449219 C 272.65625 168.007812 272.25 167.542969 271.867188 167.058594 C 271.480469 166.574219 271.121094 166.074219 270.789062 165.554688 C 270.453125 165.035156 270.144531 164.5 269.859375 163.949219 C 269.578125 163.398438 269.320312 162.835938 269.09375 162.261719 C 268.863281 161.683594 268.664062 161.097656 268.492188 160.5 C 268.320312 159.90625 268.175781 159.300781 268.0625 158.691406 C 267.949219 158.082031 267.863281 157.464844 267.8125 156.847656 C 267.757812 156.230469 267.730469 155.609375 267.738281 154.988281 C 267.742188 154.367188 267.777344 153.746094 267.84375 153.128906 C 267.910156 152.511719 268.003906 151.898438 268.128906 151.289062 C 268.253906 150.679688 268.40625 150.082031 268.589844 149.488281 C 268.769531 148.894531 268.980469 148.3125 269.21875 147.738281 C 269.457031 147.167969 269.722656 146.609375 270.015625 146.0625 C 270.308594 145.519531 270.628906 144.988281 270.972656 144.476562 C 271.316406 143.960938 271.683594 143.464844 272.074219 142.988281 C 272.46875 142.511719 272.878906 142.054688 273.316406 141.621094 C 273.753906 141.183594 274.207031 140.773438 274.683594 140.382812 C 275.160156 139.992188 275.652344 139.625 276.164062 139.285156 C 276.671875 138.945312 277.199219 138.628906 277.742188 138.34375 C 278.28125 138.054688 278.835938 137.792969 279.402344 137.5625 C 279.96875 137.328125 280.546875 137.125 281.132812 136.949219 C 281.71875 136.773438 282.308594 136.628906 282.910156 136.511719 C 283.511719 136.394531 284.113281 136.308594 284.722656 136.253906 C 285.332031 136.199219 285.941406 136.171875 286.550781 136.179688 C 287.164062 136.183594 287.773438 136.21875 288.378906 136.285156 C 288.988281 136.351562 289.589844 136.449219 290.1875 136.574219 C 290.785156 136.703125 291.375 136.859375 291.957031 137.042969 C 292.542969 137.226562 293.113281 137.441406 293.675781 137.683594 C 294.238281 137.929688 294.789062 138.199219 295.324219 138.496094 C 295.859375 138.792969 296.378906 139.117188 296.886719 139.464844 C 297.390625 139.816406 297.875 140.191406 298.34375 140.589844 C 298.8125 140.988281 299.261719 141.40625 299.691406 141.851562 C 300.117188 142.292969 300.523438 142.757812 300.90625 143.242188 C 301.289062 143.722656 301.648438 144.226562 301.984375 144.746094 C 302.320312 145.265625 302.628906 145.800781 302.910156 146.351562 C 303.195312 146.902344 303.449219 147.464844 303.679688 148.039062 C 303.910156 148.617188 304.109375 149.203125 304.28125 149.800781 C 304.453125 150.394531 304.597656 151 304.710938 151.609375 C 304.824219 152.21875 304.90625 152.835938 304.960938 153.453125 C 305.015625 154.070312 305.042969 154.691406 305.035156 155.3125 C 305.03125 155.933594 304.996094 156.554688 304.929688 157.171875 C 304.863281 157.789062 304.769531 158.402344 304.644531 159.011719 C 304.519531 159.621094 304.367188 160.21875 304.183594 160.8125 C 304.003906 161.40625 303.792969 161.988281 303.554688 162.5625 C 303.3125 163.132812 303.046875 163.691406 302.757812 164.238281 C 302.464844 164.78125 302.144531 165.3125 301.800781 165.824219 C 301.457031 166.339844 301.089844 166.835938 300.699219 167.3125 C 300.304688 167.789062 299.890625 168.246094 299.457031 168.679688 C 299.019531 169.117188 298.566406 169.527344 298.089844 169.917969 C 297.613281 170.308594 297.121094 170.675781 296.609375 171.015625 C 296.097656 171.355469 295.574219 171.671875 295.03125 171.957031 C 294.492188 172.246094 293.9375 172.507812 293.371094 172.738281 C 292.804688 172.972656 292.226562 173.175781 291.640625 173.351562 C 291.054688 173.527344 290.460938 173.671875 289.863281 173.789062 C 289.261719 173.90625 288.660156 173.992188 288.050781 174.046875 C 287.441406 174.101562 286.832031 174.128906 286.222656 174.121094 Z M 286.539062 170.121094 C 287.503906 170.109375 288.460938 170.003906 289.40625 169.804688 C 290.351562 169.601562 291.269531 169.308594 292.160156 168.921875 C 293.046875 168.539062 293.890625 168.066406 294.6875 167.511719 C 295.484375 166.960938 296.222656 166.332031 296.898438 165.628906 C 297.574219 164.925781 298.175781 164.164062 298.707031 163.34375 C 299.234375 162.519531 299.679688 161.652344 300.039062 160.742188 C 300.398438 159.832031 300.667969 158.890625 300.847656 157.925781 C 301.023438 156.960938 301.109375 155.988281 301.097656 155.003906 C 301.089844 154.023438 300.984375 153.050781 300.785156 152.089844 C 300.585938 151.128906 300.296875 150.195312 299.917969 149.292969 C 299.539062 148.386719 299.078125 147.53125 298.53125 146.71875 C 297.984375 145.90625 297.367188 145.160156 296.675781 144.472656 C 295.988281 143.785156 295.238281 143.171875 294.429688 142.632812 C 293.617188 142.097656 292.765625 141.644531 291.871094 141.277344 C 290.972656 140.910156 290.050781 140.636719 289.097656 140.457031 C 288.148438 140.273438 287.191406 140.1875 286.226562 140.199219 C 285.257812 140.207031 284.304688 140.3125 283.355469 140.515625 C 282.410156 140.71875 281.496094 141.011719 280.605469 141.394531 C 279.714844 141.78125 278.875 142.25 278.074219 142.804688 C 277.277344 143.359375 276.539062 143.988281 275.863281 144.6875 C 275.1875 145.390625 274.585938 146.152344 274.058594 146.976562 C 273.53125 147.796875 273.085938 148.664062 272.726562 149.578125 C 272.363281 150.488281 272.097656 151.425781 271.917969 152.390625 C 271.738281 153.355469 271.65625 154.332031 271.664062 155.3125 C 271.675781 156.296875 271.78125 157.269531 271.976562 158.230469 C 272.175781 159.191406 272.464844 160.125 272.84375 161.027344 C 273.222656 161.929688 273.6875 162.789062 274.230469 163.601562 C 274.777344 164.410156 275.394531 165.160156 276.085938 165.847656 C 276.777344 166.535156 277.527344 167.148438 278.335938 167.683594 C 279.144531 168.222656 279.996094 168.675781 280.894531 169.039062 C 281.792969 169.40625 282.714844 169.679688 283.664062 169.863281 C 284.613281 170.046875 285.570312 170.128906 286.539062 170.121094 Z M 286.539062 170.121094 " fill-opacity="1" fill-rule="nonzero"/></g><g clip-path="url(#ada2e79074)"><path fill="#5b5b5b" d="M 83.644531 169.5625 C 82.714844 169.535156 81.792969 169.414062 80.886719 169.203125 C 79.976562 168.992188 79.097656 168.691406 78.25 168.304688 C 77.398438 167.917969 76.59375 167.449219 75.835938 166.898438 C 75.074219 166.351562 74.378906 165.734375 73.738281 165.042969 C 73.097656 164.355469 72.53125 163.609375 72.039062 162.808594 C 71.542969 162.007812 71.132812 161.164062 70.800781 160.277344 C 70.472656 159.394531 70.230469 158.484375 70.074219 157.550781 C 69.921875 156.617188 69.855469 155.679688 69.886719 154.734375 C 69.914062 153.789062 70.03125 152.851562 70.242188 151.929688 C 70.449219 151.007812 70.746094 150.113281 71.128906 149.25 C 71.511719 148.386719 71.972656 147.570312 72.511719 146.800781 C 73.054688 146.027344 73.664062 145.316406 74.34375 144.667969 C 75.019531 144.019531 75.753906 143.445312 76.546875 142.941406 C 77.335938 142.4375 78.167969 142.019531 79.039062 141.683594 C 79.910156 141.347656 80.804688 141.097656 81.722656 140.941406 C 82.640625 140.785156 83.566406 140.71875 84.5 140.746094 C 85.429688 140.773438 86.351562 140.894531 87.257812 141.105469 C 88.167969 141.316406 89.046875 141.617188 89.894531 142.003906 C 90.746094 142.394531 91.550781 142.859375 92.308594 143.410156 C 93.066406 143.957031 93.765625 144.578125 94.40625 145.265625 C 95.042969 145.953125 95.609375 146.699219 96.105469 147.5 C 96.597656 148.304688 97.011719 149.144531 97.34375 150.03125 C 97.671875 150.914062 97.914062 151.824219 98.070312 152.757812 C 98.222656 153.691406 98.285156 154.628906 98.257812 155.578125 C 98.230469 156.523438 98.113281 157.457031 97.902344 158.378906 C 97.695312 159.300781 97.398438 160.195312 97.015625 161.058594 C 96.632812 161.921875 96.171875 162.738281 95.628906 163.511719 C 95.089844 164.28125 94.480469 164.992188 93.800781 165.640625 C 93.121094 166.289062 92.386719 166.867188 91.597656 167.367188 C 90.808594 167.871094 89.976562 168.289062 89.105469 168.628906 C 88.234375 168.964844 87.339844 169.210938 86.421875 169.367188 C 85.5 169.523438 84.578125 169.589844 83.644531 169.5625 Z M 84.488281 166.554688 C 85.226562 166.527344 85.953125 166.429688 86.667969 166.257812 C 87.386719 166.085938 88.078125 165.84375 88.75 165.53125 C 89.417969 165.21875 90.054688 164.84375 90.648438 164.40625 C 91.246094 163.96875 91.796875 163.476562 92.296875 162.925781 C 92.800781 162.378906 93.242188 161.785156 93.628906 161.148438 C 94.015625 160.511719 94.335938 159.84375 94.59375 159.140625 C 94.851562 158.4375 95.035156 157.71875 95.152344 156.980469 C 95.269531 156.238281 95.316406 155.496094 95.289062 154.746094 C 95.261719 154 95.160156 153.261719 94.992188 152.53125 C 94.820312 151.804688 94.582031 151.097656 94.273438 150.417969 C 93.964844 149.738281 93.597656 149.09375 93.164062 148.484375 C 92.734375 147.878906 92.246094 147.320312 91.707031 146.808594 C 91.167969 146.300781 90.582031 145.847656 89.957031 145.453125 C 89.328125 145.0625 88.667969 144.734375 87.976562 144.472656 C 87.289062 144.210938 86.578125 144.019531 85.851562 143.902344 C 85.121094 143.78125 84.390625 143.734375 83.65625 143.761719 C 82.917969 143.789062 82.191406 143.890625 81.472656 144.0625 C 80.757812 144.234375 80.0625 144.476562 79.394531 144.789062 C 78.722656 145.097656 78.089844 145.472656 77.492188 145.914062 C 76.898438 146.351562 76.347656 146.84375 75.847656 147.390625 C 75.34375 147.941406 74.902344 148.53125 74.515625 149.171875 C 74.128906 149.808594 73.808594 150.476562 73.550781 151.179688 C 73.292969 151.878906 73.105469 152.601562 72.992188 153.339844 C 72.875 154.078125 72.828125 154.824219 72.855469 155.570312 C 72.882812 156.320312 72.984375 157.058594 73.152344 157.785156 C 73.324219 158.515625 73.5625 159.21875 73.871094 159.902344 C 74.175781 160.582031 74.546875 161.226562 74.976562 161.832031 C 75.410156 162.441406 75.894531 163 76.4375 163.507812 C 76.976562 164.019531 77.558594 164.472656 78.1875 164.863281 C 78.816406 165.257812 79.476562 165.585938 80.164062 165.847656 C 80.855469 166.105469 81.566406 166.296875 82.292969 166.417969 C 83.019531 166.535156 83.753906 166.582031 84.488281 166.554688 Z M 84.488281 166.554688 " fill-opacity="1" fill-rule="nonzero"/></g><path fill="#5b5b5b" d="M 286.519531 168.96875 C 285.628906 168.976562 284.742188 168.898438 283.867188 168.726562 C 282.992188 168.558594 282.136719 168.304688 281.3125 167.964844 C 280.484375 167.621094 279.695312 167.203125 278.949219 166.707031 C 278.203125 166.207031 277.511719 165.640625 276.875 165.003906 C 276.238281 164.367188 275.667969 163.675781 275.167969 162.925781 C 274.664062 162.175781 274.238281 161.382812 273.890625 160.546875 C 273.542969 159.710938 273.277344 158.847656 273.09375 157.960938 C 272.914062 157.070312 272.816406 156.171875 272.808594 155.265625 C 272.800781 154.355469 272.882812 153.457031 273.046875 152.566406 C 273.214844 151.671875 273.464844 150.804688 273.796875 149.964844 C 274.132812 149.125 274.542969 148.324219 275.035156 147.5625 C 275.523438 146.804688 276.078125 146.101562 276.707031 145.453125 C 277.332031 144.808594 278.011719 144.226562 278.75 143.71875 C 279.488281 143.207031 280.265625 142.773438 281.089844 142.417969 C 281.910156 142.066406 282.757812 141.792969 283.628906 141.609375 C 284.503906 141.425781 285.386719 141.328125 286.28125 141.320312 C 287.171875 141.3125 288.054688 141.394531 288.933594 141.5625 C 289.808594 141.734375 290.664062 141.988281 291.488281 142.328125 C 292.316406 142.667969 293.105469 143.085938 293.851562 143.585938 C 294.597656 144.082031 295.289062 144.648438 295.925781 145.285156 C 296.5625 145.921875 297.128906 146.617188 297.632812 147.367188 C 298.136719 148.117188 298.5625 148.910156 298.910156 149.746094 C 299.257812 150.582031 299.523438 151.445312 299.707031 152.332031 C 299.886719 153.222656 299.984375 154.121094 299.992188 155.027344 C 300 155.933594 299.917969 156.835938 299.753906 157.726562 C 299.585938 158.617188 299.335938 159.484375 299.003906 160.328125 C 298.667969 161.167969 298.257812 161.96875 297.765625 162.726562 C 297.277344 163.488281 296.71875 164.191406 296.09375 164.835938 C 295.46875 165.484375 294.789062 166.0625 294.050781 166.574219 C 293.3125 167.085938 292.535156 167.519531 291.710938 167.871094 C 290.890625 168.226562 290.042969 168.496094 289.167969 168.679688 C 288.296875 168.867188 287.414062 168.960938 286.519531 168.96875 Z M 286.5 166.066406 C 287.207031 166.058594 287.902344 165.980469 288.59375 165.832031 C 289.285156 165.6875 289.953125 165.472656 290.601562 165.191406 C 291.253906 164.910156 291.867188 164.570312 292.449219 164.164062 C 293.03125 163.761719 293.570312 163.304688 294.0625 162.792969 C 294.558594 162.28125 294.996094 161.722656 295.382812 161.125 C 295.769531 160.523438 296.09375 159.894531 296.355469 159.230469 C 296.617188 158.5625 296.816406 157.878906 296.945312 157.175781 C 297.074219 156.472656 297.136719 155.761719 297.128906 155.046875 C 297.121094 154.332031 297.046875 153.621094 296.902344 152.921875 C 296.757812 152.21875 296.546875 151.539062 296.269531 150.882812 C 295.992188 150.222656 295.652344 149.597656 295.257812 149.007812 C 294.859375 148.414062 294.40625 147.871094 293.902344 147.367188 C 293.398438 146.867188 292.851562 146.421875 292.261719 146.027344 C 291.667969 145.636719 291.046875 145.308594 290.390625 145.039062 C 289.738281 144.773438 289.0625 144.574219 288.371094 144.441406 C 287.675781 144.308594 286.976562 144.246094 286.273438 144.253906 C 285.566406 144.261719 284.867188 144.339844 284.179688 144.484375 C 283.488281 144.632812 282.820312 144.847656 282.167969 145.125 C 281.519531 145.40625 280.90625 145.75 280.324219 146.152344 C 279.742188 146.558594 279.203125 147.015625 278.710938 147.527344 C 278.214844 148.039062 277.777344 148.59375 277.390625 149.195312 C 277.003906 149.792969 276.679688 150.425781 276.417969 151.089844 C 276.152344 151.753906 275.957031 152.4375 275.828125 153.140625 C 275.695312 153.847656 275.636719 154.554688 275.644531 155.273438 C 275.652344 155.988281 275.726562 156.695312 275.871094 157.398438 C 276.015625 158.097656 276.226562 158.777344 276.503906 159.4375 C 276.78125 160.09375 277.117188 160.71875 277.515625 161.3125 C 277.914062 161.902344 278.367188 162.449219 278.871094 162.949219 C 279.375 163.453125 279.921875 163.898438 280.511719 164.289062 C 281.101562 164.679688 281.726562 165.011719 282.378906 165.277344 C 283.035156 165.546875 283.710938 165.746094 284.402344 165.878906 C 285.097656 166.011719 285.796875 166.074219 286.5 166.066406 Z M 286.5 166.066406 " fill-opacity="1" fill-rule="nonzero"/><path fill="#5b5b5b" d="M 83.871094 165.628906 C 83.191406 165.617188 82.523438 165.535156 81.859375 165.390625 C 81.199219 165.242188 80.554688 165.03125 79.933594 164.757812 C 79.3125 164.480469 78.722656 164.148438 78.167969 163.753906 C 77.609375 163.363281 77.097656 162.917969 76.628906 162.421875 C 76.15625 161.925781 75.738281 161.386719 75.375 160.808594 C 75.007812 160.230469 74.703125 159.621094 74.453125 158.980469 C 74.207031 158.339844 74.023438 157.679688 73.902344 157.003906 C 73.785156 156.328125 73.730469 155.644531 73.746094 154.957031 C 73.757812 154.269531 73.835938 153.589844 73.984375 152.917969 C 74.128906 152.246094 74.335938 151.59375 74.609375 150.960938 C 74.878906 150.332031 75.210938 149.734375 75.597656 149.171875 C 75.984375 148.605469 76.421875 148.085938 76.910156 147.605469 C 77.402344 147.128906 77.929688 146.707031 78.5 146.335938 C 79.074219 145.964844 79.675781 145.652344 80.304688 145.402344 C 80.9375 145.148438 81.585938 144.964844 82.253906 144.84375 C 82.921875 144.722656 83.59375 144.667969 84.273438 144.679688 C 84.949219 144.691406 85.621094 144.773438 86.285156 144.917969 C 86.945312 145.066406 87.589844 145.277344 88.210938 145.554688 C 88.832031 145.828125 89.417969 146.164062 89.976562 146.554688 C 90.53125 146.949219 91.046875 147.390625 91.515625 147.886719 C 91.984375 148.382812 92.402344 148.921875 92.769531 149.5 C 93.136719 150.078125 93.441406 150.6875 93.691406 151.328125 C 93.9375 151.96875 94.121094 152.628906 94.238281 153.304688 C 94.359375 153.984375 94.410156 154.664062 94.398438 155.351562 C 94.386719 156.042969 94.304688 156.722656 94.160156 157.394531 C 94.015625 158.066406 93.808594 158.714844 93.535156 159.347656 C 93.265625 159.976562 92.933594 160.574219 92.546875 161.140625 C 92.160156 161.703125 91.722656 162.226562 91.230469 162.703125 C 90.742188 163.179688 90.214844 163.605469 89.640625 163.976562 C 89.070312 164.347656 88.46875 164.65625 87.839844 164.910156 C 87.207031 165.160156 86.558594 165.347656 85.890625 165.46875 C 85.222656 165.589844 84.550781 165.644531 83.871094 165.628906 Z M 84.367188 163.449219 C 84.902344 163.429688 85.433594 163.355469 85.953125 163.230469 C 86.476562 163.105469 86.980469 162.929688 87.46875 162.703125 C 87.957031 162.476562 88.417969 162.203125 88.855469 161.882812 C 89.289062 161.566406 89.6875 161.207031 90.054688 160.808594 C 90.417969 160.40625 90.742188 159.976562 91.023438 159.511719 C 91.304688 159.050781 91.539062 158.5625 91.726562 158.050781 C 91.914062 157.539062 92.050781 157.015625 92.136719 156.480469 C 92.21875 155.941406 92.253906 155.398438 92.234375 154.855469 C 92.210938 154.308594 92.140625 153.773438 92.015625 153.242188 C 91.890625 152.710938 91.71875 152.199219 91.496094 151.703125 C 91.269531 151.207031 91 150.738281 90.6875 150.296875 C 90.371094 149.855469 90.019531 149.449219 89.625 149.078125 C 89.230469 148.707031 88.804688 148.378906 88.347656 148.09375 C 87.890625 147.804688 87.410156 147.570312 86.910156 147.378906 C 86.40625 147.1875 85.890625 147.050781 85.359375 146.960938 C 84.828125 146.875 84.296875 146.84375 83.757812 146.863281 C 83.222656 146.882812 82.691406 146.953125 82.171875 147.078125 C 81.648438 147.207031 81.144531 147.382812 80.65625 147.609375 C 80.167969 147.835938 79.707031 148.105469 79.269531 148.425781 C 78.835938 148.746094 78.4375 149.105469 78.070312 149.503906 C 77.707031 149.902344 77.382812 150.332031 77.101562 150.796875 C 76.820312 151.261719 76.585938 151.746094 76.398438 152.257812 C 76.210938 152.769531 76.074219 153.292969 75.992188 153.832031 C 75.90625 154.367188 75.871094 154.910156 75.894531 155.453125 C 75.914062 156 75.984375 156.535156 76.109375 157.066406 C 76.234375 157.597656 76.40625 158.109375 76.632812 158.605469 C 76.855469 159.101562 77.125 159.570312 77.4375 160.011719 C 77.753906 160.453125 78.105469 160.859375 78.5 161.230469 C 78.894531 161.601562 79.320312 161.929688 79.777344 162.21875 C 80.234375 162.503906 80.714844 162.742188 81.21875 162.929688 C 81.71875 163.121094 82.238281 163.261719 82.765625 163.347656 C 83.296875 163.433594 83.828125 163.46875 84.367188 163.449219 Z M 84.367188 163.449219 " fill-opacity="1" fill-rule="nonzero"/><path fill="#5b5b5b" d="M 286.054688 164.390625 C 285.457031 164.363281 284.863281 164.277344 284.28125 164.132812 C 283.703125 163.984375 283.140625 163.785156 282.597656 163.527344 C 282.054688 163.269531 281.539062 162.960938 281.058594 162.601562 C 280.574219 162.242188 280.132812 161.839844 279.730469 161.390625 C 279.324219 160.941406 278.96875 160.457031 278.65625 159.9375 C 278.347656 159.417969 278.089844 158.875 277.886719 158.304688 C 277.683594 157.730469 277.539062 157.148438 277.449219 156.546875 C 277.359375 155.945312 277.328125 155.34375 277.355469 154.734375 C 277.382812 154.128906 277.46875 153.53125 277.609375 152.941406 C 277.753906 152.351562 277.953125 151.78125 278.207031 151.230469 C 278.464844 150.683594 278.769531 150.164062 279.125 149.671875 C 279.480469 149.183594 279.878906 148.734375 280.320312 148.324219 C 280.765625 147.914062 281.242188 147.550781 281.753906 147.238281 C 282.269531 146.921875 282.808594 146.664062 283.371094 146.457031 C 283.933594 146.25 284.511719 146.101562 285.105469 146.007812 C 285.699219 145.917969 286.292969 145.882812 286.890625 145.910156 C 287.492188 145.9375 288.082031 146.023438 288.664062 146.167969 C 289.246094 146.316406 289.808594 146.515625 290.351562 146.773438 C 290.894531 147.03125 291.40625 147.339844 291.886719 147.699219 C 292.371094 148.058594 292.8125 148.460938 293.21875 148.910156 C 293.621094 149.359375 293.980469 149.84375 294.289062 150.363281 C 294.597656 150.882812 294.855469 151.425781 295.058594 151.996094 C 295.261719 152.570312 295.410156 153.15625 295.5 153.753906 C 295.589844 154.355469 295.621094 154.957031 295.59375 155.566406 C 295.566406 156.171875 295.480469 156.769531 295.335938 157.359375 C 295.191406 157.949219 294.992188 158.519531 294.738281 159.070312 C 294.484375 159.621094 294.179688 160.140625 293.824219 160.628906 C 293.46875 161.117188 293.070312 161.566406 292.625 161.976562 C 292.183594 162.386719 291.703125 162.75 291.191406 163.0625 C 290.679688 163.378906 290.140625 163.636719 289.574219 163.84375 C 289.011719 164.050781 288.433594 164.203125 287.839844 164.292969 C 287.25 164.382812 286.652344 164.417969 286.054688 164.390625 Z M 286.054688 164.390625 " fill-opacity="1" fill-rule="nonzero"/><path fill="#5b5b5b" d="M 84.019531 162.1875 C 83.566406 162.179688 83.113281 162.128906 82.667969 162.03125 C 82.222656 161.933594 81.792969 161.792969 81.375 161.609375 C 80.957031 161.425781 80.558594 161.203125 80.183594 160.941406 C 79.808594 160.679688 79.464844 160.382812 79.148438 160.050781 C 78.828125 159.71875 78.546875 159.359375 78.300781 158.972656 C 78.054688 158.582031 77.847656 158.175781 77.679688 157.746094 C 77.511719 157.316406 77.386719 156.875 77.304688 156.417969 C 77.222656 155.964844 77.183594 155.507812 77.191406 155.046875 C 77.199219 154.582031 77.25 154.128906 77.347656 153.675781 C 77.445312 153.222656 77.582031 152.785156 77.761719 152.363281 C 77.945312 151.9375 78.164062 151.535156 78.421875 151.15625 C 78.683594 150.777344 78.976562 150.425781 79.304688 150.105469 C 79.628906 149.785156 79.984375 149.496094 80.367188 149.246094 C 80.75 148.996094 81.152344 148.785156 81.578125 148.617188 C 82 148.445312 82.4375 148.320312 82.886719 148.234375 C 83.332031 148.152344 83.785156 148.113281 84.242188 148.121094 C 84.695312 148.128906 85.148438 148.179688 85.59375 148.277344 C 86.039062 148.375 86.46875 148.515625 86.886719 148.699219 C 87.304688 148.882812 87.703125 149.105469 88.078125 149.367188 C 88.453125 149.628906 88.796875 149.925781 89.113281 150.257812 C 89.433594 150.589844 89.714844 150.949219 89.960938 151.339844 C 90.207031 151.726562 90.414062 152.136719 90.582031 152.5625 C 90.75 152.992188 90.875 153.433594 90.957031 153.890625 C 91.039062 154.34375 91.078125 154.800781 91.070312 155.265625 C 91.0625 155.726562 91.011719 156.183594 90.914062 156.632812 C 90.816406 157.085938 90.679688 157.523438 90.5 157.945312 C 90.316406 158.371094 90.097656 158.773438 89.839844 159.152344 C 89.578125 159.53125 89.285156 159.882812 88.957031 160.203125 C 88.632812 160.527344 88.277344 160.8125 87.894531 161.0625 C 87.511719 161.3125 87.109375 161.523438 86.683594 161.695312 C 86.261719 161.863281 85.824219 161.992188 85.375 162.074219 C 84.929688 162.15625 84.476562 162.195312 84.019531 162.1875 Z M 84.019531 162.1875 " fill-opacity="1" fill-rule="nonzero"/><g fill="#ff4500" fill-opacity="1"><g transform="translate(92.825203, 268.49418)"><g><path d="M 25.046875 -33.875 L 25.046875 -27.265625 L 11.25 -27.265625 L 11.25 -20.125 L 21.5625 -20.125 L 21.5625 -13.703125 L 11.25 -13.703125 L 11.25 0 L 2.984375 0 L 2.984375 -33.875 Z M 25.046875 -33.875 "/></g></g></g><g fill="#ff4500" fill-opacity="1"><g transform="translate(119.212953, 268.49418)"><g><path d="M 11.25 -33.875 L 11.25 0 L 2.984375 0 L 2.984375 -33.875 Z M 11.25 -33.875 "/></g></g></g><g fill="#ff4500" fill-opacity="1"><g transform="translate(133.444007, 268.49418)"><g><path d="M 27.359375 -33.875 L 27.359375 -27.265625 L 18.390625 -27.265625 L 18.390625 0 L 10.125 0 L 10.125 -27.265625 L 1.15625 -27.265625 L 1.15625 -33.875 Z M 27.359375 -33.875 "/></g></g></g><g fill="#ff4500" fill-opacity="1"><g transform="translate(161.954359, 268.49418)"><g/></g></g><g fill="#ff4500" fill-opacity="1"><g transform="translate(172.181418, 268.49418)"><g><path d="M 25.046875 -33.875 L 25.046875 -27.265625 L 11.25 -27.265625 L 11.25 -20.125 L 21.5625 -20.125 L 21.5625 -13.703125 L 11.25 -13.703125 L 11.25 0 L 2.984375 0 L 2.984375 -33.875 Z M 25.046875 -33.875 "/></g></g></g><g fill="#ff4500" fill-opacity="1"><g transform="translate(198.569168, 268.49418)"><g><path d="M 11.25 -6.375 L 22.046875 -6.375 L 22.046875 0 L 2.984375 0 L 2.984375 -33.875 L 11.25 -33.875 Z M 11.25 -6.375 "/></g></g></g><g fill="#ff4500" fill-opacity="1"><g transform="translate(221.580061, 268.49418)"><g><path d="M 11.25 -27.265625 L 11.25 -20.40625 L 22.296875 -20.40625 L 22.296875 -14.046875 L 11.25 -14.046875 L 11.25 -6.609375 L 23.734375 -6.609375 L 23.734375 0 L 2.984375 0 L 2.984375 -33.875 L 23.734375 -33.875 L 23.734375 -27.265625 Z M 11.25 -27.265625 "/></g></g></g><g fill="#ff4500" fill-opacity="1"><g transform="translate(247.678369, 268.49418)"><g><path d="M 23.734375 0 L 16.84375 -10.375 L 10.765625 0 L 1.40625 0 L 12.25 -17.21875 L 1.15625 -33.875 L 10.765625 -33.875 L 17.5625 -23.640625 L 23.546875 -33.875 L 32.90625 -33.875 L 22.140625 -16.796875 L 33.34375 0 Z M 23.734375 0 "/></g></g></g><g fill="#000000" fill-opacity="1"><g transform="translate(116.029981, 291.720541)"><g><path d="M 10.515625 0 L 8.984375 0 L 2.828125 -9.34375 L 2.828125 0 L 1.296875 0 L 1.296875 -11.75 L 2.828125 -11.75 L 8.984375 -2.421875 L 8.984375 -11.75 L 10.515625 -11.75 Z M 10.515625 0 "/></g></g></g><g fill="#000000" fill-opacity="1"><g transform="translate(132.456346, 291.720541)"><g><path d="M 2.828125 -10.484375 L 2.828125 -6.5625 L 7.09375 -6.5625 L 7.09375 -5.296875 L 2.828125 -5.296875 L 2.828125 -1.265625 L 7.609375 -1.265625 L 7.609375 0 L 1.296875 0 L 1.296875 -11.75 L 7.609375 -11.75 L 7.609375 -10.484375 Z M 2.828125 -10.484375 "/></g></g></g><g fill="#000000" fill-opacity="1"><g transform="translate(145.685234, 291.720541)"><g><path d="M 10.984375 -11.734375 L 6.5625 0 L 4.796875 0 L 0.375 -11.734375 L 2 -11.734375 L 5.6875 -1.609375 L 9.375 -11.734375 Z M 10.984375 -11.734375 "/></g></g></g><g fill="#000000" fill-opacity="1"><g transform="translate(161.657224, 291.720541)"><g><path d="M 2.828125 -10.484375 L 2.828125 -6.5625 L 7.09375 -6.5625 L 7.09375 -5.296875 L 2.828125 -5.296875 L 2.828125 -1.265625 L 7.609375 -1.265625 L 7.609375 0 L 1.296875 0 L 1.296875 -11.75 L 7.609375 -11.75 L 7.609375 -10.484375 Z M 2.828125 -10.484375 "/></g></g></g><g fill="#000000" fill-opacity="1"><g transform="translate(174.88611, 291.720541)"><g><path d="M 7.46875 0 L 4.671875 -4.796875 L 2.828125 -4.796875 L 2.828125 0 L 1.296875 0 L 1.296875 -11.734375 L 5.078125 -11.734375 C 5.960938 -11.734375 6.710938 -11.582031 7.328125 -11.28125 C 7.941406 -10.976562 8.398438 -10.566406 8.703125 -10.046875 C 9.003906 -9.523438 9.15625 -8.9375 9.15625 -8.28125 C 9.15625 -7.46875 8.921875 -6.753906 8.453125 -6.140625 C 7.984375 -5.523438 7.285156 -5.113281 6.359375 -4.90625 L 9.3125 0 Z M 2.828125 -6.03125 L 5.078125 -6.03125 C 5.910156 -6.03125 6.535156 -6.234375 6.953125 -6.640625 C 7.367188 -7.046875 7.578125 -7.59375 7.578125 -8.28125 C 7.578125 -8.976562 7.367188 -9.515625 6.953125 -9.890625 C 6.546875 -10.273438 5.921875 -10.46875 5.078125 -10.46875 L 2.828125 -10.46875 Z M 2.828125 -6.03125 "/></g></g></g><g fill="#000000" fill-opacity="1"><g transform="translate(189.713741, 291.720541)"><g/></g></g><g fill="#000000" fill-opacity="1"><g transform="translate(198.802745, 291.720541)"><g><path d="M 9.515625 -11.734375 L 5.6875 -4.421875 L 5.6875 0 L 4.15625 0 L 4.15625 -4.421875 L 0.3125 -11.734375 L 2.015625 -11.734375 L 4.90625 -5.78125 L 7.8125 -11.734375 Z M 9.515625 -11.734375 "/></g></g></g><g fill="#000000" fill-opacity="1"><g transform="translate(213.226475, 291.720541)"><g><path d="M 2.828125 -11.734375 L 2.828125 0 L 1.296875 0 L 1.296875 -11.734375 Z M 2.828125 -11.734375 "/></g></g></g><g fill="#000000" fill-opacity="1"><g transform="translate(221.962084, 291.720541)"><g><path d="M 2.828125 -10.484375 L 2.828125 -6.5625 L 7.09375 -6.5625 L 7.09375 -5.296875 L 2.828125 -5.296875 L 2.828125 -1.265625 L 7.609375 -1.265625 L 7.609375 0 L 1.296875 0 L 1.296875 -11.75 L 7.609375 -11.75 L 7.609375 -10.484375 Z M 2.828125 -10.484375 "/></g></g></g><g fill="#000000" fill-opacity="1"><g transform="translate(235.19097, 291.720541)"><g><path d="M 2.828125 -1.25 L 6.9375 -1.25 L 6.9375 0 L 1.296875 0 L 1.296875 -11.734375 L 2.828125 -11.734375 Z M 2.828125 -1.25 "/></g></g></g><g fill="#000000" fill-opacity="1"><g transform="translate(247.056724, 291.720541)"><g><path d="M 4.953125 -11.734375 C 6.222656 -11.734375 7.328125 -11.492188 8.265625 -11.015625 C 9.203125 -10.535156 9.921875 -9.851562 10.421875 -8.96875 C 10.921875 -8.082031 11.171875 -7.039062 11.171875 -5.84375 C 11.171875 -4.632812 10.921875 -3.585938 10.421875 -2.703125 C 9.921875 -1.828125 9.203125 -1.15625 8.265625 -0.6875 C 7.328125 -0.226562 6.222656 0 4.953125 0 L 1.296875 0 L 1.296875 -11.734375 Z M 4.953125 -1.265625 C 6.460938 -1.265625 7.613281 -1.664062 8.40625 -2.46875 C 9.207031 -3.269531 9.609375 -4.394531 9.609375 -5.84375 C 9.609375 -7.300781 9.207031 -8.4375 8.40625 -9.25 C 7.601562 -10.070312 6.453125 -10.484375 4.953125 -10.484375 L 2.828125 -10.484375 L 2.828125 -1.265625 Z M 4.953125 -1.265625 "/></g></g></g></svg>