<svg xmlns="http://www.w3.org/2000/svg" xmlns:xlink="http://www.w3.org/1999/xlink" width="500" zoomAndPan="magnify" viewBox="0 0 375 374.999991" height="500" preserveAspectRatio="xMidYMid meet" version="1.0"><defs><g/><clipPath id="deebaa8d6f"><path d="M 64 63.988281 L 311 63.988281 L 311 310.738281 L 64 310.738281 Z M 64 63.988281 " clip-rule="nonzero"/></clipPath><clipPath id="418c850530"><path d="M 47.722656 164 L 327.472656 164 L 327.472656 211 L 47.722656 211 Z M 47.722656 164 " clip-rule="nonzero"/></clipPath><clipPath id="3e1876b433"><path d="M 98.929688 133.65625 L 275.929688 133.65625 L 275.929688 258.90625 L 98.929688 258.90625 Z M 98.929688 133.65625 " clip-rule="nonzero"/></clipPath><clipPath id="e768c48e4e"><path d="M 99 134 L 275.929688 134 L 275.929688 258.90625 L 99 258.90625 Z M 99 134 " clip-rule="nonzero"/></clipPath><clipPath id="7a6f3e42d6"><path d="M 90.65625 133.632812 L 107.203125 133.632812 L 107.203125 150.179688 L 90.65625 150.179688 Z M 90.65625 133.632812 " clip-rule="nonzero"/></clipPath><clipPath id="b466ac9d0f"><path d="M 98.929688 133.632812 C 94.359375 133.632812 90.65625 137.335938 90.65625 141.90625 C 90.65625 146.472656 94.359375 150.179688 98.929688 150.179688 C 103.496094 150.179688 107.203125 146.472656 107.203125 141.90625 C 107.203125 137.335938 103.496094 133.632812 98.929688 133.632812 Z M 98.929688 133.632812 " clip-rule="nonzero"/></clipPath><clipPath id="ecd3f094b6"><path d="M 267.796875 133.65625 L 284.34375 133.65625 L 284.34375 150.203125 L 267.796875 150.203125 Z M 267.796875 133.65625 " clip-rule="nonzero"/></clipPath><clipPath id="4bf581ac09"><path d="M 276.070312 133.65625 C 271.503906 133.65625 267.796875 137.363281 267.796875 141.929688 C 267.796875 146.5 271.503906 150.203125 276.070312 150.203125 C 280.640625 150.203125 284.34375 146.5 284.34375 141.929688 C 284.34375 137.363281 280.640625 133.65625 276.070312 133.65625 Z M 276.070312 133.65625 " clip-rule="nonzero"/></clipPath></defs><path fill="#000000" d="M 308.101562 187.484375 C 308.101562 189.460938 308.054688 191.433594 307.957031 193.402344 C 307.859375 195.375 307.714844 197.34375 307.523438 199.308594 C 307.328125 201.269531 307.085938 203.230469 306.796875 205.183594 C 306.507812 207.132812 306.171875 209.078125 305.785156 211.015625 C 305.398438 212.949219 304.96875 214.875 304.488281 216.789062 C 304.007812 218.703125 303.480469 220.605469 302.910156 222.496094 C 302.335938 224.382812 301.71875 226.257812 301.050781 228.117188 C 300.386719 229.972656 299.675781 231.816406 298.921875 233.640625 C 298.167969 235.460938 297.367188 237.265625 296.523438 239.050781 C 295.679688 240.835938 294.792969 242.597656 293.863281 244.339844 C 292.929688 246.078125 291.957031 247.796875 290.945312 249.488281 C 289.929688 251.183594 288.875 252.847656 287.777344 254.488281 C 286.679688 256.132812 285.542969 257.746094 284.367188 259.328125 C 283.191406 260.914062 281.976562 262.472656 280.726562 263.996094 C 279.472656 265.523438 278.183594 267.015625 276.859375 268.480469 C 275.535156 269.941406 274.171875 271.371094 272.777344 272.765625 C 271.382812 274.160156 269.953125 275.523438 268.492188 276.847656 C 267.027344 278.171875 265.535156 279.460938 264.007812 280.714844 C 262.484375 281.964844 260.925781 283.179688 259.339844 284.355469 C 257.757812 285.53125 256.144531 286.667969 254.5 287.765625 C 252.859375 288.863281 251.195312 289.917969 249.5 290.933594 C 247.808594 291.945312 246.089844 292.917969 244.351562 293.851562 C 242.609375 294.78125 240.847656 295.667969 239.0625 296.511719 C 237.277344 297.355469 235.472656 298.15625 233.652344 298.910156 C 231.828125 299.664062 229.984375 300.375 228.128906 301.039062 C 226.269531 301.707031 224.394531 302.324219 222.507812 302.898438 C 220.617188 303.46875 218.714844 303.996094 216.800781 304.476562 C 214.886719 304.957031 212.960938 305.386719 211.027344 305.773438 C 209.089844 306.15625 207.144531 306.496094 205.195312 306.785156 C 203.242188 307.074219 201.28125 307.316406 199.320312 307.511719 C 197.355469 307.703125 195.386719 307.847656 193.414062 307.945312 C 191.445312 308.042969 189.472656 308.089844 187.496094 308.089844 C 185.523438 308.089844 183.550781 308.042969 181.578125 307.945312 C 179.609375 307.847656 177.640625 307.703125 175.675781 307.511719 C 173.710938 307.316406 171.753906 307.074219 169.800781 306.785156 C 167.847656 306.496094 165.902344 306.15625 163.96875 305.773438 C 162.03125 305.386719 160.105469 304.957031 158.191406 304.476562 C 156.277344 303.996094 154.375 303.46875 152.488281 302.898438 C 150.597656 302.324219 148.726562 301.707031 146.867188 301.039062 C 145.007812 300.375 143.167969 299.664062 141.34375 298.910156 C 139.519531 298.15625 137.714844 297.355469 135.933594 296.511719 C 134.148438 295.667969 132.386719 294.78125 130.644531 293.851562 C 128.902344 292.917969 127.1875 291.945312 125.492188 290.933594 C 123.800781 289.917969 122.132812 288.863281 120.492188 287.765625 C 118.851562 286.667969 117.238281 285.53125 115.652344 284.355469 C 114.066406 283.179688 112.511719 281.964844 110.988281 280.714844 C 109.460938 279.460938 107.964844 278.171875 106.503906 276.847656 C 105.042969 275.523438 103.613281 274.160156 102.214844 272.765625 C 100.820312 271.371094 99.460938 269.941406 98.136719 268.480469 C 96.808594 267.015625 95.519531 265.523438 94.269531 263.996094 C 93.015625 262.472656 91.800781 260.914062 90.625 259.328125 C 89.449219 257.746094 88.316406 256.132812 87.21875 254.488281 C 86.121094 252.847656 85.066406 251.183594 84.050781 249.488281 C 83.035156 247.796875 82.0625 246.078125 81.132812 244.339844 C 80.203125 242.597656 79.316406 240.835938 78.472656 239.050781 C 77.628906 237.265625 76.828125 235.460938 76.074219 233.640625 C 75.316406 231.816406 74.605469 229.972656 73.941406 228.117188 C 73.277344 226.257812 72.660156 224.382812 72.085938 222.496094 C 71.511719 220.605469 70.984375 218.703125 70.507812 216.789062 C 70.027344 214.875 69.59375 212.949219 69.210938 211.015625 C 68.824219 209.078125 68.488281 207.132812 68.199219 205.183594 C 67.90625 203.230469 67.667969 201.269531 67.472656 199.308594 C 67.28125 197.34375 67.132812 195.375 67.039062 193.402344 C 66.941406 191.433594 66.890625 189.460938 66.890625 187.484375 C 66.890625 185.511719 66.941406 183.539062 67.039062 181.566406 C 67.132812 179.597656 67.28125 177.628906 67.472656 175.664062 C 67.667969 173.699219 67.90625 171.742188 68.199219 169.789062 C 68.488281 167.835938 68.824219 165.890625 69.210938 163.957031 C 69.59375 162.019531 70.027344 160.09375 70.507812 158.179688 C 70.984375 156.265625 71.511719 154.363281 72.085938 152.476562 C 72.660156 150.585938 73.277344 148.714844 73.941406 146.855469 C 74.605469 144.996094 75.316406 143.15625 76.074219 141.332031 C 76.828125 139.507812 77.628906 137.703125 78.472656 135.921875 C 79.316406 134.136719 80.203125 132.375 81.132812 130.632812 C 82.0625 128.890625 83.035156 127.175781 84.050781 125.480469 C 85.066406 123.789062 86.121094 122.121094 87.21875 120.480469 C 88.316406 118.839844 89.449219 117.226562 90.625 115.640625 C 91.800781 114.054688 93.015625 112.5 94.269531 110.972656 C 95.519531 109.449219 96.808594 107.953125 98.136719 106.492188 C 99.460938 105.03125 100.820312 103.601562 102.214844 102.203125 C 103.613281 100.808594 105.042969 99.449219 106.503906 98.125 C 107.964844 96.796875 109.460938 95.507812 110.988281 94.257812 C 112.511719 93.003906 114.066406 91.789062 115.652344 90.613281 C 117.238281 89.4375 118.851562 88.304688 120.492188 87.207031 C 122.132812 86.109375 123.800781 85.054688 125.492188 84.039062 C 127.1875 83.023438 128.902344 82.050781 130.644531 81.121094 C 132.386719 80.191406 134.148438 79.304688 135.933594 78.460938 C 137.714844 77.617188 139.519531 76.816406 141.34375 76.0625 C 143.167969 75.304688 145.007812 74.59375 146.867188 73.929688 C 148.726562 73.265625 150.597656 72.648438 152.488281 72.074219 C 154.375 71.5 156.277344 70.972656 158.191406 70.496094 C 160.105469 70.015625 162.03125 69.582031 163.96875 69.199219 C 165.90625 68.8125 167.847656 68.476562 169.800781 68.1875 C 171.753906 67.894531 173.710938 67.65625 175.675781 67.460938 C 177.640625 67.269531 179.609375 67.121094 181.578125 67.027344 C 183.550781 66.929688 185.523438 66.878906 187.496094 66.878906 C 189.472656 66.878906 191.445312 66.929688 193.414062 67.027344 C 195.386719 67.121094 197.355469 67.269531 199.320312 67.460938 C 201.28125 67.65625 203.242188 67.894531 205.195312 68.1875 C 207.144531 68.476562 209.089844 68.8125 211.027344 69.199219 C 212.960938 69.582031 214.886719 70.015625 216.800781 70.496094 C 218.714844 70.972656 220.617188 71.5 222.507812 72.074219 C 224.394531 72.648438 226.269531 73.265625 228.128906 73.929688 C 229.984375 74.59375 231.828125 75.304688 233.652344 76.0625 C 235.472656 76.816406 237.277344 77.617188 239.0625 78.460938 C 240.847656 79.304688 242.609375 80.191406 244.351562 81.121094 C 246.089844 82.050781 247.808594 83.023438 249.5 84.039062 C 251.195312 85.054688 252.859375 86.109375 254.5 87.207031 C 256.144531 88.304688 257.757812 89.4375 259.339844 90.613281 C 260.925781 91.789062 262.484375 93.003906 264.007812 94.257812 C 265.535156 95.507812 267.027344 96.796875 268.492188 98.125 C 269.953125 99.449219 271.382812 100.808594 272.777344 102.203125 C 274.171875 103.601562 275.535156 105.03125 276.859375 106.492188 C 278.183594 107.953125 279.472656 109.449219 280.726562 110.972656 C 281.976562 112.5 283.191406 114.054688 284.367188 115.640625 C 285.542969 117.226562 286.679688 118.839844 287.777344 120.480469 C 288.875 122.121094 289.929688 123.789062 290.945312 125.480469 C 291.957031 127.175781 292.929688 128.890625 293.863281 130.632812 C 294.792969 132.375 295.679688 134.136719 296.523438 135.921875 C 297.367188 137.703125 298.167969 139.507812 298.921875 141.332031 C 299.675781 143.15625 300.386719 144.996094 301.050781 146.855469 C 301.71875 148.714844 302.335938 150.585938 302.910156 152.476562 C 303.480469 154.363281 304.007812 156.265625 304.488281 158.179688 C 304.96875 160.09375 305.398438 162.019531 305.785156 163.957031 C 306.171875 165.890625 306.507812 167.835938 306.796875 169.789062 C 307.085938 171.742188 307.328125 173.699219 307.523438 175.664062 C 307.714844 177.628906 307.859375 179.597656 307.957031 181.566406 C 308.054688 183.539062 308.101562 185.511719 308.101562 187.484375 Z M 308.101562 187.484375 " fill-opacity="1" fill-rule="nonzero"/><g clip-path="url(#deebaa8d6f)"><path fill="#dd2c2c" d="M 187.496094 310.984375 C 154.511719 310.984375 123.496094 298.136719 100.167969 274.8125 C 76.839844 251.484375 64 220.476562 64 187.484375 C 64 154.5 76.847656 123.484375 100.167969 100.15625 C 123.492188 76.828125 154.511719 63.988281 187.496094 63.988281 C 220.484375 63.988281 251.496094 76.835938 274.824219 100.15625 C 298.152344 123.484375 310.996094 154.492188 310.996094 187.484375 C 310.996094 220.476562 298.148438 251.484375 274.824219 274.8125 C 251.496094 298.136719 220.484375 310.984375 187.496094 310.984375 Z M 187.496094 69.773438 C 156.058594 69.773438 126.496094 82.019531 104.265625 104.253906 C 82.03125 126.484375 69.785156 156.042969 69.785156 187.484375 C 69.785156 218.925781 82.03125 248.488281 104.265625 270.71875 C 126.496094 292.953125 156.054688 305.195312 187.496094 305.195312 C 218.9375 305.195312 248.5 292.953125 270.730469 270.71875 C 292.964844 248.488281 305.207031 218.929688 305.207031 187.484375 C 305.207031 156.046875 292.964844 126.484375 270.730469 104.253906 C 248.5 82.019531 218.9375 69.773438 187.496094 69.773438 Z M 187.496094 69.773438 " fill-opacity="1" fill-rule="nonzero"/></g><path fill="#dd2c2c" d="M 50.738281 167.570312 L 324.257812 167.570312 L 324.257812 207.394531 L 50.738281 207.394531 Z M 50.738281 167.570312 " fill-opacity="1" fill-rule="nonzero"/><g clip-path="url(#418c850530)"><path fill="#dd2c2c" d="M 327.152344 210.289062 L 47.84375 210.289062 L 47.84375 164.675781 L 327.152344 164.675781 Z M 53.628906 204.5 L 321.359375 204.5 L 321.359375 170.464844 L 53.628906 170.464844 Z M 53.628906 204.5 " fill-opacity="1" fill-rule="nonzero"/></g><path fill="#dd2c2c" d="M 255.089844 187.484375 C 255.089844 188.589844 255.0625 189.699219 255.007812 190.800781 C 254.953125 191.90625 254.871094 193.011719 254.765625 194.109375 C 254.65625 195.210938 254.519531 196.308594 254.359375 197.402344 C 254.195312 198.496094 254.007812 199.585938 253.789062 200.671875 C 253.574219 201.757812 253.332031 202.835938 253.0625 203.910156 C 252.796875 204.980469 252.5 206.046875 252.179688 207.105469 C 251.859375 208.164062 251.511719 209.214844 251.136719 210.257812 C 250.765625 211.296875 250.367188 212.332031 249.945312 213.351562 C 249.519531 214.375 249.074219 215.386719 248.601562 216.386719 C 248.128906 217.386719 247.628906 218.371094 247.109375 219.347656 C 246.585938 220.324219 246.042969 221.285156 245.472656 222.234375 C 244.90625 223.183594 244.3125 224.117188 243.699219 225.039062 C 243.082031 225.957031 242.445312 226.863281 241.789062 227.75 C 241.128906 228.640625 240.449219 229.511719 239.746094 230.367188 C 239.046875 231.222656 238.324219 232.058594 237.578125 232.878906 C 236.835938 233.699219 236.074219 234.5 235.292969 235.28125 C 234.511719 236.0625 233.710938 236.824219 232.890625 237.566406 C 232.070312 238.3125 231.234375 239.035156 230.378906 239.734375 C 229.523438 240.4375 228.652344 241.117188 227.761719 241.777344 C 226.875 242.433594 225.96875 243.070312 225.050781 243.6875 C 224.128906 244.300781 223.195312 244.894531 222.246094 245.460938 C 221.296875 246.03125 220.335938 246.574219 219.359375 247.097656 C 218.382812 247.617188 217.398438 248.117188 216.398438 248.589844 C 215.398438 249.0625 214.386719 249.507812 213.363281 249.933594 C 212.339844 250.355469 211.308594 250.753906 210.269531 251.125 C 209.226562 251.5 208.175781 251.847656 207.117188 252.167969 C 206.058594 252.488281 204.992188 252.785156 203.921875 253.050781 C 202.847656 253.320312 201.769531 253.5625 200.683594 253.777344 C 199.597656 253.996094 198.507812 254.183594 197.414062 254.347656 C 196.320312 254.507812 195.222656 254.644531 194.121094 254.753906 C 193.023438 254.859375 191.917969 254.941406 190.8125 254.996094 C 189.710938 255.050781 188.601562 255.078125 187.496094 255.078125 C 186.390625 255.078125 185.285156 255.050781 184.179688 254.996094 C 183.074219 254.941406 181.972656 254.859375 180.871094 254.753906 C 179.769531 254.644531 178.671875 254.507812 177.578125 254.347656 C 176.484375 254.183594 175.394531 253.996094 174.3125 253.777344 C 173.226562 253.5625 172.148438 253.320312 171.074219 253.050781 C 170 252.785156 168.933594 252.488281 167.875 252.167969 C 166.816406 251.847656 165.769531 251.5 164.726562 251.125 C 163.683594 250.753906 162.652344 250.355469 161.628906 249.933594 C 160.609375 249.507812 159.597656 249.0625 158.597656 248.589844 C 157.597656 248.117188 156.609375 247.617188 155.632812 247.097656 C 154.660156 246.574219 153.695312 246.03125 152.746094 245.460938 C 151.800781 244.894531 150.863281 244.300781 149.945312 243.6875 C 149.023438 243.070312 148.121094 242.433594 147.234375 241.777344 C 146.34375 241.117188 145.472656 240.4375 144.617188 239.734375 C 143.761719 239.035156 142.925781 238.3125 142.105469 237.566406 C 141.285156 236.824219 140.484375 236.0625 139.703125 235.28125 C 138.921875 234.5 138.15625 233.699219 137.414062 232.878906 C 136.671875 232.058594 135.949219 231.222656 135.246094 230.367188 C 134.546875 229.511719 133.867188 228.640625 133.207031 227.75 C 132.546875 226.863281 131.910156 225.957031 131.296875 225.039062 C 130.683594 224.117188 130.089844 223.183594 129.519531 222.234375 C 128.953125 221.285156 128.40625 220.324219 127.886719 219.347656 C 127.363281 218.371094 126.867188 217.386719 126.394531 216.386719 C 125.921875 215.386719 125.472656 214.375 125.050781 213.351562 C 124.625 212.332031 124.230469 211.296875 123.855469 210.257812 C 123.484375 209.214844 123.136719 208.164062 122.816406 207.105469 C 122.496094 206.046875 122.199219 204.980469 121.929688 203.910156 C 121.660156 202.835938 121.417969 201.757812 121.203125 200.671875 C 120.988281 199.585938 120.796875 198.496094 120.636719 197.402344 C 120.472656 196.308594 120.339844 195.210938 120.230469 194.109375 C 120.121094 193.011719 120.039062 191.90625 119.984375 190.800781 C 119.933594 189.699219 119.90625 188.589844 119.90625 187.484375 C 119.90625 186.378906 119.933594 185.273438 119.984375 184.167969 C 120.039062 183.0625 120.121094 181.960938 120.230469 180.859375 C 120.339844 179.757812 120.472656 178.660156 120.636719 177.566406 C 120.796875 176.472656 120.988281 175.382812 121.203125 174.300781 C 121.417969 173.214844 121.660156 172.136719 121.929688 171.0625 C 122.199219 169.988281 122.496094 168.921875 122.816406 167.863281 C 123.136719 166.804688 123.484375 165.757812 123.855469 164.714844 C 124.230469 163.671875 124.625 162.640625 125.050781 161.617188 C 125.472656 160.597656 125.921875 159.585938 126.394531 158.585938 C 126.867188 157.585938 127.363281 156.597656 127.886719 155.621094 C 128.40625 154.648438 128.953125 153.683594 129.519531 152.734375 C 130.089844 151.789062 130.683594 150.851562 131.296875 149.933594 C 131.910156 149.011719 132.546875 148.109375 133.207031 147.222656 C 133.867188 146.332031 134.546875 145.460938 135.246094 144.605469 C 135.949219 143.75 136.671875 142.914062 137.414062 142.09375 C 138.15625 141.273438 138.921875 140.472656 139.703125 139.691406 C 140.484375 138.910156 141.285156 138.144531 142.105469 137.402344 C 142.925781 136.660156 143.761719 135.9375 144.617188 135.234375 C 145.472656 134.535156 146.34375 133.855469 147.234375 133.195312 C 148.121094 132.535156 149.023438 131.898438 149.945312 131.285156 C 150.863281 130.671875 151.800781 130.078125 152.746094 129.507812 C 153.695312 128.941406 154.660156 128.394531 155.632812 127.875 C 156.609375 127.351562 157.597656 126.855469 158.597656 126.382812 C 159.597656 125.910156 160.609375 125.460938 161.628906 125.039062 C 162.652344 124.613281 163.683594 124.21875 164.726562 123.84375 C 165.769531 123.472656 166.816406 123.125 167.875 122.804688 C 168.933594 122.484375 170 122.1875 171.074219 121.917969 C 172.148438 121.648438 173.226562 121.40625 174.3125 121.191406 C 175.394531 120.976562 176.484375 120.785156 177.578125 120.625 C 178.671875 120.460938 179.769531 120.328125 180.871094 120.21875 C 181.972656 120.109375 183.074219 120.027344 184.179688 119.972656 C 185.285156 119.921875 186.390625 119.894531 187.496094 119.894531 C 188.601562 119.894531 189.710938 119.921875 190.8125 119.972656 C 191.917969 120.027344 193.023438 120.109375 194.121094 120.21875 C 195.222656 120.328125 196.320312 120.460938 197.414062 120.625 C 198.507812 120.785156 199.597656 120.976562 200.683594 121.191406 C 201.769531 121.40625 202.847656 121.648438 203.921875 121.917969 C 204.992188 122.1875 206.058594 122.484375 207.117188 122.804688 C 208.175781 123.125 209.226562 123.472656 210.269531 123.84375 C 211.308594 124.21875 212.339844 124.613281 213.363281 125.039062 C 214.386719 125.460938 215.398438 125.910156 216.398438 126.382812 C 217.398438 126.855469 218.382812 127.351562 219.359375 127.875 C 220.335938 128.394531 221.296875 128.941406 222.246094 129.507812 C 223.195312 130.078125 224.128906 130.671875 225.050781 131.285156 C 225.96875 131.898438 226.875 132.535156 227.761719 133.195312 C 228.652344 133.855469 229.523438 134.535156 230.378906 135.234375 C 231.234375 135.9375 232.070312 136.660156 232.890625 137.402344 C 233.710938 138.144531 234.511719 138.910156 235.292969 139.691406 C 236.074219 140.472656 236.835938 141.273438 237.578125 142.09375 C 238.324219 142.914062 239.046875 143.75 239.746094 144.605469 C 240.449219 145.460938 241.128906 146.332031 241.789062 147.222656 C 242.445312 148.109375 243.082031 149.011719 243.699219 149.933594 C 244.3125 150.851562 244.90625 151.789062 245.472656 152.734375 C 246.042969 153.683594 246.585938 154.648438 247.109375 155.621094 C 247.628906 156.597656 248.128906 157.585938 248.601562 158.585938 C 249.074219 159.585938 249.519531 160.597656 249.945312 161.617188 C 250.367188 162.640625 250.765625 163.671875 251.136719 164.714844 C 251.511719 165.757812 251.859375 166.804688 252.179688 167.863281 C 252.5 168.921875 252.796875 169.988281 253.0625 171.0625 C 253.332031 172.136719 253.574219 173.214844 253.789062 174.300781 C 254.007812 175.382812 254.195312 176.472656 254.359375 177.566406 C 254.519531 178.660156 254.65625 179.757812 254.765625 180.859375 C 254.871094 181.960938 254.953125 183.0625 255.007812 184.167969 C 255.0625 185.273438 255.089844 186.378906 255.089844 187.484375 Z M 255.089844 187.484375 " fill-opacity="1" fill-rule="nonzero"/><path fill="#dd2c2c" d="M 187.496094 257.972656 C 148.628906 257.972656 117.011719 226.347656 117.011719 187.484375 C 117.011719 148.617188 148.632812 117 187.496094 117 C 226.367188 117 257.984375 148.621094 257.984375 187.484375 C 257.984375 226.355469 226.367188 257.972656 187.496094 257.972656 Z M 187.496094 122.785156 C 151.824219 122.785156 122.796875 151.8125 122.796875 187.484375 C 122.796875 223.160156 151.824219 252.183594 187.496094 252.183594 C 223.171875 252.183594 252.195312 223.160156 252.195312 187.484375 C 252.195312 151.8125 223.171875 122.785156 187.496094 122.785156 Z M 187.496094 122.785156 " fill-opacity="1" fill-rule="nonzero"/><g clip-path="url(#3e1876b433)"><path fill="#000000" d="M 188.234375 258.875 C 181.0625 258.875 174.417969 257.816406 170 255.964844 L 169.195312 255.632812 L 173.882812 218.023438 C 173.105469 215.699219 172.984375 213.34375 172.988281 211.492188 C 171.996094 210.027344 170.972656 208.542969 169.980469 207.105469 L 169.503906 206.417969 C 166.332031 201.84375 163.050781 197.113281 160.175781 192.132812 C 158.382812 189.015625 157.570312 184.859375 159.441406 182.046875 L 153.414062 182.046875 C 152.710938 191.738281 150.371094 200.628906 146.804688 207.140625 C 143.058594 213.976562 138.207031 217.746094 133.140625 217.746094 C 129.828125 217.746094 126.550781 216.117188 123.648438 213.03125 C 119.027344 212.152344 114.800781 207.890625 111.71875 200.996094 C 109.558594 196.152344 108.0625 190.234375 107.378906 183.839844 L 102.84375 183.839844 C 99.953125 183.84375 98.929688 179.484375 98.929688 175.757812 C 98.929688 173.8125 99.199219 171.980469 99.6875 170.601562 C 100.546875 168.179688 101.878906 167.671875 102.84375 167.671875 L 107.375 167.671875 C 108.058594 161.269531 109.554688 155.355469 111.714844 150.515625 C 114.796875 143.621094 119.023438 139.359375 123.644531 138.480469 C 126.546875 135.394531 129.824219 133.765625 133.136719 133.765625 C 138.207031 133.765625 143.058594 137.53125 146.800781 144.375 C 150.371094 150.890625 152.707031 159.777344 153.410156 169.464844 L 165.890625 169.464844 C 165.78125 166.863281 165.683594 163.914062 165.683594 160.929688 C 165.683594 160.65625 165.679688 160.382812 165.675781 160.101562 L 165.675781 160.0625 C 165.652344 158.53125 165.625 156.796875 166.417969 155.238281 C 168.207031 151.722656 171.757812 149.273438 175.691406 148.84375 L 175.734375 148.839844 L 175.824219 148.839844 C 177.351562 148.863281 179.101562 148.957031 180.71875 149.714844 C 181.714844 150.191406 182.53125 150.792969 183.121094 151.484375 C 184.570312 150.800781 186.183594 150.445312 187.835938 150.445312 C 189.734375 150.445312 191.554688 150.921875 193.101562 151.816406 C 195.167969 153.019531 196.09375 155.300781 196.335938 157.292969 C 197.472656 156.699219 198.730469 156.367188 199.984375 156.339844 C 200.058594 156.335938 200.140625 156.335938 200.214844 156.335938 C 202.542969 156.335938 204.867188 157.375 206.429688 159.121094 C 207.707031 160.550781 207.660156 162.523438 207.621094 164.109375 L 207.617188 164.234375 C 207.609375 164.515625 207.589844 164.800781 207.5625 165.089844 C 208.054688 164.980469 208.554688 164.925781 209.058594 164.925781 C 209.21875 164.925781 209.378906 164.929688 209.535156 164.941406 C 211.667969 165.089844 213.730469 166.292969 214.917969 168.082031 C 215.203125 168.511719 215.453125 168.964844 215.667969 169.46875 L 221.570312 169.46875 C 222.269531 159.777344 224.609375 150.890625 228.175781 144.378906 C 231.921875 137.53125 236.777344 133.765625 241.847656 133.765625 C 245.160156 133.765625 248.4375 135.394531 251.339844 138.484375 C 255.960938 139.363281 260.1875 143.625 263.269531 150.519531 C 265.429688 155.355469 266.925781 161.273438 267.605469 167.675781 L 272.140625 167.675781 C 275.027344 167.675781 276.054688 172.035156 276.054688 175.761719 C 276.054688 179.488281 275.027344 183.84375 272.140625 183.84375 L 267.605469 183.84375 C 266.925781 190.242188 265.429688 196.160156 263.269531 201 C 260.1875 207.894531 255.960938 212.15625 251.339844 213.035156 C 248.4375 216.121094 245.160156 217.75 241.847656 217.75 C 236.777344 217.75 231.921875 213.984375 228.179688 207.144531 C 224.613281 200.628906 222.273438 191.742188 221.574219 182.050781 L 215.839844 182.050781 C 215.820312 182.199219 215.800781 182.34375 215.78125 182.484375 C 215.660156 183.5 215.324219 184.519531 214.75 185.605469 C 215.148438 192.957031 213.636719 200.597656 210.375 207.714844 C 209.734375 209.117188 209.28125 210.5 208.800781 211.964844 L 208.757812 212.085938 C 208.476562 212.941406 208.488281 213.9375 208.507812 214.988281 L 208.507812 215.035156 C 208.53125 216.339844 208.558594 217.667969 208.066406 218.960938 L 208.917969 254.71875 L 208.324219 255.058594 C 204.1875 257.414062 196.492188 258.875 188.234375 258.875 Z M 188.234375 258.875 " fill-opacity="1" fill-rule="nonzero"/></g><path fill="#ffebd4" d="M 188.234375 257.730469 C 181.210938 257.730469 174.726562 256.699219 170.441406 254.90625 L 175.054688 217.898438 L 175.023438 217.816406 C 174.214844 215.503906 174.125 213.097656 174.136719 211.261719 L 174.136719 211.144531 L 174.074219 211.042969 C 173.035156 209.511719 171.964844 207.957031 170.925781 206.453125 L 170.449219 205.765625 C 167.289062 201.207031 164.023438 196.496094 161.171875 191.558594 C 159.40625 188.496094 158.652344 184.351562 160.941406 182.015625 L 161.085938 181.859375 C 161.179688 181.753906 161.28125 181.652344 161.378906 181.550781 L 162.007812 180.902344 L 152.339844 180.902344 L 152.320312 181.261719 C 151.027344 201.410156 142.78125 216.601562 133.136719 216.601562 C 130.042969 216.601562 127.074219 215.078125 124.3125 212.066406 L 124.222656 211.96875 L 124.09375 211.945312 C 119.761719 211.242188 115.738281 207.1875 112.761719 200.527344 C 110.578125 195.625 109.085938 189.574219 108.449219 183.035156 L 108.414062 182.695312 L 102.84375 182.695312 C 100.9375 182.695312 100.074219 179.09375 100.074219 175.753906 C 100.074219 173.933594 100.316406 172.238281 100.765625 170.980469 C 101.265625 169.5625 101.984375 168.8125 102.84375 168.8125 L 108.414062 168.8125 L 108.449219 168.46875 C 109.085938 161.925781 110.578125 155.875 112.761719 150.980469 C 115.738281 144.320312 119.761719 140.265625 124.09375 139.5625 L 124.222656 139.539062 L 124.3125 139.441406 C 127.074219 136.4375 130.042969 134.910156 133.136719 134.910156 C 142.78125 134.910156 151.027344 150.105469 152.320312 170.253906 L 152.339844 170.609375 L 167.082031 170.609375 L 167.070312 170.214844 C 166.953125 167.4375 166.828125 164.199219 166.832031 160.929688 C 166.832031 160.648438 166.828125 160.371094 166.824219 160.089844 L 166.824219 160.046875 C 166.800781 158.578125 166.777344 157.0625 167.441406 155.757812 C 169.050781 152.585938 172.253906 150.378906 175.792969 149.984375 L 175.824219 149.984375 C 177.214844 150.007812 178.820312 150.089844 180.234375 150.753906 C 181.292969 151.257812 182.101562 151.917969 182.578125 152.664062 L 182.773438 152.964844 L 183.085938 152.792969 C 184.507812 152.007812 186.148438 151.589844 187.839844 151.589844 C 189.535156 151.589844 191.15625 152.011719 192.53125 152.808594 C 194.621094 154.027344 195.308594 156.65625 195.253906 158.539062 L 195.253906 159.390625 L 195.867188 158.9375 C 197.074219 158.035156 198.550781 157.519531 200.019531 157.484375 C 200.089844 157.484375 200.152344 157.484375 200.222656 157.484375 C 202.230469 157.484375 204.234375 158.382812 205.582031 159.894531 C 206.558594 160.984375 206.519531 162.632812 206.484375 164.085938 L 206.480469 164.195312 C 206.460938 164.808594 206.394531 165.4375 206.28125 166.121094 L 206.167969 166.800781 L 206.804688 166.535156 C 207.539062 166.230469 208.300781 166.078125 209.066406 166.078125 C 209.199219 166.078125 209.328125 166.082031 209.464844 166.09375 C 211.253906 166.21875 212.980469 167.226562 213.976562 168.726562 C 214.304688 169.21875 214.574219 169.761719 214.800781 170.375 L 214.890625 170.621094 L 222.648438 170.621094 L 222.671875 170.261719 C 223.953125 150.105469 232.203125 134.910156 241.847656 134.910156 C 244.941406 134.910156 247.910156 136.4375 250.671875 139.449219 L 250.757812 139.546875 L 250.890625 139.570312 C 255.21875 140.273438 259.242188 144.328125 262.21875 150.988281 C 264.40625 155.882812 265.898438 161.929688 266.535156 168.476562 L 266.570312 168.820312 L 272.140625 168.820312 C 274.042969 168.820312 274.910156 172.417969 274.910156 175.761719 C 274.910156 179.101562 274.042969 182.699219 272.140625 182.699219 L 266.570312 182.699219 L 266.535156 183.042969 C 265.898438 189.582031 264.40625 195.628906 262.21875 200.535156 C 259.242188 207.195312 255.21875 211.25 250.890625 211.953125 L 250.757812 211.976562 L 250.671875 212.074219 C 247.910156 215.085938 244.941406 216.609375 241.847656 216.609375 C 232.203125 216.609375 223.953125 201.417969 222.664062 181.269531 L 222.640625 180.910156 L 214.84375 180.910156 L 214.796875 181.238281 C 214.742188 181.613281 214.695312 181.984375 214.648438 182.347656 C 214.539062 183.28125 214.210938 184.230469 213.648438 185.257812 L 213.59375 185.351562 L 213.601562 185.464844 C 214.03125 192.695312 212.558594 200.226562 209.339844 207.246094 C 208.671875 208.710938 208.207031 210.121094 207.714844 211.613281 L 207.675781 211.730469 C 207.335938 212.777344 207.351562 213.863281 207.371094 215.015625 L 207.371094 215.0625 C 207.394531 216.300781 207.417969 217.566406 206.957031 218.6875 L 206.925781 218.761719 L 207.765625 254.074219 L 207.761719 254.074219 C 203.78125 256.328125 196.304688 257.730469 188.234375 257.730469 Z M 188.234375 257.730469 " fill-opacity="1" fill-rule="nonzero"/><g clip-path="url(#e768c48e4e)"><path fill="#000000" d="M 272.140625 168.4375 L 266.917969 168.4375 C 266.28125 161.890625 264.792969 155.804688 262.570312 150.828125 C 259.542969 144.039062 255.417969 139.914062 250.953125 139.1875 C 248.226562 136.214844 245.128906 134.53125 241.847656 134.53125 C 231.964844 134.53125 223.585938 149.851562 222.28125 170.230469 L 215.152344 170.230469 C 214.914062 169.597656 214.632812 169.027344 214.285156 168.503906 C 213.226562 166.910156 211.382812 165.835938 209.480469 165.703125 C 208.515625 165.636719 207.554688 165.804688 206.652344 166.175781 C 206.769531 165.46875 206.835938 164.820312 206.851562 164.207031 L 206.855469 164.121094 C 206.898438 162.585938 206.945312 160.847656 205.863281 159.636719 C 204.394531 157.996094 202.214844 157.042969 200.003906 157.105469 C 198.445312 157.144531 196.894531 157.695312 195.632812 158.632812 L 195.632812 158.554688 C 195.683594 156.5625 194.949219 153.78125 192.71875 152.484375 C 189.800781 150.792969 185.90625 150.800781 182.898438 152.460938 C 182.386719 151.660156 181.511719 150.941406 180.394531 150.410156 C 178.90625 149.710938 177.253906 149.625 175.824219 149.609375 L 175.800781 149.609375 L 175.777344 149.613281 C 172.101562 150.011719 168.777344 152.300781 167.105469 155.589844 C 166.40625 156.980469 166.425781 158.542969 166.445312 160.058594 C 166.449219 160.351562 166.453125 160.644531 166.453125 160.9375 C 166.449219 164.1875 166.574219 167.417969 166.691406 170.238281 L 152.703125 170.238281 C 151.394531 149.851562 143.015625 134.53125 133.136719 134.53125 C 129.851562 134.53125 126.753906 136.214844 124.027344 139.1875 C 119.566406 139.914062 115.445312 144.042969 112.410156 150.828125 C 110.191406 155.804688 108.703125 161.890625 108.066406 168.4375 L 102.84375 168.4375 C 102.121094 168.4375 101.113281 168.855469 100.40625 170.859375 C 99.945312 172.15625 99.691406 173.894531 99.691406 175.757812 C 99.691406 179.402344 100.664062 183.078125 102.84375 183.078125 L 108.066406 183.078125 C 108.703125 189.625 110.191406 195.710938 112.410156 200.6875 C 115.441406 207.476562 119.566406 211.601562 124.027344 212.328125 C 126.757812 215.296875 129.855469 216.984375 133.136719 216.984375 C 143.015625 216.984375 151.394531 201.664062 152.699219 181.285156 L 161.101562 181.285156 C 160.957031 181.4375 160.8125 181.59375 160.664062 181.746094 C 158.230469 184.230469 159 188.5625 160.839844 191.75 C 163.671875 196.664062 166.957031 201.402344 170.128906 205.984375 C 171.324219 207.710938 172.558594 209.492188 173.753906 211.261719 C 173.742188 213.160156 173.84375 215.605469 174.660156 217.945312 L 170.027344 255.152344 L 170.296875 255.261719 C 174.617188 257.074219 181.15625 258.117188 188.238281 258.117188 C 196.371094 258.117188 203.917969 256.695312 207.949219 254.402344 L 208.148438 254.285156 L 207.300781 218.828125 C 207.796875 217.625 207.773438 216.316406 207.75 215.050781 C 207.726562 213.914062 207.707031 212.839844 208.035156 211.84375 L 208.074219 211.730469 C 208.5625 210.246094 209.023438 208.84375 209.683594 207.394531 C 212.925781 200.320312 214.410156 192.726562 213.980469 185.429688 C 214.5625 184.363281 214.90625 183.367188 215.03125 182.382812 C 215.074219 182.027344 215.125 181.65625 215.175781 181.285156 L 222.285156 181.285156 C 223.589844 201.664062 231.96875 216.984375 241.851562 216.984375 C 245.136719 216.984375 248.234375 215.296875 250.957031 212.328125 C 255.421875 211.601562 259.542969 207.472656 262.574219 200.6875 C 264.796875 195.710938 266.28125 189.625 266.921875 183.078125 L 272.140625 183.078125 C 274.316406 183.078125 275.289062 179.402344 275.289062 175.757812 C 275.289062 172.113281 274.316406 168.4375 272.140625 168.4375 Z M 272.253906 180.515625 C 270.625 180.515625 269 180.515625 269 180.515625 C 269.574219 177.371094 269.574219 174.148438 269 171.003906 C 269 171.003906 270.628906 171.003906 272.253906 171.003906 C 273.371094 171.003906 273.839844 171.398438 274.023438 171.648438 C 274.339844 172.757812 274.527344 174.175781 274.527344 175.761719 C 274.527344 177.292969 274.347656 178.726562 274.023438 179.875 C 273.839844 180.117188 273.371094 180.515625 272.253906 180.515625 Z M 258.25 144.972656 C 256.277344 142.972656 253.652344 142.445312 253.433594 142.40625 C 252.90625 141.605469 252.359375 140.851562 251.792969 140.160156 C 254.132812 140.828125 256.3125 142.503906 258.25 144.972656 Z M 248.128906 137.574219 C 245.839844 136.382812 242.089844 135.652344 236.125 137.183594 C 237.9375 135.953125 239.859375 135.292969 241.847656 135.292969 C 244.046875 135.292969 246.160156 136.097656 248.128906 137.574219 Z M 239.785156 175.757812 C 239.785156 177.296875 239.671875 178.667969 239.488281 179.847656 C 238.925781 182.148438 237.734375 183.140625 237.734375 183.140625 C 238.25 180.9375 237.875 178.480469 237.875 178.480469 C 237.421875 182.054688 235.394531 184.050781 234.824219 184.550781 C 236.019531 182.945312 236.65625 179.269531 236.65625 175.757812 C 236.65625 173.328125 236.351562 170.820312 235.773438 168.972656 L 236.625 168.972656 C 236.625 168.972656 237.480469 169.964844 238.253906 173.457031 C 238.253906 173.457031 238.367188 170.402344 237.882812 168.972656 C 237.882812 168.972656 239.421875 171.347656 239.777344 174.894531 C 239.777344 175.175781 239.785156 175.464844 239.785156 175.757812 Z M 235.894531 175.757812 C 235.894531 181.253906 234.480469 184.628906 233.460938 184.628906 C 232.902344 184.628906 232.128906 183.589844 231.59375 181.285156 L 232.449219 181.285156 C 233.730469 181.285156 234.398438 178.503906 234.398438 175.757812 C 234.398438 173.011719 233.730469 170.230469 232.449219 170.230469 L 231.59375 170.230469 C 232.128906 167.925781 232.902344 166.886719 233.460938 166.886719 C 234.480469 166.886719 235.894531 170.257812 235.894531 175.757812 Z M 233.460938 185.390625 L 237.351562 185.390625 C 239.429688 185.390625 240.550781 180.425781 240.550781 175.757812 C 240.550781 171.085938 239.429688 166.125 237.351562 166.125 L 233.460938 166.125 C 231.976562 166.125 231.179688 168.570312 230.8125 170.230469 L 229.9375 170.230469 C 230.722656 156.199219 234.453125 145.671875 238.660156 145.671875 C 240.707031 145.671875 242.726562 148.207031 244.359375 152.84375 C 246.007812 157.765625 247.066406 163.976562 247.417969 170.808594 C 247.433594 171.074219 247.445312 171.347656 247.453125 171.621094 C 247.460938 171.816406 247.464844 172.003906 247.472656 172.199219 L 247.472656 172.234375 L 247.476562 172.261719 C 247.488281 172.589844 247.5 172.921875 247.507812 173.257812 C 247.515625 173.441406 247.519531 173.621094 247.519531 173.808594 C 247.523438 173.933594 247.527344 174.058594 247.527344 174.195312 C 247.539062 174.710938 247.539062 175.230469 247.539062 175.757812 C 247.539062 176.285156 247.535156 176.800781 247.527344 177.324219 C 247.527344 177.457031 247.523438 177.582031 247.519531 177.714844 C 247.515625 177.898438 247.511719 178.078125 247.507812 178.265625 C 247.5 178.59375 247.492188 178.925781 247.480469 179.265625 L 247.476562 179.320312 C 247.46875 179.515625 247.464844 179.703125 247.453125 179.90625 C 247.445312 180.171875 247.433594 180.441406 247.421875 180.710938 C 247.070312 187.542969 246.011719 193.757812 244.351562 198.707031 C 242.726562 203.3125 240.710938 205.847656 238.660156 205.847656 C 234.449219 205.847656 230.722656 195.316406 229.933594 181.289062 L 230.8125 181.289062 C 231.183594 182.945312 231.976562 185.390625 233.460938 185.390625 Z M 245.085938 198.914062 C 245.085938 198.910156 245.085938 198.910156 245.089844 198.90625 C 246.738281 194.203125 247.835938 187.753906 248.183594 180.742188 C 248.199219 180.472656 248.210938 180.199219 248.21875 179.933594 C 248.230469 179.742188 248.234375 179.554688 248.242188 179.359375 C 248.246094 179.328125 248.246094 179.300781 248.246094 179.28125 C 248.257812 178.945312 248.269531 178.609375 248.273438 178.28125 C 248.28125 178.097656 248.285156 177.910156 248.289062 177.726562 C 248.292969 177.597656 248.296875 177.457031 248.296875 177.332031 C 248.308594 176.808594 248.308594 176.289062 248.308594 175.761719 C 248.308594 175.234375 248.304688 174.707031 248.296875 174.195312 C 248.296875 174.0625 248.292969 173.925781 248.289062 173.796875 C 248.285156 173.609375 248.28125 173.421875 248.277344 173.242188 C 248.273438 172.90625 248.265625 172.570312 248.25 172.25 C 248.25 172.21875 248.25 172.191406 248.246094 172.160156 C 248.238281 171.964844 248.234375 171.777344 248.222656 171.589844 C 248.210938 171.320312 248.199219 171.046875 248.1875 170.773438 C 248.1875 170.765625 248.1875 170.757812 248.1875 170.75 C 247.839844 163.746094 246.742188 157.308594 245.085938 152.574219 C 245.085938 152.574219 245.085938 152.574219 245.085938 152.570312 C 245.085938 152.570312 245.085938 152.570312 245.085938 152.566406 C 245.085938 152.566406 245.085938 152.566406 245.085938 152.5625 C 242.960938 146.234375 240.082031 142.75 236.976562 142.75 C 231.855469 142.75 227.5 152.414062 226.101562 166.273438 C 225.835938 167.375 225.105469 169.066406 223.136719 169.140625 C 223.894531 159.34375 226.292969 150.808594 229.679688 144.757812 C 230.707031 143.203125 233.179688 140.078125 236.464844 140.078125 C 240.832031 140.078125 246.230469 144.074219 248.796875 155.898438 C 251.328125 167.535156 254.148438 202.519531 238.976562 208.257812 C 241.292969 207.089844 243.417969 203.882812 245.085938 198.914062 Z M 212.824219 175.140625 L 212.761719 175.207031 L 212.652344 175.667969 C 212.394531 176.761719 212.105469 177.914062 211.730469 179.003906 C 211.582031 179.4375 211.429688 179.828125 211.269531 180.1875 C 211.1875 180.375 211.101562 180.558594 211.011719 180.734375 C 210.285156 182.203125 209.367188 183.332031 208.289062 184.097656 C 207.3125 184.796875 205.933594 185.027344 204.695312 184.703125 C 203.550781 184.402344 202.519531 183.628906 201.902344 182.613281 C 201.925781 182.574219 201.945312 182.539062 201.964844 182.503906 C 201.996094 182.441406 202.027344 182.378906 202.0625 182.320312 C 202.726562 181.4375 204.730469 178.582031 205.824219 175.050781 C 207.140625 170.785156 208.769531 168.242188 211.507812 168.386719 C 212.660156 168.449219 213.398438 168.910156 213.867188 169.417969 C 213.960938 169.835938 214.027344 170.25 214.054688 170.636719 C 214.097656 171.230469 214.074219 171.796875 213.992188 172.332031 C 213.882812 173.050781 213.660156 173.734375 213.335938 174.351562 C 213.066406 174.859375 212.828125 175.136719 212.824219 175.140625 Z M 192.082031 178.863281 C 191.882812 179.226562 191.660156 179.5625 191.410156 179.859375 C 190.972656 180.386719 190.472656 180.789062 189.914062 181.058594 C 188.933594 181.539062 187.707031 181.625 186.460938 181.308594 C 185.429688 181.046875 184.398438 180.53125 183.210938 179.679688 C 182.628906 179.261719 182.261719 178.625 182.0625 177.703125 C 182.238281 177.492188 182.945312 176.796875 184.480469 177.160156 C 186.089844 177.546875 191.519531 177.816406 192.082031 178.863281 Z M 206.09375 164.09375 L 206.089844 164.183594 C 206.066406 164.957031 205.960938 165.804688 205.765625 166.765625 L 205.757812 166.808594 C 205.664062 167.308594 205.542969 167.8125 205.429688 168.300781 L 205.375 168.546875 C 205.183594 169.363281 205.003906 170.1875 204.820312 171.015625 C 203.988281 174.8125 203.128906 178.734375 201.292969 182.140625 C 200.363281 183.859375 198.046875 184 197.101562 183.976562 C 195.460938 183.941406 193.835938 183.09375 192.867188 181.765625 C 192.535156 181.3125 192.285156 180.777344 192.121094 180.183594 C 192.566406 179.617188 192.9375 178.953125 193.207031 178.246094 C 193.597656 177.207031 193.789062 176.148438 193.917969 175.230469 C 194.03125 175.175781 194.140625 175.125 194.253906 175.066406 C 195.5 174.640625 199.367188 173.089844 200.15625 170.1875 C 201 167.078125 199.410156 165.777344 199.070312 165.535156 C 198.929688 165.253906 198.75 165.011719 198.527344 164.808594 C 198.554688 163.855469 198.800781 161.601562 200.402344 160.378906 C 201.84375 159.277344 203.398438 159.144531 204.214844 159.171875 C 204.605469 159.453125 204.96875 159.777344 205.292969 160.140625 C 206.171875 161.121094 206.132812 162.632812 206.09375 164.09375 Z M 196.285156 165.851562 C 195.617188 166.542969 193.476562 167.015625 190.820312 166.074219 C 188.371094 165.203125 187.550781 164.695312 187.863281 163.316406 C 190.691406 163.734375 193.558594 164.195312 196.378906 164.824219 C 196.539062 164.972656 196.78125 165.335938 196.285156 165.851562 Z M 194.871094 158.527344 L 194.839844 160.003906 C 194.816406 161.269531 194.792969 162.472656 194.703125 163.691406 C 191.796875 163.113281 188.875 162.6875 186.019531 162.273438 L 186.019531 156.308594 C 186.019531 156.308594 185.761719 151.851562 192.050781 152.984375 C 192.144531 153.035156 192.242188 153.078125 192.332031 153.132812 C 194.277344 154.261719 194.914062 156.742188 194.871094 158.527344 Z M 167.78125 155.925781 C 169.335938 152.871094 172.417969 150.742188 175.832031 150.363281 C 177.179688 150.386719 178.722656 150.460938 180.0625 151.09375 C 181.1875 151.625 182.019531 152.351562 182.40625 153.140625 C 182.550781 153.429688 182.628906 153.71875 182.65625 154.03125 C 182.894531 156.605469 182.980469 159.222656 182.925781 161.820312 C 181.410156 161.59375 179.882812 161.355469 178.371094 161.085938 C 175.964844 160.65625 172.785156 161.730469 171.839844 164.210938 C 171.675781 164.648438 171.503906 165.082031 171.324219 165.511719 L 170.769531 159.519531 L 170.714844 159.523438 L 170.714844 159.519531 C 170.714844 159.519531 170.3125 157.976562 168.433594 157.824219 C 168.433594 157.824219 169.523438 159.703125 169.203125 161.695312 C 168.933594 163.378906 167.734375 164.921875 167.292969 166.289062 C 167.238281 164.546875 167.203125 162.738281 167.207031 160.921875 C 167.207031 160.625 167.203125 160.328125 167.199219 160.03125 C 167.1875 158.617188 167.164062 157.148438 167.78125 155.925781 Z M 135.210938 174.898438 C 135.566406 171.351562 137.109375 168.976562 137.109375 168.976562 C 136.621094 170.40625 136.738281 173.460938 136.738281 173.460938 C 137.507812 169.96875 138.367188 168.976562 138.367188 168.976562 L 139.21875 168.976562 C 138.632812 170.824219 138.332031 173.332031 138.332031 175.761719 C 138.332031 179.273438 138.96875 182.949219 140.167969 184.554688 C 139.589844 184.054688 137.570312 182.058594 137.113281 178.484375 C 137.113281 178.484375 136.746094 180.941406 137.257812 183.144531 C 137.257812 183.144531 136.066406 182.152344 135.5 179.851562 C 135.316406 178.671875 135.203125 177.300781 135.203125 175.761719 C 135.195312 175.464844 135.203125 175.175781 135.210938 174.898438 Z M 139.085938 175.757812 C 139.085938 170.257812 140.503906 166.886719 141.523438 166.886719 C 142.078125 166.886719 142.851562 167.925781 143.386719 170.230469 L 142.53125 170.230469 C 141.253906 170.230469 140.582031 173.011719 140.582031 175.757812 C 140.582031 178.503906 141.253906 181.285156 142.53125 181.285156 L 143.386719 181.285156 C 142.851562 183.589844 142.078125 184.628906 141.523438 184.628906 C 140.503906 184.628906 139.085938 181.253906 139.085938 175.757812 Z M 141.523438 166.125 L 137.628906 166.125 C 135.554688 166.125 134.433594 171.085938 134.433594 175.757812 C 134.433594 180.425781 135.554688 185.390625 137.628906 185.390625 L 141.523438 185.390625 C 143.003906 185.390625 143.804688 182.945312 144.171875 181.285156 L 145.050781 181.285156 C 144.265625 195.3125 140.535156 205.84375 136.324219 205.84375 C 134.28125 205.84375 132.257812 203.308594 130.625 198.667969 C 128.976562 193.746094 127.921875 187.539062 127.570312 180.703125 C 127.558594 180.433594 127.542969 180.167969 127.535156 179.898438 C 127.523438 179.703125 127.519531 179.515625 127.511719 179.320312 L 127.511719 179.28125 L 127.507812 179.257812 C 127.496094 178.929688 127.484375 178.597656 127.476562 178.261719 C 127.46875 178.089844 127.46875 177.917969 127.464844 177.710938 C 127.460938 177.585938 127.457031 177.457031 127.457031 177.320312 C 127.449219 176.804688 127.449219 176.285156 127.449219 175.761719 C 127.449219 175.238281 127.449219 174.71875 127.457031 174.195312 C 127.457031 174.066406 127.460938 173.941406 127.464844 173.78125 C 127.46875 173.609375 127.472656 173.4375 127.476562 173.257812 C 127.484375 172.929688 127.492188 172.597656 127.503906 172.253906 L 127.507812 172.207031 C 127.515625 172.011719 127.519531 171.824219 127.53125 171.621094 C 127.542969 171.355469 127.554688 171.085938 127.566406 170.816406 C 127.566406 170.792969 127.570312 170.769531 127.570312 170.746094 C 127.925781 163.9375 128.980469 157.753906 130.632812 152.820312 C 132.25 148.207031 134.273438 145.671875 136.316406 145.671875 C 140.53125 145.671875 144.257812 156.199219 145.042969 170.230469 L 144.164062 170.230469 C 143.800781 168.566406 143.003906 166.125 141.523438 166.125 Z M 145.316406 144.761719 C 148.703125 150.808594 151.097656 159.34375 151.855469 169.140625 C 149.886719 169.066406 149.160156 167.375 148.894531 166.273438 C 147.492188 152.414062 143.136719 142.75 138.019531 142.75 C 134.914062 142.75 132.03125 146.238281 129.898438 152.597656 C 129.898438 152.601562 129.898438 152.601562 129.894531 152.605469 C 128.246094 157.3125 127.144531 163.761719 126.796875 170.777344 C 126.789062 171.046875 126.773438 171.320312 126.765625 171.582031 C 126.753906 171.777344 126.75 171.964844 126.742188 172.15625 C 126.738281 172.1875 126.738281 172.214844 126.738281 172.230469 C 126.726562 172.566406 126.714844 172.902344 126.707031 173.230469 C 126.699219 173.40625 126.699219 173.582031 126.695312 173.789062 C 126.691406 173.917969 126.6875 174.054688 126.6875 174.183594 C 126.675781 174.703125 126.675781 175.226562 126.675781 175.753906 C 126.675781 176.28125 126.679688 176.804688 126.6875 177.320312 C 126.6875 177.457031 126.691406 177.59375 126.695312 177.710938 L 126.695312 177.75 C 126.699219 177.925781 126.703125 178.101562 126.707031 178.273438 C 126.714844 178.605469 126.722656 178.941406 126.738281 179.261719 C 126.738281 179.292969 126.738281 179.324219 126.742188 179.355469 C 126.75 179.550781 126.753906 179.738281 126.765625 179.921875 C 126.777344 180.191406 126.789062 180.464844 126.800781 180.738281 C 127.148438 187.75 128.25 194.199219 129.90625 198.933594 C 129.90625 198.9375 129.90625 198.9375 129.90625 198.941406 C 131.566406 203.882812 133.6875 207.085938 136.015625 208.25 C 120.851562 202.511719 123.671875 167.53125 126.199219 155.898438 C 128.769531 144.078125 134.164062 140.078125 138.535156 140.078125 C 141.816406 140.078125 144.292969 143.207031 145.316406 144.761719 Z M 138.859375 137.183594 C 132.890625 135.652344 129.144531 136.386719 126.851562 137.574219 C 128.820312 136.097656 130.933594 135.292969 133.136719 135.292969 C 135.125 135.292969 137.046875 135.957031 138.859375 137.183594 Z M 123.191406 140.160156 C 122.625 140.851562 122.078125 141.605469 121.550781 142.40625 C 121.332031 142.445312 118.707031 142.972656 116.734375 144.972656 C 118.664062 142.503906 120.851562 140.828125 123.191406 140.160156 Z M 100.953125 171.644531 C 101.140625 171.398438 101.609375 171 102.726562 171 C 104.355469 171 105.980469 171 105.980469 171 C 105.402344 174.144531 105.402344 177.367188 105.980469 180.511719 C 105.980469 180.511719 104.351562 180.511719 102.726562 180.511719 C 101.605469 180.511719 101.136719 180.113281 100.953125 179.867188 C 100.636719 178.761719 100.453125 177.339844 100.453125 175.757812 C 100.453125 174.171875 100.636719 172.753906 100.953125 171.644531 Z M 108.472656 175.757812 C 108.472656 167.03125 109.976562 158.960938 112.472656 152.691406 C 112.367188 153.230469 112.1875 154.367188 112.277344 155.597656 C 112.277344 155.597656 113.007812 152.8125 115.1875 150.929688 C 115.1875 150.929688 114.761719 152.726562 114.886719 154.566406 C 114.886719 154.566406 115.9375 151.902344 117.730469 150.003906 C 115.015625 157.066406 113.390625 166.019531 113.390625 175.753906 C 113.390625 179.398438 113.621094 182.925781 114.046875 186.296875 C 113.097656 184.800781 112.191406 182.367188 112.191406 182.367188 C 111.933594 184.613281 112.320312 186.863281 112.320312 186.863281 C 111.417969 186.222656 109.941406 183.140625 109.941406 183.140625 C 112.011719 203.6875 121.445312 209.382812 121.914062 209.65625 C 122.328125 210.253906 122.75 210.824219 123.1875 211.351562 C 114.855469 208.980469 108.472656 193.757812 108.472656 175.757812 Z M 133.136719 216.222656 C 122.671875 216.222656 114.160156 198.070312 114.160156 175.757812 C 114.160156 160.214844 118.289062 146.691406 124.335938 139.917969 C 126.675781 137.941406 131.179688 137.90625 131.976562 138.9375 C 132.871094 140.09375 131.660156 141.183594 131.660156 141.183594 C 125.8125 147.738281 123.628906 155.0625 123.628906 155.0625 C 119.710938 167.207031 121.660156 186.050781 121.660156 186.050781 C 120.972656 185.066406 119.863281 181.722656 119.863281 181.722656 C 119.734375 183.183594 119.804688 186.121094 119.804688 186.121094 C 118.777344 184.191406 117.890625 181.894531 117.890625 181.894531 C 117.675781 184.167969 117.71875 186.222656 117.71875 186.222656 C 116.949219 185.109375 115.847656 182.371094 115.847656 182.371094 C 116.933594 199.554688 123.074219 207.511719 123.074219 207.511719 C 122.476562 205.929688 122.347656 203.914062 122.347656 203.914062 C 130.058594 220.230469 139.628906 211.441406 139.628906 211.441406 C 136.386719 212.324219 134.21875 210.703125 134.21875 210.703125 C 146.957031 211.570312 148.109375 194.867188 148.109375 194.867188 C 147.324219 197.550781 145.625 200.769531 144.941406 202.015625 C 146.867188 197.738281 148.304688 191.667969 148.96875 184.535156 C 149.214844 183.664062 149.90625 182.4375 151.863281 182.378906 C 150.355469 201.773438 142.429688 216.222656 133.136719 216.222656 Z M 142.53125 180.523438 C 142.128906 180.523438 141.347656 178.839844 141.347656 175.757812 C 141.347656 172.675781 142.128906 170.992188 142.53125 170.992188 L 168.683594 170.992188 C 168.417969 171.460938 168.148438 171.925781 167.871094 172.386719 L 145.289062 172.386719 C 144.851562 172.386719 144.476562 173.273438 144.328125 174.527344 L 166.507812 174.527344 C 166.230469 174.941406 165.945312 175.351562 165.65625 175.757812 L 144.257812 175.757812 C 144.257812 177.621094 144.722656 179.125 145.289062 179.125 L 163.03125 179.125 C 162.632812 179.597656 162.226562 180.066406 161.808594 180.523438 Z M 214.265625 182.292969 C 214.15625 183.207031 213.824219 184.144531 213.253906 185.152344 L 213.199219 185.253906 L 213.203125 185.308594 C 212.886719 185.582031 211.035156 187.207031 210.609375 188.300781 C 210.195312 189.351562 212.902344 190.160156 212.933594 193.351562 C 212.449219 197.195312 211.449219 201.03125 209.96875 204.761719 C 209.195312 205.882812 205.34375 210.832031 196.253906 213.105469 C 196.253906 213.105469 200.304688 214.390625 203.835938 213.808594 C 203.835938 213.808594 204.59375 216.253906 203.1875 217.730469 C 201.777344 219.207031 193.558594 224.28125 193.558594 224.28125 L 193.042969 239.960938 L 198.4375 228.460938 C 198.4375 228.460938 198.960938 240.652344 198.757812 248.957031 C 198.757812 248.957031 194.105469 256.972656 185.273438 257.292969 C 179.597656 257.050781 174.464844 256.132812 170.847656 254.671875 L 173.777344 231.1875 L 177.175781 217.730469 C 181.027344 218.183594 183.535156 216.832031 183.535156 216.832031 C 178.195312 215.625 175.105469 211.890625 174.511719 211.113281 L 174.511719 211.03125 L 174.445312 210.933594 C 173.230469 209.128906 171.972656 207.3125 170.75 205.554688 C 167.582031 200.984375 164.308594 196.261719 161.492188 191.371094 C 159.851562 188.53125 159.058594 184.472656 161.199219 182.285156 C 166.132812 177.238281 170.0625 171.082031 172.554688 164.492188 C 172.910156 163.550781 173.6875 162.847656 174.625 162.386719 L 174.691406 162.550781 C 174.761719 162.710938 174.828125 162.867188 174.902344 163.023438 C 175.046875 163.332031 175.199219 163.632812 175.351562 163.929688 C 175.660156 164.527344 175.976562 165.113281 176.300781 165.695312 C 176.15625 165.042969 176.015625 164.394531 175.894531 163.742188 C 175.832031 163.417969 175.773438 163.089844 175.726562 162.769531 C 175.703125 162.609375 175.679688 162.449219 175.660156 162.289062 L 175.636719 162.058594 L 175.632812 162.003906 C 175.929688 161.917969 176.234375 161.859375 176.539062 161.820312 C 176.53125 162.109375 176.539062 162.390625 176.550781 162.679688 C 176.566406 163.125 176.609375 163.566406 176.660156 164.007812 C 176.765625 164.882812 176.921875 165.75 177.125 166.597656 C 177.113281 165.722656 177.148438 164.855469 177.230469 164 C 177.277344 163.570312 177.332031 163.148438 177.40625 162.726562 C 177.464844 162.410156 177.535156 162.074219 177.613281 161.777344 C 177.828125 161.789062 178.039062 161.808594 178.242188 161.847656 C 180.683594 162.28125 183.15625 162.640625 185.550781 162.988281 C 185.847656 163.03125 186.144531 163.074219 186.441406 163.117188 C 186.152344 163.898438 186.089844 165.40625 189.320312 166.300781 C 193.546875 167.46875 197.492188 167.125 197.851562 165.265625 C 199.0625 166.058594 198.695312 168.601562 198.597656 169.152344 C 198.339844 170.664062 197.367188 172.136719 195.9375 173.195312 C 192.148438 175.992188 186.460938 176.648438 181.789062 174.832031 L 181.328125 174.652344 L 181.324219 174.679688 C 181.027344 174.398438 179.207031 172.585938 177.5625 169.238281 C 177.5625 169.238281 177.039062 175.496094 180.359375 178.304688 C 180.3125 178.414062 180.257812 178.515625 180.203125 178.617188 C 179.394531 179.648438 175.917969 183.195312 166.257812 183.308594 C 166.257812 183.308594 169.535156 184.527344 172.621094 183.757812 C 172.621094 183.757812 171.332031 185.363281 168.441406 186.132812 C 168.441406 186.132812 172.234375 186.390625 174.226562 184.722656 C 174.226562 184.722656 173.199219 187.484375 169.726562 189.925781 C 169.726562 189.925781 175.285156 188.746094 179.429688 181.757812 C 181.578125 182.816406 192.175781 188.355469 194.925781 195.964844 C 194.925781 195.964844 195.261719 192.175781 193.160156 187.101562 C 193.160156 187.101562 198.796875 185.484375 204.96875 185.554688 C 205.25 185.601562 205.542969 185.628906 205.828125 185.628906 C 206.875 185.628906 207.917969 185.316406 208.730469 184.734375 C 209.855469 183.933594 210.8125 182.777344 211.582031 181.300781 L 214.398438 181.300781 C 214.355469 181.621094 214.304688 181.960938 214.265625 182.292969 Z M 211.949219 180.523438 C 211.953125 180.511719 211.957031 180.503906 211.964844 180.492188 C 212.132812 180.109375 212.292969 179.707031 212.449219 179.25 C 212.464844 179.207031 212.476562 179.164062 212.492188 179.121094 L 229.695312 179.121094 C 230.261719 179.121094 230.726562 177.617188 230.726562 175.753906 L 213.417969 175.753906 L 213.464844 175.5625 C 213.566406 175.433594 213.78125 175.140625 214.015625 174.703125 C 214.046875 174.648438 214.066406 174.585938 214.097656 174.527344 L 230.65625 174.527344 C 230.507812 173.273438 230.132812 172.386719 229.699219 172.386719 L 214.753906 172.386719 C 214.824219 171.941406 214.851562 171.476562 214.839844 170.992188 L 232.457031 170.992188 C 232.863281 170.992188 233.644531 172.675781 233.644531 175.757812 C 233.644531 178.839844 232.863281 180.523438 232.457031 180.523438 Z M 241.847656 216.222656 C 232.554688 216.222656 224.632812 201.773438 223.125 182.375 C 225.082031 182.433594 225.777344 183.660156 226.019531 184.53125 C 226.683594 191.667969 228.125 197.734375 230.050781 202.015625 C 229.363281 200.765625 227.664062 197.546875 226.878906 194.867188 C 226.878906 194.867188 228.03125 211.570312 240.769531 210.703125 C 240.769531 210.703125 238.605469 212.324219 235.359375 211.441406 C 235.359375 211.441406 244.933594 220.230469 252.644531 203.914062 C 252.644531 203.914062 252.515625 205.929688 251.914062 207.511719 C 251.914062 207.511719 258.058594 199.554688 259.140625 182.367188 C 259.140625 182.367188 258.042969 185.113281 257.273438 186.222656 C 257.273438 186.222656 257.3125 184.167969 257.101562 181.894531 C 257.101562 181.894531 256.214844 184.191406 255.183594 186.121094 C 255.183594 186.121094 255.257812 183.179688 255.128906 181.722656 C 255.128906 181.722656 254.011719 185.066406 253.332031 186.050781 C 253.332031 186.050781 255.28125 167.207031 251.363281 155.0625 C 251.363281 155.0625 249.175781 147.738281 243.332031 141.1875 C 243.332031 141.1875 242.117188 140.097656 243.015625 138.941406 C 243.8125 137.910156 248.308594 137.945312 250.65625 139.921875 C 256.699219 146.695312 260.832031 160.21875 260.832031 175.761719 C 260.824219 198.070312 252.3125 216.222656 241.847656 216.222656 Z M 251.792969 211.351562 C 252.226562 210.824219 252.652344 210.25 253.0625 209.65625 C 253.53125 209.382812 262.972656 203.691406 265.035156 183.140625 C 265.035156 183.140625 263.558594 186.222656 262.660156 186.863281 C 262.660156 186.863281 263.042969 184.617188 262.789062 182.367188 C 262.789062 182.367188 261.878906 184.800781 260.929688 186.296875 C 261.359375 182.929688 261.585938 179.398438 261.585938 175.753906 C 261.585938 166.015625 259.960938 157.0625 257.25 150.003906 C 259.042969 151.902344 260.089844 154.566406 260.089844 154.566406 C 260.222656 152.726562 259.789062 150.929688 259.789062 150.929688 C 261.976562 152.8125 262.699219 155.597656 262.699219 155.597656 C 262.792969 154.367188 262.613281 153.230469 262.507812 152.691406 C 265 158.960938 266.503906 167.03125 266.503906 175.757812 C 266.507812 193.757812 260.125 208.980469 251.792969 211.351562 Z M 190.390625 227.320312 C 190.390625 227.320312 189.105469 229.246094 188.59375 231.609375 C 188.082031 233.96875 190.136719 237.34375 190.136719 237.34375 Z M 180.710938 212.070312 C 180.710938 212.070312 188.078125 212.800781 191.804688 212.628906 C 195.535156 212.457031 199.984375 208.085938 199.984375 208.085938 C 193.773438 210.570312 180.710938 212.070312 180.710938 212.070312 Z M 177.101562 152.1875 C 177.730469 152.132812 178.367188 152.101562 179.003906 152.105469 C 179.644531 152.109375 180.285156 152.144531 180.957031 152.175781 C 180.367188 151.84375 179.71875 151.636719 179.054688 151.519531 C 178.390625 151.402344 177.710938 151.371094 177.035156 151.425781 C 176.359375 151.484375 175.691406 151.632812 175.058594 151.867188 C 174.425781 152.09375 173.820312 152.410156 173.300781 152.84375 C 173.957031 152.699219 174.589844 152.558594 175.21875 152.441406 C 175.847656 152.324219 176.472656 152.246094 177.101562 152.1875 Z M 176.507812 152.992188 C 176.046875 153.085938 175.59375 153.230469 175.171875 153.429688 C 174.75 153.632812 174.339844 153.882812 173.996094 154.214844 C 174.476562 154.171875 174.921875 154.082031 175.363281 154 L 176.664062 153.734375 L 177.964844 153.460938 C 178.402344 153.363281 178.847656 153.265625 179.304688 153.121094 C 178.855469 152.949219 178.378906 152.886719 177.910156 152.867188 C 177.4375 152.855469 176.964844 152.898438 176.507812 152.992188 Z M 197.152344 181.890625 C 196.640625 181.847656 196.128906 181.765625 195.621094 181.632812 C 195.113281 181.5 194.613281 181.320312 194.082031 181.105469 C 194.417969 181.570312 194.890625 181.933594 195.40625 182.191406 C 195.925781 182.445312 196.503906 182.605469 197.085938 182.65625 C 197.671875 182.703125 198.261719 182.644531 198.820312 182.476562 C 199.371094 182.308594 199.898438 182.035156 200.304688 181.628906 C 199.75 181.75 199.226562 181.847656 198.703125 181.890625 C 198.179688 181.933594 197.667969 181.933594 197.152344 181.890625 Z M 196.375 180.71875 C 196.753906 180.910156 197.167969 181.042969 197.589844 181.101562 C 198.011719 181.164062 198.445312 181.15625 198.859375 181.074219 C 199.277344 180.992188 199.679688 180.84375 200.027344 180.582031 C 199.601562 180.539062 199.210938 180.519531 198.828125 180.476562 C 198.445312 180.441406 198.070312 180.402344 197.699219 180.347656 C 197.332031 180.292969 196.960938 180.230469 196.582031 180.152344 C 196.207031 180.078125 195.824219 179.988281 195.398438 179.914062 C 195.65625 180.261719 196.003906 180.519531 196.375 180.71875 Z M 206.613281 182.863281 C 206.183594 182.894531 205.746094 182.902344 205.304688 182.878906 C 204.863281 182.863281 204.414062 182.8125 203.925781 182.761719 C 204.28125 183.101562 204.726562 183.328125 205.203125 183.46875 C 205.675781 183.609375 206.175781 183.660156 206.667969 183.621094 C 207.160156 183.585938 207.648438 183.460938 208.09375 183.253906 C 208.535156 183.042969 208.949219 182.757812 209.253906 182.371094 C 208.78125 182.492188 208.34375 182.609375 207.910156 182.691406 C 207.476562 182.777344 207.046875 182.832031 206.613281 182.863281 Z M 193.425781 199.085938 C 193.847656 200.289062 194.167969 201.527344 194.410156 202.789062 C 194.644531 204.046875 194.789062 205.328125 194.875 206.632812 C 195.105469 205.34375 195.128906 204.015625 194.996094 202.703125 C 194.871094 201.386719 194.570312 200.089844 194.140625 198.839844 C 193.703125 197.59375 193.132812 196.386719 192.421875 195.277344 C 191.710938 194.160156 190.871094 193.132812 189.894531 192.261719 C 190.636719 193.339844 191.3125 194.4375 191.90625 195.574219 C 192.5 196.710938 193.015625 197.878906 193.425781 199.085938 Z M 191.507812 207.707031 C 191.910156 207.09375 192.1875 206.414062 192.375 205.707031 C 192.5625 205 192.660156 204.269531 192.667969 203.53125 C 192.675781 202.800781 192.589844 202.0625 192.417969 201.355469 C 192.242188 200.644531 191.976562 199.953125 191.59375 199.335938 C 191.683594 200.054688 191.777344 200.753906 191.832031 201.449219 C 191.890625 202.144531 191.914062 202.832031 191.910156 203.523438 C 191.902344 204.214844 191.863281 204.90625 191.792969 205.597656 C 191.714844 206.289062 191.613281 206.984375 191.507812 207.707031 Z M 189.605469 253.097656 C 188.597656 253.523438 187.558594 253.875 186.507812 254.191406 C 185.453125 254.5 184.378906 254.757812 183.28125 255.003906 C 184.40625 255.074219 185.539062 254.980469 186.644531 254.769531 C 187.753906 254.566406 188.84375 254.234375 189.890625 253.804688 C 190.9375 253.367188 191.945312 252.84375 192.878906 252.207031 C 193.8125 251.578125 194.6875 250.847656 195.433594 250.007812 C 194.484375 250.609375 193.539062 251.179688 192.574219 251.699219 C 191.605469 252.214844 190.621094 252.691406 189.605469 253.097656 Z M 201.835938 208.519531 C 201.222656 209.023438 200.59375 209.503906 199.96875 210 C 199.335938 210.488281 198.699219 210.972656 198.070312 211.5 C 198.851562 211.25 199.59375 210.898438 200.300781 210.492188 C 201.007812 210.089844 201.675781 209.617188 202.316406 209.113281 C 202.945312 208.59375 203.550781 208.046875 204.09375 207.4375 C 204.644531 206.835938 205.144531 206.191406 205.554688 205.476562 C 204.90625 205.980469 204.296875 206.496094 203.6875 207.007812 C 203.066406 207.515625 202.457031 208.027344 201.835938 208.519531 Z M 122.601562 152.878906 C 122.601562 152.878906 125.300781 146.839844 128.0625 143.753906 C 130.824219 140.671875 128.832031 139.257812 125.941406 141.25 C 123.046875 143.242188 119.902344 147.804688 118.039062 156.023438 C 118.039062 156.023438 119.902344 152.105469 122.792969 148.894531 C 122.792969 148.894531 122.34375 150.4375 122.601562 152.878906 Z M 249.042969 141.25 C 246.148438 139.257812 244.160156 140.667969 246.921875 143.753906 C 249.683594 146.839844 252.378906 152.878906 252.378906 152.878906 C 252.636719 150.4375 252.1875 148.894531 252.1875 148.894531 C 255.078125 152.105469 256.941406 156.023438 256.941406 156.023438 C 255.082031 147.804688 251.933594 143.242188 249.042969 141.25 Z M 249.042969 141.25 " fill-opacity="1" fill-rule="nonzero"/></g><g clip-path="url(#7a6f3e42d6)"><g clip-path="url(#b466ac9d0f)"><path fill="#f5f0e9" d="M 90.65625 133.632812 L 107.203125 133.632812 L 107.203125 150.179688 L 90.65625 150.179688 Z M 90.65625 133.632812 " fill-opacity="1" fill-rule="nonzero"/></g></g><g fill="#f5f0e9" fill-opacity="1"><g transform="translate(119.294362, 130.589233)"><g><path d="M 3.296875 2.4375 L 9.375 -2.84375 L 6.609375 -6.015625 L 5.15625 -4.75 L 0.0625 -10.625 L 4.046875 -14.078125 L 1.328125 -17.21875 L -2.65625 -13.765625 L -6.1875 -17.828125 L -2.203125 -21.28125 L 0.140625 -18.578125 L 3.3125 -21.34375 L -1.78125 -27.21875 L -13.5625 -16.984375 L -10.8125 -13.8125 L -9.359375 -15.078125 L 1.984375 -2 L 0.53125 -0.734375 Z M 3.296875 2.4375 "/></g></g></g><g fill="#f5f0e9" fill-opacity="1"><g transform="translate(137.291954, 116.250353)"><g><path d="M 2.734375 3.0625 L 9.75 -0.859375 L 7.703125 -4.53125 L 6.03125 -3.59375 L -2.40625 -18.71875 L -0.734375 -19.65625 L -2.78125 -23.328125 L -9.796875 -19.40625 L -7.75 -15.734375 L -6.078125 -16.671875 L 2.359375 -1.546875 L 0.6875 -0.609375 Z M 2.734375 3.0625 "/></g></g></g><g fill="#f5f0e9" fill-opacity="1"><g transform="translate(150.842582, 108.797506)"><g><path d="M -2.78125 -12.28125 L 1.078125 -13.453125 L -0.359375 -18.203125 L 2.140625 -18.953125 L 7.15625 -2.375 L 5.328125 -1.8125 L 6.546875 2.203125 L 14.234375 -0.140625 L 13.015625 -4.15625 L 11.1875 -3.59375 L 6.171875 -20.171875 L 8.671875 -20.921875 L 10.109375 -16.171875 L 13.96875 -17.34375 L 11.3125 -26.109375 L -5.4375 -21.046875 Z M -2.78125 -12.28125 "/></g></g></g><g fill="#f5f0e9" fill-opacity="1"><g transform="translate(174.59476, 102.432347)"><g><path d="M 1.0625 3.96875 L 9.09375 3.625 L 8.90625 -0.578125 L 7 -0.5 L 6.6875 -8.28125 L 11.9375 -8.5 L 11.75 -12.640625 L 6.5 -12.421875 L 6.28125 -17.796875 L 11.53125 -18.015625 L 11.6875 -14.4375 L 15.890625 -14.609375 L 15.5625 -22.390625 L -0.015625 -21.734375 L 0.15625 -17.53125 L 2.078125 -17.625 L 2.796875 -0.328125 L 0.875 -0.234375 Z M 1.0625 3.96875 "/></g></g></g><g fill="#f5f0e9" fill-opacity="1"><g transform="translate(197.343245, 102.133238)"><g><path d="M 5.203125 -21.109375 L 4.375 -16.984375 L 6.25 -16.59375 L 2.796875 0.359375 L 0.921875 -0.03125 L 0.078125 4.09375 L 15.359375 7.203125 L 17.390625 -2.8125 L 13.265625 -3.640625 L 12.078125 2.25 L 6.921875 1.203125 L 10.375 -15.75 L 12.265625 -15.375 L 13.09375 -19.5 Z M 5.203125 -21.109375 "/></g></g></g><g fill="#f5f0e9" fill-opacity="1"><g transform="translate(219.497068, 107.309287)"><g><path d="M 0.890625 0.1875 L -0.921875 3.984375 L 13.171875 10.6875 L 17.265625 2.078125 L 13.46875 0.265625 L 11.1875 5.078125 L 6.4375 2.828125 L 9.78125 -4.21875 L 14.53125 -1.96875 L 16.34375 -5.796875 L 11.59375 -8.046875 L 13.859375 -12.8125 L 18.609375 -10.5625 L 17.09375 -7.375 L 20.890625 -5.5625 L 24.203125 -12.546875 L 10.109375 -19.25 L 8.3125 -15.453125 L 10.0625 -14.625 L 2.640625 1.015625 Z M 0.890625 0.1875 "/></g></g></g><g fill="#f5f0e9" fill-opacity="1"><g transform="translate(239.750748, 117.475238)"><g><path d="M -1.890625 3.640625 L 4.65625 9.171875 L 7.359375 5.953125 L 5.765625 4.59375 L 10.84375 2.75 L 9.875 8.0625 L 8.375 6.796875 L 5.671875 10.015625 L 12.265625 15.578125 L 14.96875 12.359375 L 13.390625 11.015625 L 15.140625 1.1875 L 24.53125 -2.234375 L 26.140625 -0.875 L 28.84375 -4.09375 L 22.25 -9.65625 L 19.546875 -6.4375 L 21.046875 -5.171875 L 15.90625 -3.265625 L 16.796875 -8.75 L 18.53125 -7.28125 L 21.234375 -10.5 L 14.6875 -16.03125 L 11.984375 -12.8125 L 13.421875 -11.59375 L 11.65625 -1.75 L 2.296875 1.671875 L 0.8125 0.421875 Z M -1.890625 3.640625 "/></g></g></g><g clip-path="url(#ecd3f094b6)"><g clip-path="url(#4bf581ac09)"><path fill="#f5f0e9" d="M 267.796875 133.65625 L 284.34375 133.65625 L 284.34375 150.203125 L 267.796875 150.203125 Z M 267.796875 133.65625 " fill-opacity="1" fill-rule="nonzero"/></g></g><g fill="#ffffff" fill-opacity="1"><g transform="translate(105.536122, 250.524057)"><g><path d="M 21.125 -5.890625 L 22.78125 -3.890625 C 22.957031 -3.679688 22.945312 -3.492188 22.75 -3.328125 L 7.9375 8.9375 C 7.726562 9.113281 7.535156 9.097656 7.359375 8.890625 L 5.78125 6.984375 C 5.632812 6.804688 5.617188 6.617188 5.734375 6.421875 L 11.53125 -3.34375 L 11.453125 -3.4375 L 3.28125 3.328125 C 3.070312 3.503906 2.882812 3.488281 2.71875 3.28125 L 1.0625 1.28125 C 0.882812 1.070312 0.898438 0.878906 1.109375 0.703125 L 15.921875 -11.5625 C 16.117188 -11.726562 16.304688 -11.707031 16.484375 -11.5 L 18.046875 -9.609375 C 18.203125 -9.421875 18.222656 -9.234375 18.109375 -9.046875 L 12.328125 0.6875 L 12.4375 0.796875 L 20.578125 -5.953125 C 20.773438 -6.117188 20.957031 -6.097656 21.125 -5.890625 Z M 21.125 -5.890625 "/></g></g></g><g fill="#ffffff" fill-opacity="1"><g transform="translate(118.75327, 265.420787)"><g><path d="M 19.546875 -6.125 L 17.96875 -4.1875 C 17.789062 -3.96875 17.597656 -3.941406 17.390625 -4.109375 L 12.609375 -8.03125 L 10.15625 -5.046875 L 13.796875 -2.0625 C 14.003906 -1.894531 14.019531 -1.703125 13.84375 -1.484375 L 12.28125 0.4375 C 12.101562 0.65625 11.910156 0.679688 11.703125 0.515625 L 8.0625 -2.46875 L 5.703125 0.390625 L 10.484375 4.3125 C 10.691406 4.476562 10.710938 4.664062 10.546875 4.875 L 8.953125 6.8125 C 8.785156 7.019531 8.597656 7.039062 8.390625 6.875 L 1.25 1.03125 C 1.0625 0.875 1.050781 0.691406 1.21875 0.484375 L 11.8125 -12.453125 C 11.988281 -12.660156 12.171875 -12.6875 12.359375 -12.53125 L 19.5 -6.6875 C 19.707031 -6.519531 19.722656 -6.332031 19.546875 -6.125 Z M 19.546875 -6.125 "/></g></g></g><g fill="#ffffff" fill-opacity="1"><g transform="translate(133.999907, 277.109424)"><g><path d="M 16.765625 -10.890625 L 18.765625 -9.8125 C 19.109375 -9.625 19.15625 -9.390625 18.90625 -9.109375 L 7.5625 3.546875 C 7.351562 3.785156 7.117188 3.835938 6.859375 3.703125 L 4.65625 2.5 C 4.40625 2.363281 4.316406 2.144531 4.390625 1.84375 L 8.734375 -14.578125 C 8.835938 -14.941406 9.0625 -15.035156 9.40625 -14.859375 L 11.390625 -13.78125 C 11.660156 -13.632812 11.753906 -13.410156 11.671875 -13.109375 L 8.484375 -1.984375 L 16.0625 -10.75 C 16.28125 -10.976562 16.515625 -11.023438 16.765625 -10.890625 Z M 16.765625 -10.890625 "/></g></g></g><g fill="#ffffff" fill-opacity="1"><g transform="translate(151.751676, 285.899466)"><g><path d="M 15.828125 -13.015625 L 15.09375 -10.625 C 15.007812 -10.351562 14.835938 -10.257812 14.578125 -10.34375 L 8.671875 -12.1875 L 7.53125 -8.5 L 12.03125 -7.09375 C 12.28125 -7.007812 12.363281 -6.832031 12.28125 -6.5625 L 11.53125 -4.203125 C 11.445312 -3.929688 11.28125 -3.835938 11.03125 -3.921875 L 6.53125 -5.328125 L 5.4375 -1.78125 L 11.34375 0.0625 C 11.601562 0.144531 11.691406 0.3125 11.609375 0.5625 L 10.875 2.953125 C 10.789062 3.210938 10.617188 3.300781 10.359375 3.21875 L 1.546875 0.484375 C 1.304688 0.410156 1.226562 0.242188 1.3125 -0.015625 L 6.265625 -15.984375 C 6.347656 -16.234375 6.507812 -16.320312 6.75 -16.25 L 15.5625 -13.515625 C 15.820312 -13.429688 15.910156 -13.265625 15.828125 -13.015625 Z M 15.828125 -13.015625 "/></g></g></g><g fill="#ffffff" fill-opacity="1"><g transform="translate(170.243961, 290.986356)"><g><path d="M 12.75 -12.5625 L 12.1875 -7.5625 C 12.019531 -6.125 11.445312 -5.164062 10.46875 -4.6875 L 11.15625 0.796875 C 11.195312 1.109375 11.0625 1.242188 10.75 1.203125 L 8.3125 0.9375 C 8.082031 0.90625 7.953125 0.773438 7.921875 0.546875 L 7.28125 -4.5 L 5.078125 -4.75 L 4.53125 0.09375 C 4.5 0.363281 4.347656 0.484375 4.078125 0.453125 L 1.640625 0.1875 C 1.367188 0.15625 1.25 0.00390625 1.28125 -0.265625 L 3.15625 -16.875 C 3.1875 -17.144531 3.335938 -17.265625 3.609375 -17.234375 L 9.59375 -16.5625 C 10.757812 -16.425781 11.609375 -16.019531 12.140625 -15.34375 C 12.671875 -14.675781 12.875 -13.75 12.75 -12.5625 Z M 5.4375 -7.96875 L 7.921875 -7.6875 C 8.585938 -7.613281 8.957031 -7.90625 9.03125 -8.5625 L 9.453125 -12.328125 C 9.523438 -12.984375 9.226562 -13.347656 8.5625 -13.421875 L 6.078125 -13.703125 Z M 5.4375 -7.96875 "/></g></g></g><g fill="#ffffff" fill-opacity="1"><g transform="translate(189.05719, 292.365099)"><g/></g></g><g fill="#ffffff" fill-opacity="1"><g transform="translate(201.728833, 291.596982)"><g><path d="M 5.921875 -21.6875 L 8.375 -22.203125 C 8.5625 -22.234375 8.703125 -22.207031 8.796875 -22.125 C 8.898438 -22.050781 8.929688 -21.921875 8.890625 -21.734375 L 6.6875 -9.875 L 8.265625 -2.21875 C 8.335938 -1.894531 8.207031 -1.703125 7.875 -1.640625 L 5.515625 -1.140625 C 5.191406 -1.078125 4.992188 -1.207031 4.921875 -1.53125 L 3.34375 -9.1875 L -3.421875 -19.171875 C -3.523438 -19.335938 -3.550781 -19.472656 -3.5 -19.578125 C -3.445312 -19.691406 -3.328125 -19.765625 -3.140625 -19.796875 L -0.703125 -20.3125 C -0.421875 -20.363281 -0.203125 -20.273438 -0.046875 -20.046875 L 4.171875 -13.578125 L 5.4375 -21.1875 C 5.488281 -21.46875 5.648438 -21.632812 5.921875 -21.6875 Z M 5.921875 -21.6875 "/></g></g></g><g fill="#ffffff" fill-opacity="1"><g transform="translate(221.180156, 286.71945)"><g><path d="M 1.546875 -0.59375 L 3.984375 -1.515625 C 4.222656 -1.609375 4.296875 -1.78125 4.203125 -2.03125 L -1.765625 -17.65625 C -1.859375 -17.90625 -2.023438 -17.984375 -2.265625 -17.890625 L -4.703125 -16.96875 C -4.953125 -16.875 -5.03125 -16.703125 -4.9375 -16.453125 L 1.03125 -0.828125 C 1.125 -0.578125 1.296875 -0.5 1.546875 -0.59375 Z M 1.546875 -0.59375 "/></g></g></g><g fill="#ffffff" fill-opacity="1"><g transform="translate(232.549074, 282.128837)"><g><path d="M 1.296875 -20.4375 L 2.546875 -18.265625 C 2.679688 -18.023438 2.628906 -17.84375 2.390625 -17.71875 L -2.984375 -14.65625 L -1.078125 -11.296875 L 3.015625 -13.625 C 3.242188 -13.75 3.429688 -13.691406 3.578125 -13.453125 L 4.796875 -11.296875 C 4.941406 -11.046875 4.898438 -10.859375 4.671875 -10.734375 L 0.578125 -8.40625 L 2.40625 -5.1875 L 7.78125 -8.25 C 8.019531 -8.375 8.207031 -8.320312 8.34375 -8.09375 L 9.578125 -5.921875 C 9.710938 -5.679688 9.660156 -5.5 9.421875 -5.375 L 1.40625 -0.796875 C 1.195312 -0.679688 1.023438 -0.742188 0.890625 -0.984375 L -7.390625 -15.5 C -7.515625 -15.738281 -7.472656 -15.914062 -7.265625 -16.03125 L 0.75 -20.609375 C 0.988281 -20.734375 1.171875 -20.675781 1.296875 -20.4375 Z M 1.296875 -20.4375 "/></g></g></g><g fill="#ffffff" fill-opacity="1"><g transform="translate(248.817254, 272.104353)"><g><path d="M 1.421875 -5.53125 L -7.46875 -16.09375 C -7.644531 -16.300781 -7.832031 -16.320312 -8.03125 -16.15625 L -10.03125 -14.46875 C -10.238281 -14.300781 -10.253906 -14.113281 -10.078125 -13.90625 L 0.6875 -1.125 C 0.863281 -0.914062 1.054688 -0.894531 1.265625 -1.0625 L 7.359375 -6.203125 C 7.554688 -6.367188 7.566406 -6.554688 7.390625 -6.765625 L 5.78125 -8.671875 C 5.601562 -8.878906 5.414062 -8.898438 5.21875 -8.734375 Z M 1.421875 -5.53125 "/></g></g></g><g fill="#ffffff" fill-opacity="1"><g transform="translate(262.138546, 260.161435)"><g><path d="M 0.484375 -1.234375 L -12.4375 -11.84375 C -12.644531 -12.007812 -12.664062 -12.195312 -12.5 -12.40625 L -8.671875 -17.046875 C -7.929688 -17.960938 -7.125 -18.457031 -6.25 -18.53125 C -5.382812 -18.613281 -4.5 -18.28125 -3.59375 -17.53125 L 4.375 -11 C 5.269531 -10.257812 5.757812 -9.457031 5.84375 -8.59375 C 5.9375 -7.726562 5.613281 -6.835938 4.875 -5.921875 L 1.046875 -1.28125 C 0.878906 -1.070312 0.691406 -1.054688 0.484375 -1.234375 Z M 0.390625 -5.703125 L 1.859375 -7.5 C 2.285156 -8.007812 2.242188 -8.472656 1.734375 -8.890625 L -5.140625 -14.53125 C -5.671875 -14.96875 -6.148438 -14.929688 -6.578125 -14.421875 L -8.046875 -12.625 Z M 0.390625 -5.703125 "/></g></g></g><g fill="#f5f0e9" fill-opacity="1"><g transform="translate(56.387121, 193.425837)"><g><path d="M 11.15625 -10.109375 L 4.46875 -10.109375 L 4.46875 -7.59375 L 10.5 -7.59375 L 10.5 -5.078125 L 4.46875 -5.078125 L 4.46875 -2.53125 L 11.34375 -2.53125 L 11.34375 0 L 1.265625 0 L 1.265625 -12.625 L 11.15625 -12.625 Z M 11.15625 -10.109375 "/></g></g></g><g fill="#f5f0e9" fill-opacity="1"><g transform="translate(70.067086, 193.425837)"><g><path d="M 6.125 -12.78125 C 8.007812 -12.78125 9.664062 -12.3125 11.09375 -11.375 L 9.890625 -8.859375 C 9.222656 -9.242188 8.507812 -9.554688 7.75 -9.796875 C 7 -10.046875 6.363281 -10.171875 5.84375 -10.171875 C 4.914062 -10.171875 4.453125 -9.867188 4.453125 -9.265625 C 4.453125 -8.859375 4.679688 -8.535156 5.140625 -8.296875 C 5.597656 -8.054688 6.15625 -7.847656 6.8125 -7.671875 C 7.46875 -7.503906 8.125 -7.296875 8.78125 -7.046875 C 9.4375 -6.796875 9.992188 -6.394531 10.453125 -5.84375 C 10.910156 -5.289062 11.140625 -4.59375 11.140625 -3.75 C 11.140625 -2.539062 10.660156 -1.59375 9.703125 -0.90625 C 8.753906 -0.226562 7.546875 0.109375 6.078125 0.109375 C 5.035156 0.109375 4 -0.0664062 2.96875 -0.421875 C 1.945312 -0.785156 1.0625 -1.28125 0.3125 -1.90625 L 1.546875 -4.390625 C 2.191406 -3.835938 2.945312 -3.378906 3.8125 -3.015625 C 4.675781 -2.660156 5.445312 -2.484375 6.125 -2.484375 C 6.632812 -2.484375 7.035156 -2.578125 7.328125 -2.765625 C 7.617188 -2.953125 7.765625 -3.226562 7.765625 -3.59375 C 7.765625 -3.9375 7.597656 -4.222656 7.265625 -4.453125 C 6.929688 -4.691406 6.515625 -4.867188 6.015625 -4.984375 C 5.523438 -5.097656 4.992188 -5.25 4.421875 -5.4375 C 3.847656 -5.632812 3.3125 -5.847656 2.8125 -6.078125 C 2.320312 -6.304688 1.910156 -6.671875 1.578125 -7.171875 C 1.242188 -7.671875 1.078125 -8.269531 1.078125 -8.96875 C 1.078125 -10.125 1.535156 -11.046875 2.453125 -11.734375 C 3.378906 -12.429688 4.601562 -12.78125 6.125 -12.78125 Z M 6.125 -12.78125 "/></g></g></g><g fill="#f5f0e9" fill-opacity="1"><g transform="translate(83.205653, 193.425837)"><g><path d="M 10.921875 -10.046875 L 7.109375 -10.046875 L 7.109375 0 L 3.890625 0 L 3.890625 -10.046875 L 0.125 -10.046875 L 0.125 -12.65625 L 10.921875 -12.65625 Z M 10.921875 -10.046875 "/></g></g></g><g fill="#f5f0e9" fill-opacity="1"><g transform="translate(95.748671, 193.425837)"><g><path d="M 1.09375 -2.453125 C 1.375 -2.734375 1.734375 -2.875 2.171875 -2.875 C 2.617188 -2.875 2.984375 -2.734375 3.265625 -2.453125 C 3.554688 -2.179688 3.703125 -1.820312 3.703125 -1.375 C 3.703125 -0.925781 3.554688 -0.5625 3.265625 -0.28125 C 2.984375 0 2.617188 0.140625 2.171875 0.140625 C 1.734375 0.140625 1.375 0 1.09375 -0.28125 C 0.820312 -0.5625 0.6875 -0.925781 0.6875 -1.375 C 0.6875 -1.820312 0.820312 -2.179688 1.09375 -2.453125 Z M 1.09375 -2.453125 "/></g></g></g><g fill="#f5f0e9" fill-opacity="1"><g transform="translate(270.941237, 193.425837)"><g><path d="M 5.515625 -12.78125 C 6.785156 -12.78125 7.820312 -12.472656 8.625 -11.859375 C 9.425781 -11.253906 9.828125 -10.457031 9.828125 -9.46875 C 9.828125 -8.289062 9.035156 -6.890625 7.453125 -5.265625 L 4.890625 -2.546875 L 10.21875 -2.546875 L 10.21875 0 L 0.765625 0 L 0.765625 -2.078125 L 5.265625 -6.859375 C 6.078125 -7.703125 6.484375 -8.421875 6.484375 -9.015625 C 6.484375 -9.378906 6.351562 -9.660156 6.09375 -9.859375 C 5.84375 -10.066406 5.492188 -10.171875 5.046875 -10.171875 C 4.003906 -10.171875 2.859375 -9.640625 1.609375 -8.578125 L 0.390625 -10.875 C 2.078125 -12.144531 3.785156 -12.78125 5.515625 -12.78125 Z M 5.515625 -12.78125 "/></g></g></g><g fill="#f5f0e9" fill-opacity="1"><g transform="translate(283.285745, 193.425837)"><g><path d="M 6.359375 -12.734375 C 8.148438 -12.734375 9.523438 -12.179688 10.484375 -11.078125 C 11.441406 -9.972656 11.921875 -8.390625 11.921875 -6.328125 C 11.921875 -4.265625 11.441406 -2.675781 10.484375 -1.5625 C 9.523438 -0.457031 8.148438 0.09375 6.359375 0.09375 C 4.546875 0.09375 3.15625 -0.457031 2.1875 -1.5625 C 1.21875 -2.675781 0.734375 -4.265625 0.734375 -6.328125 C 0.734375 -8.390625 1.21875 -9.972656 2.1875 -11.078125 C 3.15625 -12.179688 4.546875 -12.734375 6.359375 -12.734375 Z M 6.359375 -10.390625 C 5.535156 -10.390625 4.941406 -10.070312 4.578125 -9.4375 C 4.222656 -8.8125 4.046875 -7.773438 4.046875 -6.328125 C 4.046875 -4.890625 4.222656 -3.847656 4.578125 -3.203125 C 4.941406 -2.566406 5.535156 -2.25 6.359375 -2.25 C 7.148438 -2.25 7.726562 -2.570312 8.09375 -3.21875 C 8.457031 -3.863281 8.640625 -4.898438 8.640625 -6.328125 C 8.640625 -7.765625 8.457031 -8.800781 8.09375 -9.4375 C 7.726562 -10.070312 7.148438 -10.390625 6.359375 -10.390625 Z M 6.359375 -10.390625 "/></g></g></g><g fill="#f5f0e9" fill-opacity="1"><g transform="translate(297.489071, 193.425837)"><g><path d="M 5.515625 -12.78125 C 6.785156 -12.78125 7.820312 -12.472656 8.625 -11.859375 C 9.425781 -11.253906 9.828125 -10.457031 9.828125 -9.46875 C 9.828125 -8.289062 9.035156 -6.890625 7.453125 -5.265625 L 4.890625 -2.546875 L 10.21875 -2.546875 L 10.21875 0 L 0.765625 0 L 0.765625 -2.078125 L 5.265625 -6.859375 C 6.078125 -7.703125 6.484375 -8.421875 6.484375 -9.015625 C 6.484375 -9.378906 6.351562 -9.660156 6.09375 -9.859375 C 5.84375 -10.066406 5.492188 -10.171875 5.046875 -10.171875 C 4.003906 -10.171875 2.859375 -9.640625 1.609375 -8.578125 L 0.390625 -10.875 C 2.078125 -12.144531 3.785156 -12.78125 5.515625 -12.78125 Z M 5.515625 -12.78125 "/></g></g></g><g fill="#f5f0e9" fill-opacity="1"><g transform="translate(309.83358, 193.425837)"><g><path d="M 6.359375 -12.734375 C 8.148438 -12.734375 9.523438 -12.179688 10.484375 -11.078125 C 11.441406 -9.972656 11.921875 -8.390625 11.921875 -6.328125 C 11.921875 -4.265625 11.441406 -2.675781 10.484375 -1.5625 C 9.523438 -0.457031 8.148438 0.09375 6.359375 0.09375 C 4.546875 0.09375 3.15625 -0.457031 2.1875 -1.5625 C 1.21875 -2.675781 0.734375 -4.265625 0.734375 -6.328125 C 0.734375 -8.390625 1.21875 -9.972656 2.1875 -11.078125 C 3.15625 -12.179688 4.546875 -12.734375 6.359375 -12.734375 Z M 6.359375 -10.390625 C 5.535156 -10.390625 4.941406 -10.070312 4.578125 -9.4375 C 4.222656 -8.8125 4.046875 -7.773438 4.046875 -6.328125 C 4.046875 -4.890625 4.222656 -3.847656 4.578125 -3.203125 C 4.941406 -2.566406 5.535156 -2.25 6.359375 -2.25 C 7.148438 -2.25 7.726562 -2.570312 8.09375 -3.21875 C 8.457031 -3.863281 8.640625 -4.898438 8.640625 -6.328125 C 8.640625 -7.765625 8.457031 -8.800781 8.09375 -9.4375 C 7.726562 -10.070312 7.148438 -10.390625 6.359375 -10.390625 Z M 6.359375 -10.390625 "/></g></g></g></svg>